<svg width="80" height="80" viewBox="0 0 80 80" fill="none" xmlns="http://www.w3.org/2000/svg">
<circle cx="40" cy="40" r="39.5" fill="#D5D5D5" stroke="#DFDFDF"/>
<circle cx="70" cy="65" r="9" fill="#E4332D" stroke="white" stroke-width="2"/>
<path d="M65.75 65.6439V65.8939H66H69.0864V69V69.25H69.3364H70.6636H70.9136V69V65.8939H74H74.25V65.6439V64.3561V64.1061H74H70.9136V61V60.75H70.6636H69.3364H69.0864V61V64.1061H66H65.75V64.3561V65.6439Z" fill="white" stroke="white" stroke-width="0.5"/>
<path d="M56.6635 48.3741C54.4764 46.0044 51.8223 44.1133 48.8683 42.8198C45.9144 41.5264 42.7246 40.8586 39.4999 40.8586C36.2751 40.8586 33.0854 41.5264 30.1314 42.8198C27.1775 44.1133 24.5234 46.0044 22.3363 48.3741C21.9986 48.7475 21.8097 49.2318 21.8054 49.7352V57.9019C21.8126 58.4386 22.0308 58.951 22.413 59.328C22.7951 59.705 23.3103 59.9164 23.8471 59.9163H55.1526C55.6941 59.9163 56.2134 59.7012 56.5963 59.3183C56.9792 58.9354 57.1943 58.4161 57.1943 57.8746V49.708C57.1835 49.214 56.995 48.7405 56.6635 48.3741Z" fill="white"/>
<path d="M39.4999 38.1391C44.762 38.1391 49.0277 33.8733 49.0277 28.6113C49.0277 23.3492 44.762 19.0835 39.4999 19.0835C34.2379 19.0835 29.9722 23.3492 29.9722 28.6113C29.9722 33.8733 34.2379 38.1391 39.4999 38.1391Z" fill="white"/>
</svg>
