<svg width="41" height="39" viewBox="0 0 41 39" fill="none" xmlns="http://www.w3.org/2000/svg">
<path d="M36.8333 12.3333H25.3755L27.6683 5.45896C28.0807 4.21763 27.8724 2.84154 27.1068 1.77988C26.3412 0.718211 25.0999 0.083252 23.7911 0.083252H20.5C19.8936 0.083252 19.3199 0.352752 18.9299 0.818252L9.33411 12.3333H4.16665C1.91469 12.3333 0.083313 14.1646 0.083313 16.4166V34.7916C0.083313 37.0435 1.91469 38.8749 4.16665 38.8749H31.3351C32.1658 38.8722 32.9762 38.6173 33.659 38.1442C34.3418 37.671 34.8649 37.0017 35.1591 36.2248L40.788 21.2165C40.8735 20.9873 40.9171 20.7446 40.9166 20.4999V16.4166C40.9166 14.1646 39.0853 12.3333 36.8333 12.3333ZM4.16665 16.4166H8.24998V34.7916H4.16665V16.4166ZM36.8333 20.1304L31.3351 34.7916H12.3333V15.114L21.4555 4.16659H23.7952L20.6061 13.7277C20.5026 14.0346 20.4737 14.3618 20.5219 14.682C20.5701 15.0023 20.6939 15.3065 20.8831 15.5694C21.0723 15.8322 21.3215 16.0462 21.6099 16.1936C21.8984 16.3409 22.2178 16.4174 22.5416 16.4166H36.8333V20.1304Z" fill="#E4332D"/>
</svg>
