<svg width="41" height="39" viewBox="0 0 41 39" fill="none" xmlns="http://www.w3.org/2000/svg">
<path d="M36.8333 12.3334H25.3754L27.6682 5.45908C28.0806 4.21775 27.8724 2.84167 27.1068 1.78C26.3411 0.718333 25.0998 0.083374 23.7911 0.083374H20.4999C19.8935 0.083374 19.3198 0.352874 18.9299 0.818374L9.33404 12.3334H4.16659C1.91463 12.3334 0.083252 14.1647 0.083252 16.4167V34.7917C0.083252 37.0437 1.91463 38.875 4.16659 38.875H31.335C32.1658 38.8723 32.9761 38.6175 33.6589 38.1443C34.3417 37.6711 34.8648 37.0018 35.1591 36.225L40.788 21.2167C40.8734 20.9874 40.917 20.7447 40.9166 20.5V16.4167C40.9166 14.1647 39.0852 12.3334 36.8333 12.3334ZM4.16659 16.4167H8.24992V34.7917H4.16659V16.4167ZM36.8333 20.1305L31.335 34.7917H12.3333V15.1141L21.4554 4.16671H23.7952L20.6061 13.7278C20.5026 14.0347 20.4737 14.3619 20.5219 14.6822C20.57 15.0024 20.6938 15.3066 20.8831 15.5695C21.0723 15.8324 21.3214 16.0463 21.6099 16.1937C21.8983 16.341 22.2177 16.4175 22.5416 16.4167H36.8333V20.1305Z" fill="white"/>
</svg>
