<svg width="67" height="67" viewBox="0 0 67 67" fill="none" xmlns="http://www.w3.org/2000/svg">
<path fill-rule="evenodd" clip-rule="evenodd" d="M27.9593 23.794C28.2634 23.628 28.6339 23.6413 28.9254 23.8286L42.1851 32.3528C42.4562 32.5271 42.6201 32.8272 42.6201 33.1495C42.6201 33.4718 42.4562 33.7719 42.1851 33.9462L28.9254 42.4703C28.6339 42.6577 28.2634 42.671 27.9593 42.5049C27.6552 42.3389 27.4661 42.0201 27.4661 41.6736V24.6254C27.4661 24.2789 27.6552 23.9601 27.9593 23.794ZM29.3603 26.3602V39.9388L39.9215 33.1495L29.3603 26.3602Z" fill="white"/>
<path fill-rule="evenodd" clip-rule="evenodd" d="M33.149 64.4047C50.4107 64.4047 64.4042 50.4112 64.4042 33.1495C64.4042 15.8877 50.4107 1.89426 33.149 1.89426C15.8872 1.89426 1.89377 15.8877 1.89377 33.1495C1.89377 50.4112 15.8872 64.4047 33.149 64.4047ZM33.149 66.2989C51.4569 66.2989 66.2984 51.4574 66.2984 33.1495C66.2984 14.8415 51.4569 0 33.149 0C14.841 0 -0.000488281 14.8415 -0.000488281 33.1495C-0.000488281 51.4574 14.841 66.2989 33.149 66.2989Z" fill="white"/>
</svg>
