<svg width="39" height="39" viewBox="0 0 39 39" fill="none" xmlns="http://www.w3.org/2000/svg">
<path fill-rule="evenodd" clip-rule="evenodd" d="M38.3705 3.12848C38.3426 2.75399 38.1854 2.38732 37.899 2.10095C37.4336 1.63546 36.7559 1.51141 36.1773 1.72882L3.71319 13.0913C3.08431 13.3114 2.65352 13.8931 2.62636 14.5588C2.5992 15.2245 2.98118 15.8394 3.59003 16.11L17.6439 22.3562L23.8901 36.41C24.1607 37.0189 24.7755 37.4009 25.4412 37.3737C26.107 37.3465 26.6887 36.9157 26.9088 36.2869L38.2723 3.81965C38.3551 3.59789 38.3879 3.36167 38.3705 3.12848ZM30.5657 7.13621L8.6555 14.8048L18.5151 19.1868L30.5657 7.13621ZM20.8132 21.4849L32.8639 9.4342L25.1953 31.3445L20.8132 21.4849Z" fill="white"/>
</svg>
