<svg width="21" height="21" viewBox="0 0 21 21" fill="none" xmlns="http://www.w3.org/2000/svg">
<path d="M2.62503 5.25H4.37503H18.375" stroke="white" stroke-width="2" stroke-linecap="round" stroke-linejoin="round"/>
<path d="M7.00003 5.25V3.5C7.00003 3.03587 7.18441 2.59075 7.51259 2.26256C7.84078 1.93437 8.2859 1.75 8.75003 1.75H12.25C12.7142 1.75 13.1593 1.93437 13.4875 2.26256C13.8157 2.59075 14 3.03587 14 3.5V5.25M16.625 5.25V17.5C16.625 17.9641 16.4407 18.4092 16.1125 18.7374C15.7843 19.0656 15.3392 19.25 14.875 19.25H6.12503C5.6609 19.25 5.21578 19.0656 4.88759 18.7374C4.5594 18.4092 4.37503 17.9641 4.37503 17.5V5.25H16.625Z" stroke="white" stroke-width="2" stroke-linecap="round" stroke-linejoin="round"/>
<path d="M8.75003 9.625V14.875" stroke="white" stroke-width="2" stroke-linecap="round" stroke-linejoin="round"/>
<path d="M12.25 9.625V14.875" stroke="white" stroke-width="2" stroke-linecap="round" stroke-linejoin="round"/>
</svg>
