<svg width="35" height="35" viewBox="0 0 35 35" fill="none" xmlns="http://www.w3.org/2000/svg">
<path d="M31.9562 9.12993H27.1323L24.3475 6.08643H13.6954V10.6516H9.13016V15.2169H4.56494V30.4342C4.56494 32.1081 5.93451 33.4777 7.60844 33.4777H31.9562C33.6302 33.4777 34.9997 32.1081 34.9997 30.4342V12.1734C34.9997 10.4995 33.6302 9.12993 31.9562 9.12993ZM19.7823 28.9125C15.5823 28.9125 12.1736 25.5038 12.1736 21.3038C12.1736 17.1038 15.5823 13.6951 19.7823 13.6951C23.9823 13.6951 27.391 17.1039 27.391 21.3039C27.391 25.5038 23.9823 28.9125 19.7823 28.9125Z" fill="#0057A5"/>
<path d="M4.56522 13.6952H7.60872V9.12996H12.1739V6.08646H7.60872V1.52124H4.56522V6.08646H0V9.12996H4.56522V13.6952Z" fill="#0057A5"/>
<path d="M19.7827 16.4343C17.0892 16.4343 14.9131 18.6104 14.9131 21.3039C14.9131 23.9974 17.0892 26.1735 19.7827 26.1735C22.4761 26.1735 24.6523 23.9974 24.6523 21.3039C24.6523 18.6104 22.4761 16.4343 19.7827 16.4343Z" fill="#0057A5"/>
</svg>
