<svg width="97" height="97" viewBox="0 0 97 97" fill="none" xmlns="http://www.w3.org/2000/svg">
<path fill-rule="evenodd" clip-rule="evenodd" d="M41.0641 35.0119C41.5024 34.7726 42.0363 34.7918 42.4563 35.0617L61.5651 47.346C61.9557 47.5971 62.1919 48.0297 62.1919 48.4941C62.1919 48.9585 61.9557 49.3911 61.5651 49.6422L42.4563 61.9265C42.0363 62.1965 41.5024 62.2156 41.0641 61.9763C40.6259 61.7371 40.3533 61.2776 40.3533 60.7783V36.2099C40.3533 35.7106 40.6259 35.2511 41.0641 35.0119ZM43.0831 38.7099V58.2783L58.3029 48.4941L43.0831 38.7099Z" fill="#E82D27"/>
<path fill-rule="evenodd" clip-rule="evenodd" d="M48.5433 93.5365C73.4194 93.5365 93.5855 73.3705 93.5855 48.4944C93.5855 23.6183 73.4194 3.45224 48.5433 3.45224C23.6672 3.45224 3.50119 23.6183 3.50119 48.4944C3.50119 73.3705 23.6672 93.5365 48.5433 93.5365ZM48.5433 96.2664C74.9271 96.2664 96.3153 74.8781 96.3153 48.4944C96.3153 22.1107 74.9271 0.722412 48.5433 0.722412C22.1596 0.722412 0.771362 22.1107 0.771362 48.4944C0.771362 74.8781 22.1596 96.2664 48.5433 96.2664Z" fill="#E82D27"/>
</svg>
