<svg width="68" height="69" viewBox="0 0 68 69" fill="none" xmlns="http://www.w3.org/2000/svg">
<g clip-path="url(#clip0)">
<path d="M54.1283 16.3614C51.9297 18.291 49.4363 20.3024 46.6256 22.3255C45.8323 22.8869 45.0163 23.4599 44.1663 24.0329C43.5203 24.4656 42.863 24.8983 42.1943 25.331C42.5929 21.905 41.905 18.4379 40.2336 15.4492C44.8465 16.0046 49.4845 16.309 54.1283 16.3614Z" fill="#24AE5F"/>
<path d="M18.7906 10.2567L18.6093 10.7245C11.6393 22.7347 1.1333 15.6712 1.1333 15.6712C5.16797 12.2565 6.0633 6.70165 6.18797 3.18164C10.0174 6.18488 14.2668 8.57046 18.7906 10.2567Z" fill="#FF5364"/>
<path d="M67.0592 25.5544C67.0592 25.5544 56.0999 35.249 46.6252 22.3267C49.4359 20.3036 51.9292 18.2922 54.1279 16.3626C55.9412 14.7722 57.5506 13.2402 58.9559 11.8135C59.7636 17.3291 62.6829 22.2795 67.0592 25.5544Z" fill="#7D6599"/>
<path d="M51.8954 40.1598C51.8954 40.1598 37.7514 50.3807 28.3334 33.0496L28.2314 32.8157C33.0602 30.6839 37.7274 28.1821 42.1941 25.3313C42.8628 24.8986 43.5201 24.4659 44.1661 24.0332C44.615 30.2405 47.387 36.0241 51.8954 40.1598Z" fill="#F29C1F"/>
<path d="M23.1194 42.5924C13.8601 60.4731 1.03076 50.1236 1.03076 50.1236C4.94533 45.8686 7.51097 40.4841 8.38609 34.687C9.96143 35.7278 11.7974 36.8622 13.8714 38.0199C16.8767 39.7053 19.9634 41.2315 23.1194 42.5924Z" fill="#894B9D"/>
<path d="M44.234 49.2112L44.2 49.41C35.8927 70.0389 20.0374 60.2858 20.0374 60.2858C23.6822 55.615 25.9027 49.9336 26.418 43.9604C32.204 46.2216 38.1635 47.9781 44.234 49.2112Z" fill="#C03A2B"/>
<path d="M66.8664 51.4563V51.4914C62.911 74.81 45.1404 68.1091 45.1404 68.1091C47.995 62.5404 49.1038 56.1946 48.3137 49.9478C54.4492 50.9591 60.6531 51.4636 66.8664 51.4563Z" fill="#24AE5F"/>
<path d="M36.9356 14.9934L36.9016 15.2623C31.1329 29.8452 21.4883 24.5594 21.4883 24.5594C24.1516 17.8468 22.5763 13.1457 21.7149 11.3447C26.677 13.0118 31.7695 14.2326 36.9356 14.9934Z" fill="#3B97D3"/>
<path d="M54.1504 17.5312H54.1356C49.4445 17.476 44.7593 17.1676 40.0993 16.6074C12.99 13.3096 3.56517 2.3987 3.17304 1.9356C2.76368 1.44604 2.81646 0.706751 3.2909 0.284356C3.76535 -0.138038 4.48182 -0.0835866 4.89117 0.405978C4.9807 0.510058 14.2366 11.1063 40.3645 14.2884C44.946 14.8373 49.552 15.139 54.164 15.1924C54.7899 15.1966 55.294 15.7235 55.2899 16.3694C55.2859 17.0153 54.7752 17.5354 54.1492 17.5312H54.1504Z" fill="#35495E"/>
<path d="M13.8725 39.189C13.3051 39.1896 12.8246 38.7572 12.7482 38.1771C12.6718 37.5969 13.0229 37.0479 13.5699 36.8922C50.0088 26.455 65.761 1.95054 65.9163 1.70379C66.2601 1.17065 66.9556 1.02206 67.4763 1.37047C67.9971 1.71887 68.1494 2.43467 67.818 2.97614C67.6582 3.2299 51.4334 28.4699 14.1762 39.1457C14.0773 39.1743 13.9751 39.1888 13.8725 39.189Z" fill="#547580"/>
<path d="M66.8666 52.6262C24.9809 52.6262 0.614186 30.3297 0.372786 30.1051C-0.0916487 29.6721 -0.127929 28.9325 0.291753 28.4533C0.711434 27.9741 1.42815 27.9366 1.89259 28.3697C2.12832 28.5884 25.8977 50.2873 66.8666 50.2873C67.4925 50.2873 67.9999 50.8109 67.9999 51.4567C67.9999 52.1026 67.4925 52.6262 66.8666 52.6262Z" fill="#BDC3C7"/>
</g>
<defs>
<clipPath id="clip0">
<rect width="68" height="69" fill="white"/>
</clipPath>
</defs>
</svg>
