<svg width="69" height="69" viewBox="0 0 69 69" fill="none" xmlns="http://www.w3.org/2000/svg">
<g clip-path="url(#clip0)">
<path d="M66.9542 40.6889C51.3034 33.3004 39.7524 27.981 39.7524 27.981L2.04565 28.3105C2.04565 28.3105 12.3753 35.0873 26.4176 41.033L66.9542 40.6889Z" fill="#A4464F"/>
<path d="M67.903 41.5248C67.8208 41.0585 67.4273 40.712 66.9542 40.6891C66.6456 40.6756 37.6966 39.3602 7.25171 40.433L10.3257 54.5057L7.25171 68.5796C16.06 68.8897 24.7429 69.0002 32.6442 69.0002C52.0478 69.0002 66.7346 68.3317 66.9542 68.3222C67.4273 68.3007 67.8208 67.953 67.903 67.4866C67.9474 67.2319 69 61.1599 69 54.5055C69 47.8512 67.9474 41.7795 67.903 41.5248Z" fill="#FF5364"/>
<path d="M2.04574 0.677645C1.57271 0.699207 1.1792 1.0469 1.09699 1.51333C1.05252 1.76803 0 7.84003 0 14.4942C0 21.1484 1.05252 27.2204 1.09699 27.4751C1.1792 27.9414 1.57271 28.2879 2.04574 28.3108C2.26541 28.3202 16.9495 28.9875 36.3557 28.9875C44.222 28.9875 52.8645 28.8783 61.6337 28.5724L58.6743 14.4944L61.6337 0.417547C31.2319 -0.648584 2.35436 0.664168 2.04574 0.677645Z" fill="#FF5364"/>
<path d="M68.9042 26.8701C69.047 27.176 69.0295 27.5333 68.8543 27.823C68.6805 28.1114 68.3732 28.2947 68.0363 28.3109C67.0606 28.3567 66.0835 28.3998 65.1078 28.4389C63.9475 28.4874 62.7899 28.5319 61.6336 28.5723C61.0999 27.5628 57.7227 21.3088 53.0005 15.1762C52.6919 14.7746 52.6919 14.2138 53.0005 13.8122C57.72 7.68229 61.0959 1.4324 61.6336 0.41748C62.8519 0.459258 64.0742 0.506426 65.2965 0.556289C66.2089 0.595371 67.1226 0.634453 68.0363 0.677578C68.3732 0.69375 68.6805 0.877031 68.8543 1.16543C69.0295 1.45518 69.047 1.81244 68.9042 2.11836C68.7735 2.39328 65.7763 8.72538 61.3694 14.4942C65.7763 20.2631 68.7735 26.5952 68.9042 26.8701Z" fill="#24AE5F"/>
<path d="M15.8983 55.1647C11.1613 61.3136 7.77462 67.5904 7.25173 68.5797C6.13317 68.5406 5.01327 68.4975 3.89202 68.4504C2.91632 68.4113 1.93927 68.3681 0.963565 68.3223C0.62665 68.3062 0.319385 68.1229 0.145537 67.8345C-0.0296581 67.5447 -0.0471777 67.1875 0.0956739 66.8815C0.226397 66.6066 3.22358 60.2745 7.63042 54.5057C3.22358 48.7371 0.226397 42.405 0.0956739 42.1299C-0.0471777 41.824 -0.0296581 41.4668 0.145537 41.177C0.319385 40.8886 0.62665 40.7053 0.963565 40.6892C1.87728 40.6474 2.79099 40.607 3.7047 40.5706C4.88794 40.5207 6.07118 40.4749 7.25173 40.4331C7.77597 41.4224 11.1613 47.6979 15.8983 53.8467C16.1975 54.2347 16.1975 54.7765 15.8983 55.1647Z" fill="#FDE589"/>
<path d="M10.1629 8.02666C9.93961 7.64878 9.49771 7.45862 9.06956 7.55525C8.64141 7.65228 8.32484 8.01467 8.28617 8.45198C8.26582 8.68256 7.79158 14.1737 8.28536 20.4429C8.32916 20.9995 8.81566 21.4137 9.37224 21.3713C9.92869 21.3275 10.3443 20.8407 10.3005 20.2841C10.0563 17.1832 10.0593 14.2344 10.1217 12.0788C11.3249 14.2899 12.9779 17.469 14.4388 20.7725C14.6036 21.1451 14.9707 21.3745 15.3628 21.3745C15.4448 21.3745 15.5281 21.3645 15.6107 21.3435C16.0884 21.2228 16.4094 20.7753 16.3708 20.2841C15.891 14.1907 16.3651 8.68486 16.3699 8.63001C16.419 8.07383 16.0081 7.58328 15.4521 7.53409C14.8975 7.48611 14.4055 7.8958 14.3563 8.45198C14.3417 8.61734 14.0942 11.4837 14.1366 15.4018C12.0599 11.2457 10.188 8.06898 10.1629 8.02666Z" fill="#DCEFFF"/>
<path d="M26.412 9.55034C26.9638 9.58241 27.4453 9.15211 27.4749 8.59445C27.5046 8.03706 27.0767 7.56106 26.5192 7.53142C23.194 7.35447 20.1544 7.52427 20.0268 7.53169C19.5259 7.56026 19.1219 7.95202 19.0777 8.45173C19.0573 8.68231 18.5831 14.1735 19.0769 20.4426C19.1165 20.9465 19.5223 21.3437 20.0268 21.3724C20.1111 21.3772 21.4634 21.4528 23.3297 21.4528C24.2909 21.4528 25.3886 21.4328 26.5192 21.3727C27.0767 21.343 27.5046 20.8671 27.4749 20.3096C27.4454 19.7521 26.9627 19.3241 26.412 19.3537C24.2473 19.4687 22.1645 19.4296 21.0281 19.3912C20.9385 18.0061 20.8958 16.6646 20.8823 15.426C21.4928 15.4451 22.3242 15.4633 23.2725 15.4633C24.2661 15.4633 25.3885 15.4432 26.5192 15.3831C27.0767 15.3535 27.5046 14.8776 27.4749 14.3201C27.4454 13.7626 26.9627 13.3331 26.412 13.3642C24.2595 13.4785 22.0914 13.4405 20.8851 13.4023C20.9078 11.7116 20.9764 10.3436 21.0284 9.51247C22.1645 9.4746 24.2474 9.43538 26.412 9.55034Z" fill="#DCEFFF"/>
<path d="M33.0865 21.4521C33.5396 21.4521 33.9374 21.1503 34.0598 20.7141C34.741 18.2829 35.2929 15.9288 35.7133 13.9584C36.1337 15.9288 36.6858 18.2829 37.3671 20.7141C37.4893 21.1505 37.8871 21.4521 38.3403 21.4521C38.7936 21.4521 39.1912 21.1503 39.3136 20.7141C41.061 14.4788 41.9572 8.75271 41.9661 8.69556C42.0516 8.14397 41.6738 7.62741 41.122 7.54184C40.5706 7.45653 40.054 7.83428 39.9684 8.38587C39.9616 8.43008 39.4129 11.9325 38.3403 16.4109C37.2679 11.9325 36.7191 8.43008 36.7122 8.38587C36.636 7.89331 36.2118 7.52984 35.7135 7.52998C35.2151 7.52998 34.791 7.89331 34.7147 8.38587C34.7079 8.43008 34.1592 11.9325 33.0868 16.4109C32.0142 11.9325 31.4655 8.43008 31.4587 8.38587C31.3731 7.83441 30.8568 7.4564 30.3051 7.54184C29.7533 7.62728 29.3756 8.14383 29.461 8.69556C29.4698 8.75271 30.3661 14.4788 32.1135 20.7141C32.2356 21.1503 32.6334 21.4521 33.0865 21.4521Z" fill="#DCEFFF"/>
<path d="M28.5204 61.4839C29.0788 61.4839 29.5312 61.0314 29.5312 60.473V57.3604C31.2455 54.1802 32.456 49.0247 32.5079 48.8015C32.6343 48.2578 32.2962 47.7145 31.7527 47.588C31.2089 47.4617 30.6656 47.7996 30.5391 48.3433C30.529 48.3866 29.7062 51.8889 28.5204 54.7571C27.3348 51.889 26.5122 48.3867 26.5019 48.3433C26.3754 47.7996 25.8317 47.462 25.2884 47.588C24.7448 47.7147 24.4066 48.2578 24.5331 48.8015C24.585 49.0249 25.7955 54.1802 27.5097 57.3604V60.473C27.5097 61.0314 27.9622 61.4839 28.5204 61.4839Z" fill="#DCEFFF"/>
<path d="M41.0376 49.6597C41.0558 49.6607 41.074 49.6611 41.0921 49.6611C41.6256 49.6611 42.072 49.2431 42.1004 48.7038C42.1301 48.1464 41.7022 47.6704 41.1446 47.6407C37.8116 47.4633 35.411 47.6347 35.3106 47.6421C34.8165 47.6783 34.4213 48.0674 34.3777 48.5611C34.3573 48.7916 33.8832 54.2828 34.3769 60.552C34.4159 61.0498 34.8127 61.4442 35.3106 61.4808C35.3771 61.4856 36.4493 61.5622 38.1321 61.5622C38.9939 61.5622 40.0159 61.5422 41.1446 61.4821C41.7022 61.4525 42.1301 60.9766 42.1004 60.4191C42.0708 59.8614 41.5899 59.4333 41.0375 59.4632C38.9959 59.5715 37.2967 59.543 36.3287 59.5073C36.2389 58.1223 36.196 56.7808 36.1824 55.5421C36.6776 55.5585 37.322 55.5728 38.0746 55.5728C38.9685 55.5728 40.0152 55.5528 41.1446 55.4927C41.7022 55.4631 42.1301 54.9872 42.1004 54.4297C42.0708 53.8722 41.5899 53.4421 41.0375 53.4738C39.0027 53.5817 37.2207 53.5536 36.1851 53.5181C36.2078 51.8201 36.2768 50.447 36.3288 49.6155C37.2972 49.5799 38.9966 49.5514 41.0376 49.6597Z" fill="#DCEFFF"/>
<path d="M44.5937 61.4836C45.0648 61.4836 45.4865 61.1524 45.5834 60.6727C45.5899 60.6409 45.8671 59.2797 46.3381 57.4091C47.1647 57.3749 48.5981 57.3386 50.1189 57.4052C50.5905 59.2779 50.8681 60.6409 50.8746 60.6729C50.9849 61.22 51.5171 61.5739 52.0654 61.4637C52.6125 61.3533 52.9665 60.82 52.856 60.2729C52.7921 59.9562 51.267 52.469 49.1362 48.127C48.9664 47.7809 48.6144 47.5615 48.229 47.5615C47.8434 47.5615 47.4914 47.7809 47.3216 48.1271C45.1911 52.4689 43.6658 59.9562 43.6019 60.2729C43.4916 60.82 43.8456 61.3532 44.3926 61.4637C44.4601 61.477 44.5274 61.4836 44.5937 61.4836ZM48.229 51.1553C48.7349 52.5053 49.1915 53.9827 49.5772 55.3623C48.5512 55.3335 47.6049 55.345 46.8797 55.3661C47.2657 53.9854 47.7225 52.5065 48.229 51.1553Z" fill="#DCEFFF"/>
<path d="M62.4438 51.5595C62.4438 49.7511 61.651 48.7692 60.9859 48.2638C58.9944 46.7506 55.8119 47.5773 55.4554 47.6764C55.0499 47.7893 54.7568 48.1419 54.7198 48.5611C54.6994 48.7917 54.2252 54.2829 54.719 60.5519C54.7607 61.0815 55.2032 61.4835 55.7255 61.4834C55.7521 61.4834 55.7789 61.4823 55.806 61.4803C56.3624 61.4365 56.778 60.9497 56.7342 60.3933C56.6036 58.7353 56.5438 57.1212 56.5257 55.6483C57.1124 55.6978 57.8443 55.7127 58.5935 55.6094C59.0325 56.6898 59.845 58.7619 60.4678 60.772C60.6021 61.2057 61.0016 61.4839 61.433 61.4839C61.5319 61.4839 61.6327 61.4693 61.7324 61.4384C62.2655 61.2732 62.5639 60.707 62.3987 60.1736C61.777 58.1668 60.9924 56.1468 60.5292 55.0017C60.7242 54.8934 60.9114 54.7692 61.0877 54.6273C61.7064 54.129 62.4438 53.1922 62.4438 51.5595ZM59.8218 53.0509C59.0205 53.6985 57.54 53.7171 56.5259 53.6159C56.5483 51.7781 56.6255 50.3108 56.6792 49.4827C57.6012 49.3373 58.9868 49.2817 59.7658 49.8758C60.2075 50.2128 60.4224 50.7636 60.4224 51.5595C60.4224 52.4613 60.0797 52.8425 59.8218 53.0509Z" fill="#DCEFFF"/>
<path d="M46.5857 15.4243C47.1439 15.4243 47.5964 14.9718 47.5964 14.4136C47.5964 13.8554 47.1439 13.4028 46.5857 13.4028C46.0275 13.4028 45.575 13.8554 45.575 14.4136C45.575 14.9718 46.0275 15.4243 46.5857 15.4243Z" fill="#FFA1A8"/>
<path d="M46.5857 9.62988C47.1439 9.62988 47.5964 9.17736 47.5964 8.61914C47.5964 8.06092 47.1439 7.6084 46.5857 7.6084C46.0275 7.6084 45.575 8.06092 45.575 8.61914C45.575 9.17736 46.0275 9.62988 46.5857 9.62988Z" fill="#FFA1A8"/>
<path d="M46.5857 21.2173C47.1439 21.2173 47.5964 20.7648 47.5964 20.2065C47.5964 19.6483 47.1439 19.1958 46.5857 19.1958C46.0275 19.1958 45.575 19.6483 45.575 20.2065C45.575 20.7648 46.0275 21.2173 46.5857 21.2173Z" fill="#FFA1A8"/>
<path d="M20.8323 55.5039C21.3905 55.5039 21.843 55.0514 21.843 54.4932C21.843 53.9349 21.3905 53.4824 20.8323 53.4824C20.2741 53.4824 19.8215 53.9349 19.8215 54.4932C19.8215 55.0514 20.2741 55.5039 20.8323 55.5039Z" fill="#FFA1A8"/>
<path d="M20.8323 49.7095C21.3905 49.7095 21.843 49.2569 21.843 48.6987C21.843 48.1405 21.3905 47.688 20.8323 47.688C20.2741 47.688 19.8215 48.1405 19.8215 48.6987C19.8215 49.2569 20.2741 49.7095 20.8323 49.7095Z" fill="#FFA1A8"/>
<path d="M20.8323 61.2969C21.3905 61.2969 21.843 60.8444 21.843 60.2861C21.843 59.7279 21.3905 59.2754 20.8323 59.2754C20.2741 59.2754 19.8215 59.7279 19.8215 60.2861C19.8215 60.8444 20.2741 61.2969 20.8323 61.2969Z" fill="#FFA1A8"/>
<path d="M68.9043 26.8698C69.0471 27.1757 69.0296 27.533 68.8544 27.8227C68.6806 28.1111 68.3733 28.2944 68.0364 28.3106C67.0607 28.3564 66.0836 28.3995 65.1079 28.4386C61.0299 20.1778 56.9829 14.4145 56.9829 14.4145C60.5488 9.39516 63.9894 3.04285 65.2966 0.556152C66.209 0.595234 67.1227 0.634316 68.0364 0.677441C68.3733 0.693613 68.6806 0.876895 68.8544 1.16529C69.0296 1.45504 69.0471 1.8123 68.9043 2.11822C68.7736 2.39314 65.7764 8.72524 61.3695 14.494C65.7764 20.2628 68.7736 26.5949 68.9043 26.8698Z" fill="#23854D"/>
<path d="M12.017 54.426C12.017 54.426 7.97003 60.1892 3.89202 68.4501C2.91632 68.411 1.93927 68.3679 0.963565 68.3221C0.626651 68.3059 0.319385 68.1226 0.145537 67.8342C-0.0296581 67.5445 -0.0471777 67.1872 0.0956739 66.8813C0.226397 66.6064 3.22358 60.2743 7.63042 54.5055C3.22358 48.7368 0.226397 42.4047 0.0956739 42.1297C-0.0471777 41.8238 -0.0296581 41.4665 0.145537 41.1768C0.319385 40.8884 0.626651 40.7051 0.963565 40.6889C1.87728 40.6471 2.79099 40.6067 3.7047 40.5703C5.01327 43.0584 8.45249 49.408 12.017 54.426Z" fill="#F0C419"/>
</g>
<defs>
<clipPath id="clip0">
<rect width="69" height="69" fill="white"/>
</clipPath>
</defs>
</svg>
