<svg width="68" height="27" viewBox="0 0 68 27" fill="none" xmlns="http://www.w3.org/2000/svg">
<path d="M18.2779 1.19922V1.22301C16.2838 1.31659 14.3079 1.65208 12.3924 2.22232C10.3465 2.83067 8.43833 3.84121 6.77655 5.19646C5.09624 6.55556 3.81159 8.35255 3.06 10.3953L0.527587 8.68572C0.197622 8.46188 -0.000336382 8.08558 4.29103e-07 7.68284V4.54215C0.00847836 3.97175 0.409561 3.48536 0.96138 3.37629C6.66729 2.18427 12.4579 1.45627 18.2779 1.19922Z" fill="#2C3E50"/>
<path d="M18.7588 1.18945C18.7588 1.18945 18.5946 1.18945 18.2781 1.20159L18.7588 1.18945Z" fill="#2C3E50"/>
<path d="M67.9998 4.54071V7.6814C67.999 8.08288 67.8012 8.45758 67.4722 8.68071L64.9398 10.3938C64.1882 8.35111 62.9036 6.55412 61.2233 5.19502C59.563 3.83744 57.6544 2.82665 55.6074 2.22088C53.5378 1.60373 51.3976 1.26378 49.2412 1.20968V1.18945C55.2246 1.39838 61.1791 2.13075 67.0385 3.37842C67.589 3.48721 67.9897 3.97167 67.9998 4.54071Z" fill="#2C3E50"/>
<path d="M38.0094 12.2533C37.997 12.2522 37.9871 12.2422 37.986 12.2295C37.6264 11.7917 37.1839 11.4317 36.6846 11.1707C35.0056 10.2666 32.9939 10.2666 31.315 11.1707C30.8157 11.4317 30.3731 11.7917 30.0136 12.2295C30.0125 12.2422 30.0026 12.2522 29.9901 12.2533C30.3915 11.024 30.547 9.72566 30.4474 8.43453C30.3123 6.60408 29.4694 4.90208 28.1025 3.69971C29.9461 4.56655 31.9707 4.96272 33.9998 4.85367C36.0289 4.96272 38.0534 4.56655 39.897 3.69971C38.5302 4.90208 37.6873 6.60408 37.5522 8.43453C37.4526 9.72566 37.608 11.024 38.0094 12.2533Z" fill="#2C3E50"/>
<path d="M15.527 26.5755C11.1305 26.6628 6.90341 24.8554 3.89434 21.6016C2.4443 19.868 1.54838 17.7279 1.32558 15.4653C0.877529 11.1627 2.65685 6.93149 6.02813 4.28258C7.80946 2.82583 9.85533 1.73814 12.0497 1.08122C15.479 0.0331334 23.2274 -1.09585 28.0027 2.13525C30.0896 3.5092 31.424 5.79358 31.6102 8.31076C31.7164 10.8002 31.157 13.2724 29.9911 15.4653C27.3508 21.2161 24.1091 24.6257 20.0819 25.8986C18.6057 26.3549 17.0702 26.5831 15.527 26.5755Z" fill="#3F5C6C"/>
<path d="M19.5793 2.37221C17.2616 2.37631 14.9556 2.70743 12.7278 3.35605C10.8293 3.92205 9.05868 4.86058 7.51637 6.11843C4.75214 8.26065 3.28953 11.711 3.65796 15.2205C3.83266 17.0047 4.53847 18.6927 5.68154 20.06C8.61258 23.5564 14.6376 25.1244 19.3859 23.629C22.7472 22.5702 25.5211 19.5722 27.8671 14.4686C28.8404 12.6593 29.3257 10.6214 29.274 8.56079C29.1565 6.74994 28.1995 5.103 26.6947 4.12219C24.5352 2.86412 22.0669 2.25705 19.5793 2.37221Z" fill="#B0D3F0"/>
<path d="M52.4733 26.5757C50.93 26.583 49.3944 26.354 47.9185 25.8964C43.8912 24.627 40.6495 21.2139 38.0092 15.4631C36.8427 13.2699 36.2828 10.7972 36.3889 8.30733C36.5754 5.78993 37.9103 3.50551 39.9976 2.13183C44.7717 -1.09809 52.519 0.028518 55.9495 1.07779C58.1443 1.73605 60.1906 2.82493 61.9722 4.28272C65.3424 6.93251 67.1214 11.1631 66.6747 15.4655C66.4501 17.7274 65.554 19.8668 64.1048 21.6005C61.0963 24.8546 56.8697 26.6625 52.4733 26.5757Z" fill="#3F5C6C"/>
<path d="M27.8683 14.4623C25.5235 19.5659 22.7449 22.5638 19.3918 23.6226C14.6435 25.1216 8.61729 23.5513 5.68626 20.0656C5.52212 19.8633 5.35798 19.6492 5.20557 19.435C7.53394 17.1543 10.4823 15.6336 13.6704 15.069C15.64 14.843 17.6918 15.1761 19.5676 14.5575C22.132 13.5457 23.978 11.2336 24.4214 8.47832C24.7363 6.64841 24.6684 4.77177 24.2221 2.97021C25.099 3.22139 25.9332 3.60649 26.6959 4.11228C28.2043 5.08902 29.1626 6.73766 29.2752 8.5497C29.3271 10.6118 28.8418 12.6514 27.8683 14.4623V14.4623Z" fill="#90BAE1"/>
<path d="M41.298 4.11105C39.7933 5.092 38.8363 6.73887 38.7187 8.54966C38.6664 10.6103 39.1517 12.6484 40.1256 14.4575C42.4704 19.573 45.2455 22.565 48.6068 23.6238C53.3539 25.1239 59.3766 23.556 62.3111 20.0548C63.4542 18.6875 64.16 16.9995 64.3347 15.2153C64.702 11.706 63.2396 8.25621 60.4763 6.11324C58.9342 4.85571 57.1641 3.91721 55.2661 3.35086C53.0399 2.70419 50.736 2.37467 48.4204 2.37178C45.9315 2.25234 43.4608 2.8557 41.298 4.11105Z" fill="#B0D3F0"/>
<path d="M40.1316 14.4623C42.4764 19.5659 45.2551 22.5638 48.6082 23.6226C53.3564 25.1216 59.3826 23.5513 62.3137 20.0656C62.4778 19.8633 62.642 19.6492 62.7944 19.435C60.466 17.1543 57.5177 15.6336 54.3295 15.069C52.3599 14.843 50.3082 15.1761 48.4323 14.5575C45.868 13.5457 44.0219 11.2336 43.5785 8.47832C43.2637 6.64841 43.3316 4.77177 43.7778 2.97021C42.9009 3.22139 42.0668 3.60649 41.304 4.11228C39.7957 5.08902 38.8374 6.73766 38.7247 8.5497C38.6728 10.6118 39.1581 12.6514 40.1316 14.4623Z" fill="#90BAE1"/>
</svg>
