<svg width="68" height="69" viewBox="0 0 68 69" fill="none" xmlns="http://www.w3.org/2000/svg">
<g clip-path="url(#clip0)">
<path d="M67.2324 27.0171L60.0104 24.2809C59.6888 24.159 59.4361 23.9003 59.3188 23.573C59.2015 23.2457 59.2314 22.8827 59.4007 22.5797L62.8593 16.4768C63.1716 15.9139 62.9843 15.201 62.4373 14.8707L51.6511 8.32764H16.3379L5.55174 14.8707C5.0047 15.201 4.81735 15.9139 5.12967 16.4768L8.58829 22.5797C8.75758 22.8827 8.78753 23.2457 8.67023 23.573C8.55293 23.9003 8.30017 24.159 7.97864 24.2809L0.756571 27.0171C0.229552 27.2199 -0.080671 27.7745 0.0179499 28.3376C1.12002 34.619 8.31864 69 33.9945 69C59.6704 69 66.869 34.619 67.971 28.3376C68.0697 27.7745 67.7594 27.2199 67.2324 27.0171Z" fill="#35495E"/>
<path d="M31.6499 5.9486V10.7072C28.1326 16.6555 18.7533 16.6555 18.7533 16.6555C18.6018 16.4892 18.4645 16.3101 18.343 16.1201C16.9388 13.78 16.2644 11.0638 16.4085 8.32791C16.2673 5.59526 16.9384 2.88259 18.3348 0.541612C18.5655 0.196637 18.9574 -0.000600435 19.3677 0.0217328C21.5097 0.141888 28.6754 0.918732 31.6499 5.9486Z" fill="#FF5364"/>
<path d="M51.5807 8.32791C51.7248 11.0638 51.0505 13.78 49.6463 16.1201C49.5247 16.3101 49.3874 16.4892 49.2359 16.6555C49.2359 16.6555 39.8566 16.6555 36.3394 10.7072V5.9486C39.3138 0.918732 46.4796 0.141888 48.6216 0.0217328C49.0319 -0.000600435 49.4237 0.196637 49.6545 0.541612C51.0509 2.88259 51.722 5.59526 51.5807 8.32791Z" fill="#DF4D60"/>
<path d="M31.6496 9.51703C26.3878 9.51703 24.8918 6.79034 24.7383 6.47984C24.5466 6.10178 24.5683 5.64871 24.7952 5.29128C25.022 4.93385 25.4196 4.72638 25.838 4.74701C26.2565 4.76764 26.6323 5.01325 26.824 5.39131C26.8885 5.50313 27.8979 7.13772 31.6496 7.13772C32.2971 7.13772 32.822 7.67035 32.822 8.32737C32.822 8.9844 32.2971 9.51703 31.6496 9.51703Z" fill="#802F34"/>
<path d="M25.788 11.8773C25.3863 11.8763 25.0134 11.6657 24.8008 11.3197C24.5883 10.9738 24.5662 10.5413 24.7422 10.1749C24.8923 9.86439 26.3883 7.1377 31.6501 7.1377C32.2976 7.1377 32.8225 7.67032 32.8225 8.32735C32.8225 8.98438 32.2976 9.51701 31.6501 9.51701C27.8526 9.51701 26.8631 11.1956 26.8221 11.267C26.6091 11.6428 26.2152 11.8752 25.788 11.8773Z" fill="#802F34"/>
<path d="M36.3389 9.51724C35.6914 9.51724 35.1665 8.98462 35.1665 8.32759C35.1665 7.67056 35.6914 7.13793 36.3389 7.13793C40.1364 7.13793 41.1259 5.45933 41.1669 5.38795C41.4821 4.82496 42.1792 4.61492 42.7462 4.91209C43.3062 5.2077 43.5303 5.90357 43.2503 6.47768C43.0967 6.79055 41.6007 9.51724 36.3389 9.51724Z" fill="#802F34"/>
<path d="M42.201 11.8963C41.7662 11.8969 41.3669 11.6533 41.1634 11.2634C41.1001 11.1516 40.0906 9.51701 36.3389 9.51701C35.6914 9.51701 35.1665 8.98438 35.1665 8.32735C35.1665 7.67032 35.6914 7.1377 36.3389 7.1377C41.6007 7.1377 43.0967 9.86439 43.2562 10.1749C43.4383 10.5447 43.4181 10.9839 43.203 11.335C42.9878 11.6861 42.6084 11.8986 42.201 11.8963Z" fill="#802F34"/>
<path d="M67.9709 28.3376C66.8689 34.619 59.6702 69 33.9944 69V64.2414C54.0192 47.9788 50.9592 23.0437 49.6461 16.1199C51.0503 13.7797 51.7246 11.0635 51.5806 8.32764H51.6509L62.4371 14.8707C62.9842 15.201 63.1715 15.9139 62.8592 16.4768L59.4006 22.5797C59.2313 22.8827 59.2013 23.2457 59.3186 23.573C59.4359 23.9003 59.6887 24.159 60.0102 24.2809L67.2323 27.0171C67.7593 27.2199 68.0695 27.7745 67.9709 28.3376Z" fill="#2C3E50"/>
<path d="M33.9944 64.2415V13.0863H35.1668C35.8143 13.0863 36.3392 12.5537 36.3392 11.8967V10.707C39.8565 16.6553 49.2358 16.6553 49.2358 16.6553C49.3873 16.489 49.5246 16.3099 49.6461 16.12C50.9592 23.0438 54.0192 47.9789 33.9944 64.2415Z" fill="#BDC3C7"/>
<path d="M33.9945 13.0863V64.2415C13.9696 47.9789 17.0296 23.0438 18.3427 16.12C18.4643 16.3099 18.6016 16.489 18.7531 16.6553C18.7531 16.6553 28.1324 16.6553 31.6496 10.707V11.8967C31.6496 12.5537 32.1745 13.0863 32.822 13.0863H33.9945Z" fill="#ECF0F1"/>
<path d="M41.0289 24.9827C42.3239 24.9827 43.3737 23.9175 43.3737 22.6034C43.3737 21.2894 42.3239 20.2241 41.0289 20.2241C39.7339 20.2241 38.6841 21.2894 38.6841 22.6034C38.6841 23.9175 39.7339 24.9827 41.0289 24.9827Z" fill="#DF4D60"/>
<path d="M41.0289 35.6893C42.3239 35.6893 43.3737 34.624 43.3737 33.31C43.3737 31.9959 42.3239 30.9307 41.0289 30.9307C39.7339 30.9307 38.6841 31.9959 38.6841 33.31C38.6841 34.624 39.7339 35.6893 41.0289 35.6893Z" fill="#DF4D60"/>
<path d="M41.0289 46.3968C42.3239 46.3968 43.3737 45.3315 43.3737 44.0175C43.3737 42.7034 42.3239 41.6382 41.0289 41.6382C39.7339 41.6382 38.6841 42.7034 38.6841 44.0175C38.6841 45.3315 39.7339 46.3968 41.0289 46.3968Z" fill="#DF4D60"/>
<path d="M35.1671 3.56885H32.8223C32.1748 3.56885 31.6499 4.10147 31.6499 4.7585V11.8964C31.6499 12.5535 32.1748 13.0861 32.8223 13.0861H35.1671C35.8147 13.0861 36.3396 12.5535 36.3396 11.8964V4.7585C36.3396 4.10147 35.8147 3.56885 35.1671 3.56885Z" fill="#C03A2B"/>
</g>
<defs>
<clipPath id="clip0">
<rect width="68" height="69" fill="white"/>
</clipPath>
</defs>
</svg>
