<svg width="69" height="69" viewBox="0 0 69 69" fill="none" xmlns="http://www.w3.org/2000/svg">
<g clip-path="url(#clip0)">
<path d="M27.27 13.4679L10.5122 49.7631L13.01 58.6503L21.8972 61.1481L58.1924 44.3903C59.5578 43.7599 60.5289 42.5019 60.7929 41.0214C61.0569 39.5408 60.5805 38.0247 59.5172 36.9613L34.6933 12.1431C33.6297 11.0823 32.1153 10.6075 30.6365 10.8714C29.1577 11.1353 27.9009 12.1047 27.27 13.4679Z" fill="#F0C419"/>
<path d="M8.88086 67.6599L4.00256 62.7816C2.20641 60.9855 2.20641 58.0734 4.00255 56.2772L10.507 49.7728L21.8897 61.1555L15.3853 67.6599C13.5891 69.4561 10.677 69.4561 8.88086 67.6599Z" fill="#E57E25"/>
<path d="M25.1496 51.1111C27.6901 51.1111 29.7496 49.0517 29.7496 46.5111C29.7496 43.9706 27.6901 41.9111 25.1496 41.9111C22.6091 41.9111 20.5496 43.9706 20.5496 46.5111C20.5496 49.0517 22.6091 51.1111 25.1496 51.1111Z" fill="#2FA8CC"/>
<path d="M57.4876 27.6006C56.8974 27.6 56.4035 27.1528 56.3445 26.5656C56.1352 23.9611 57.7401 21.5532 60.2246 20.7443C61.375 20.4585 62.5683 20.3868 63.7447 20.5327C63.9816 20.5488 64.2185 20.5649 64.4543 20.5752C65.4507 20.7357 66.471 20.5139 67.3109 19.9542C67.7761 19.4949 68.0689 18.8894 68.14 18.2396C68.2331 17.4188 68.2331 16.5901 68.14 15.7694C68.1024 15.3562 68.2903 14.9548 68.6316 14.719C68.973 14.4832 69.4149 14.4495 69.788 14.6308C70.1611 14.8122 70.4077 15.1805 70.4331 15.5946C70.5456 16.5942 70.5398 17.6035 70.4159 18.6018C70.2621 19.7858 69.6981 20.8784 68.822 21.6896C67.5387 22.6424 65.9385 23.0661 64.3519 22.8729C64.1024 22.8614 63.8505 22.8453 63.5987 22.8281C62.6972 22.7093 61.782 22.7482 60.8939 22.9431C59.4542 23.4253 58.5239 24.8212 58.633 26.3356C58.6651 26.6398 58.5747 26.9443 58.3818 27.1817C58.1888 27.4191 57.9092 27.5698 57.6049 27.6006C57.5658 27.6028 57.5266 27.6028 57.4876 27.6006Z" fill="#F0C419"/>
<path d="M44.8375 14.2166C44.2474 14.216 43.7534 13.7688 43.6944 13.1816C43.486 10.5773 45.0906 8.16995 47.5745 7.36026C48.7241 7.07597 49.916 7.00464 51.0912 7.14981C51.3293 7.16591 51.5673 7.18201 51.8031 7.19236C52.8 7.35306 53.8209 7.13082 54.6608 6.57021C55.1258 6.11171 55.4186 5.50698 55.49 4.85786C55.5837 4.03674 55.5837 3.20763 55.49 2.38651C55.4296 1.96195 55.6105 1.53908 55.9593 1.28952C56.308 1.03995 56.7666 1.00515 57.149 1.19924C57.5314 1.39332 57.774 1.78405 57.7785 2.21286C57.8909 3.21247 57.8851 4.22186 57.7612 5.22011C57.6072 6.40402 57.0432 7.49655 56.1673 8.30786C54.8839 9.26032 53.2838 9.68389 51.6973 9.49121C51.4466 9.47971 51.1947 9.46361 50.9417 9.44636C50.041 9.32756 49.1265 9.36648 48.2392 9.56136C46.8046 10.0453 45.8773 11.4366 45.9829 12.947C46.0151 13.2512 45.9247 13.5557 45.7317 13.7931C45.5388 14.0305 45.2592 14.1812 44.9548 14.212C44.9158 14.2158 44.8767 14.2173 44.8375 14.2166Z" fill="#24AE5F"/>
<path d="M61.3097 34.5005C60.8985 34.5013 60.5181 34.2824 60.3121 33.9265C60.1061 33.5705 60.1059 33.1317 60.3115 32.7755C61.2424 31.0346 63.0849 29.9774 65.0576 30.0523C65.4959 30.0935 65.9301 30.1704 66.3559 30.2823C66.5319 30.3248 66.709 30.3674 66.8872 30.3973C67.2099 30.4908 67.5535 30.4832 67.8716 30.3754C68.0683 30.2782 68.1993 30.0847 68.2166 29.866C68.2431 29.2424 68.7563 28.7505 69.3804 28.7505C69.6855 28.7559 69.9758 28.8823 70.1876 29.1019C70.3994 29.3215 70.5153 29.6162 70.5097 29.9212C70.4739 31.012 69.8361 31.993 68.8537 32.4684C68.0948 32.7927 67.2514 32.8633 66.4491 32.6697C66.2375 32.6283 66.0282 32.5788 65.8177 32.5282C65.5127 32.4451 65.2016 32.3859 64.8874 32.3511C63.8014 32.3534 62.8072 32.9605 62.3091 33.9255C62.1031 34.2824 61.7218 34.5017 61.3097 34.5005Z" fill="#FF5364"/>
<path d="M39.4597 10.3503C38.9223 10.3537 38.4543 9.98435 38.3325 9.46094C38.2108 8.93753 38.4677 8.39957 38.9514 8.16535C39.6621 7.82035 40.2635 7.48915 40.4245 7.04065C40.4988 6.6602 40.4922 6.26836 40.405 5.89065C40.3217 5.40159 40.2963 4.90445 40.3291 4.40945C40.4904 2.70105 41.8193 1.33533 43.5226 1.12735C44.1552 1.06701 44.7169 1.53091 44.7773 2.1635C44.8376 2.79609 44.3737 3.35781 43.7411 3.41815C43.1347 3.52117 42.6737 4.01987 42.6187 4.63255C42.6074 4.95222 42.6302 5.27219 42.6866 5.58705C42.8413 6.32781 42.8085 7.0955 42.5911 7.82035C42.0717 8.94188 41.1276 9.81075 39.9668 10.2353C39.8089 10.3123 39.6353 10.3517 39.4597 10.3503Z" fill="#FF5364"/>
<path d="M55.7418 17.2502C54.1977 17.1948 52.6665 16.9479 51.1832 16.5153C50.7774 16.4199 50.4551 16.1124 50.3406 15.7116C50.2262 15.3107 50.3376 14.8794 50.6318 14.5841C50.926 14.2888 51.357 14.1759 51.7582 14.2889C54.141 14.9018 56.6135 15.4021 58.3811 14.2463C59.7215 13.1238 60.6673 11.6017 61.0801 9.9028C61.2043 9.52905 61.3228 9.14955 61.4412 8.7689C61.8769 7.09564 62.5598 5.49678 63.4675 4.02515C64.7509 2.14605 67.2648 0.524547 69.7396 1.38935C70.1283 1.52493 70.4151 1.85757 70.492 2.26195C70.5689 2.66634 70.4243 3.08105 70.1125 3.34985C69.8008 3.61866 69.3693 3.70073 68.9806 3.56515C67.6984 3.12125 66.1953 4.1137 65.3673 5.3258C64.5933 6.61421 64.0122 8.009 63.6423 9.4658C63.5204 9.8591 63.3974 10.2512 63.2686 10.6399C62.7114 12.841 61.4348 14.7927 59.6415 16.1853C58.4768 16.9209 57.1188 17.2918 55.7418 17.2502Z" fill="#894B9D"/>
<path d="M58.1933 44.3904L57.5032 44.7124L26.9478 14.1568L27.2698 13.4668C27.9006 12.1018 29.1588 11.1312 30.6393 10.8677C32.1198 10.6041 33.6356 11.0808 34.6988 12.1443L59.5157 36.9613C60.5793 38.0245 61.056 39.5403 60.7924 41.0208C60.5289 42.5013 59.5583 43.7595 58.1933 44.3904Z" fill="#E57E25"/>
<path d="M49.5687 48.3694L39.7132 52.9234C37.9595 51.1109 37.5917 48.3672 38.8059 46.1567C40.0202 43.9463 42.5331 42.7851 45.0035 43.293C47.4738 43.8009 49.3249 45.8592 49.5687 48.3694Z" fill="#24AE5F"/>
<path d="M27.5925 31.0616C25.231 33.4171 21.5229 33.7463 18.7834 31.8436L24.4759 19.5156C25.6549 19.8218 26.7308 20.4371 27.5925 21.2981C30.2837 23.9962 30.2837 28.3635 27.5925 31.0616Z" fill="#E64C3C"/>
</g>
<defs>
<clipPath id="clip0">
<rect width="69" height="69" fill="white"/>
</clipPath>
</defs>
</svg>
