<svg width="69" height="69" viewBox="0 0 69 69" fill="none" xmlns="http://www.w3.org/2000/svg">
<g clip-path="url(#clip0)">
<path d="M63.1801 60.6171L57.7521 49.5426L52.7956 39.4456L48.1266 29.9236L43.7566 20.9996L41.2381 15.8706H30.7501L25.1266 27.3476L20.2046 37.3756L14.5925 48.8296L8.92305 60.3756L8.80805 60.6171C8.26932 61.6942 8.66241 63.0045 9.70505 63.6071C14.765 66.4821 24.6436 68.4256 35.9941 68.4256C47.3446 68.4256 57.2231 66.4821 62.2831 63.6071C63.3257 63.0045 63.7188 61.6942 63.1801 60.6171Z" fill="#F0C419"/>
<path d="M57.7523 49.5423C54.5737 51.6814 51.1239 53.3869 47.4943 54.6138C35.3043 58.9033 22.1713 60.3063 8.92334 60.3753L14.5928 48.8293C25.2878 48.5763 35.8678 47.0698 45.7233 43.1138C48.2034 42.1435 50.5741 40.9138 52.7958 39.4453L57.7523 49.5423Z" fill="#FF5364"/>
<path d="M52.7958 39.4682C50.5746 40.9408 48.204 42.1744 45.7233 43.1482C35.8678 47.1111 25.2878 48.621 14.5928 48.8752L20.2048 37.3936C28.5653 37.3476 36.8568 36.0561 44.5618 32.1036C45.8014 31.4646 46.9929 30.7363 48.1268 29.9243L52.7958 39.4682Z" fill="#894B9D"/>
<path d="M48.1268 29.9235C46.9929 30.7337 45.8014 31.4601 44.5618 32.097C36.8568 36.0415 28.5653 37.3295 20.2048 37.3755L25.1268 27.3475C31.2597 27.1466 37.224 25.2909 42.3883 21.977C42.8483 21.678 43.3083 21.3445 43.7568 20.9995L48.1268 29.9235Z" fill="#3B97D3"/>
<path d="M43.7565 20.9996C43.308 21.3446 42.848 21.6781 42.388 21.9771C37.2237 25.291 31.2593 27.1467 25.1265 27.3476L30.75 15.8706H41.238L43.7565 20.9996Z" fill="#24AE5F"/>
<path d="M35.9943 17.8256C40.4402 17.8256 44.0443 14.2215 44.0443 9.77559C44.0443 5.32969 40.4402 1.72559 35.9943 1.72559C31.5484 1.72559 27.9443 5.32969 27.9443 9.77559C27.9443 14.2215 31.5484 17.8256 35.9943 17.8256Z" fill="#C03A2B"/>
<path d="M44.0441 9.7754C44.0441 14.2213 40.44 17.8254 35.9941 17.8254C33.6657 17.8329 31.4509 16.8201 29.9336 15.0539C30.7002 15.2491 31.4885 15.3457 32.2796 15.3414C37.8237 15.3401 42.3178 10.846 42.3191 5.3019C42.3191 5.1294 42.3191 4.9684 42.3076 4.7959C43.4372 6.20922 44.0499 7.96613 44.0441 9.7754Z" fill="#802F34"/>
<path d="M8.91732 40.2997C7.68249 40.2972 6.4602 40.0518 5.32012 39.5775C3.71191 38.9202 2.46116 37.607 1.88277 35.9688C1.23987 34.0733 1.41228 31.9961 2.35887 30.2326C4.16811 27.034 7.47541 24.9706 11.1437 24.7517C14.5063 24.5458 16.758 25.5406 17.494 27.5542C17.6349 27.9402 17.5592 28.3721 17.2954 28.6871C17.0316 29.0022 16.6197 29.1525 16.215 29.0816C15.8102 29.0106 15.4741 28.7291 15.3332 28.3431C14.8364 26.9804 12.3432 26.9815 11.284 27.0471C8.40871 27.2081 5.81103 28.8156 4.38402 31.317C3.73919 32.5075 3.61677 33.912 4.04592 35.196C4.40528 36.2267 5.19464 37.0504 6.20907 37.4534C8.05119 38.2776 10.1769 38.1681 11.9246 37.159C12.6382 36.6855 13.1346 35.948 13.3046 35.1086C13.4284 34.5012 13.2578 33.871 12.8446 33.4089C12.2301 32.7999 11.3771 32.495 10.5158 32.5763C10.0062 32.5626 9.51471 32.7658 9.16342 33.1352C9.13582 33.1927 9.20942 33.3445 9.29567 33.4687C9.54386 33.8058 9.58924 34.2512 9.41413 34.6315C9.23902 35.0118 8.87109 35.2668 8.45356 35.2974C8.03602 35.328 7.63486 35.1292 7.40622 34.7785C6.80601 34.0239 6.68694 32.9937 7.09917 32.122C7.80646 30.982 9.05112 30.2866 10.3928 30.282C11.949 30.1543 13.4792 30.7392 14.5535 31.8725C15.4299 32.8515 15.8058 34.18 15.5724 35.4731C15.3076 36.9338 14.4625 38.2248 13.2298 39.0519C11.9512 39.8936 10.4478 40.3286 8.91732 40.2997Z" fill="#24AE5F"/>
<path d="M21.4099 14.0054C20.9364 14.0053 20.5112 13.715 20.3389 13.2739C20.1665 12.8328 20.2822 12.3312 20.6302 12.0101C22.5827 10.0939 22.7286 6.99669 20.9649 4.9054C19.5674 3.27164 17.3829 2.54156 15.2839 3.00675C13.6003 3.3736 11.2198 4.84675 11.459 6.8627C11.6764 7.96784 12.4894 8.86093 13.5692 9.1811C14.3531 9.49625 15.2493 9.31547 15.8497 8.7211C16.1464 8.40945 16.289 7.7689 16.0291 7.49405C15.7386 7.19719 15.6308 6.76676 15.747 6.368C15.8632 5.96925 16.1854 5.66414 16.5899 5.56981C16.9943 5.47548 17.4183 5.60659 17.6989 5.9128C18.7681 7.2082 18.6908 9.10078 17.5195 10.3047C16.3099 11.5559 14.4731 11.9701 12.8436 11.3592C10.9174 10.7597 9.49626 9.12203 9.17392 7.13065C8.78752 3.87155 11.781 1.414 14.7951 0.75965C17.7449 0.120464 20.8067 1.16066 22.7566 3.46445C25.2749 6.49886 25.0277 10.9618 22.1896 13.6995C21.9774 13.8958 21.699 14.005 21.4099 14.0054Z" fill="#894B9D"/>
<path d="M20.7416 21.7534C20.31 21.7535 19.9148 21.5119 19.7181 21.1278C19.3673 20.3757 18.9346 19.6645 18.4278 19.0072C18.0253 18.4846 17.4579 18.1133 16.8178 17.9538C16.1649 17.8961 15.5071 17.9625 14.8789 18.1493L14.3372 18.2643C12.5962 18.6801 10.7708 18.5672 9.09436 17.94C7.22519 17.2182 5.88558 15.5508 5.58341 13.57C5.53822 13.1617 5.71433 12.7602 6.04541 12.5168C6.37649 12.2735 6.81224 12.2253 7.18851 12.3903C7.56478 12.5554 7.82442 12.9087 7.86961 13.317C8.08441 14.4603 8.88262 15.4073 9.97296 15.8125C11.2288 16.2603 12.5886 16.3287 13.883 16.0092L14.3832 15.9022C15.3084 15.6384 16.2778 15.5667 17.2318 15.6918C18.3947 15.9456 19.4353 16.5911 20.1792 17.5203C20.8026 18.3096 21.3336 19.1677 21.7616 20.0779C21.9447 20.4343 21.9291 20.8604 21.7204 21.2024C21.5117 21.5445 21.14 21.7533 20.7393 21.7534H20.7416Z" fill="#3B97D3"/>
<path d="M63.071 40.2995C61.5398 40.3279 60.036 39.8921 58.7573 39.0494C57.5247 38.2223 56.6796 36.9312 56.4148 35.4706C56.1813 34.1775 56.5573 32.849 57.4337 31.87C58.5068 30.7344 60.0385 30.149 61.5955 30.2795C62.9368 30.2843 64.181 30.9796 64.888 32.1195C65.3002 32.9912 65.1811 34.0214 64.5809 34.776C64.2149 35.2866 63.5069 35.4089 62.9907 35.0508C62.4746 34.6927 62.3413 33.9866 62.6915 33.465C62.7777 33.3408 62.8513 33.189 62.8237 33.1315C62.4728 32.7623 61.9817 32.5592 61.4725 32.5726C60.6115 32.4967 59.7604 32.8009 59.1426 33.4052C58.7293 33.8673 58.5587 34.4975 58.6826 35.1049C58.8526 35.9443 59.3489 36.6818 60.0626 37.1554C61.8098 38.1661 63.9363 38.2757 65.7781 37.4498C66.7894 37.0449 67.5756 36.2214 67.9332 35.1923C68.3623 33.9083 68.2399 32.5038 67.5951 31.3134C66.168 28.812 63.5704 27.2045 60.6951 27.0434C59.6428 26.9813 57.1439 26.9767 56.6459 28.3395C56.505 28.7255 56.1688 29.007 55.7641 29.0779C55.3593 29.1489 54.9475 28.9985 54.6837 28.6835C54.4198 28.3684 54.3441 27.9366 54.4851 27.5506C55.2199 25.5369 57.4751 24.541 60.8354 24.748C64.5037 24.9669 67.811 27.0303 69.6202 30.2289C70.5668 31.9924 70.7392 34.0697 70.0963 35.9651C69.5179 37.6034 68.2672 38.9165 66.659 39.5738C65.522 40.0482 64.3029 40.2947 63.071 40.2995Z" fill="#F0C419"/>
<path d="M50.5788 14.005C50.2882 14.0062 50.008 13.8973 49.7945 13.7003C46.9564 10.9626 46.7091 6.49969 49.2275 3.46529C51.178 1.15942 54.2421 0.118601 57.1936 0.759339C60.2077 1.41369 63.2012 3.87124 62.8148 7.13264C62.4932 9.12489 61.0719 10.7636 59.1451 11.3635C57.5154 11.9725 55.6797 11.5585 54.4692 10.3089C53.2979 9.10507 53.2206 7.21248 54.2898 5.91709C54.5704 5.61088 54.9944 5.47977 55.3988 5.5741C55.8033 5.66843 56.1255 5.97354 56.2417 6.37229C56.3579 6.77104 56.2501 7.20147 55.9596 7.49834C55.6997 7.77319 55.8446 8.41834 56.139 8.72654C56.7404 9.31947 57.6368 9.49802 58.4195 9.18079C59.4993 8.86062 60.3122 7.96752 60.5297 6.86239C60.7689 4.85104 58.3884 3.37329 56.7048 3.00644C54.6059 2.54204 52.4218 3.27198 51.0238 4.90509C49.2601 6.99638 49.406 10.0935 51.3585 12.0098C51.7065 12.3309 51.8222 12.8325 51.6498 13.2736C51.4774 13.7147 51.0523 14.005 50.5788 14.005Z" fill="#FF5364"/>
<path d="M51.2464 21.7535C50.8457 21.7534 50.474 21.5446 50.2652 21.2025C50.0565 20.8605 50.0409 20.4344 50.224 20.078C50.6521 19.1678 51.183 18.3097 51.8064 17.5204C52.5504 16.5912 53.5909 15.9457 54.7539 15.6919C55.7079 15.5686 56.6769 15.6402 57.6024 15.9023L58.1027 16.0093C59.3971 16.3288 60.7569 16.2604 62.0127 15.8126C63.103 15.4074 63.9012 14.4604 64.116 13.3171C64.1859 12.6858 64.7543 12.2307 65.3856 12.3005C66.017 12.3704 66.4721 12.9388 66.4022 13.5701C66.1001 15.5509 64.7605 17.2183 62.8913 17.9401C61.2155 18.5683 59.3904 18.6821 57.6496 18.2667L57.1079 18.1517C56.4801 17.9651 55.8227 17.8988 55.1702 17.9562C54.53 18.1156 53.9626 18.4869 53.5602 19.0096C53.0534 19.6669 52.6207 20.3781 52.2699 21.1302C52.0725 21.5134 51.6774 21.754 51.2464 21.7535Z" fill="#894B9D"/>
<path d="M33.5346 7.68875C34.3647 6.4346 34.3331 4.95157 33.464 4.37633C32.5949 3.80109 31.2174 4.35145 30.3873 5.60561C29.5572 6.85977 29.5888 8.34279 30.458 8.91804C31.3271 9.49328 32.7046 8.94291 33.5346 7.68875Z" fill="#F5EFCA"/>
</g>
<defs>
<clipPath id="clip0">
<rect width="69" height="69" fill="white"/>
</clipPath>
</defs>
</svg>
