<svg width="68" height="69" viewBox="0 0 68 69" fill="none" xmlns="http://www.w3.org/2000/svg">
<g clip-path="url(#clip0)">
<path d="M39.1296 49.9257C38.963 49.9269 38.7981 49.891 38.6467 49.8204C36.7567 48.8965 34.5549 48.8965 32.665 49.8204C32.2904 50.0118 31.8429 49.9816 31.4966 49.7415C31.1502 49.5015 30.9598 49.0895 30.9993 48.6658C31.0388 48.2421 31.302 47.8736 31.6865 47.7037C34.1967 46.4862 37.115 46.4862 39.6252 47.7037C40.1136 47.9366 40.3773 48.4822 40.2598 49.0167C40.1423 49.5512 39.675 49.9313 39.1354 49.9315L39.1296 49.9257Z" fill="#955BA5"/>
<path d="M4.53145 48.6976C3.89492 48.6976 3.37891 48.174 3.37891 47.5281V11.6949C3.37891 11.578 3.5103 0 14.9043 0C15.5409 0 16.0569 0.523599 16.0569 1.16949C16.0569 1.81538 15.5409 2.33898 14.9043 2.33898C5.78887 2.33898 5.68399 11.3125 5.68399 11.6949V47.5281C5.68399 48.174 5.16798 48.6976 4.53145 48.6976Z" fill="#955BA5"/>
<path d="M66.7686 48.6976C66.132 48.6976 65.616 48.174 65.616 47.5281V11.6949C65.616 11.316 65.4674 2.33898 56.3957 2.33898C55.7592 2.33898 55.2432 1.81538 55.2432 1.16949C55.2432 0.523599 55.7592 0 56.3957 0C67.7897 0 67.9211 11.578 67.9211 11.6949V47.5281C67.9211 48.174 67.4051 48.6976 66.7686 48.6976Z" fill="#955BA5"/>
<path d="M18.256 36.9946L21.9764 45.6372C22.1277 46.0146 22.4577 46.2881 22.8523 46.3634L31.1967 47.754C31.6527 47.874 32.0131 48.2281 32.146 48.6867C32.2789 49.1452 32.1649 49.6409 31.8456 49.9924L25.7867 56.7637C25.5128 57.0798 25.3923 57.5036 25.4582 57.9192L26.8908 67.4611C27.0056 67.9213 26.8452 68.4071 26.4804 68.7043C26.1156 69.0015 25.6135 69.0554 25.1954 68.8422L17.7627 64.3619C17.4262 64.1549 17.0042 64.1549 16.6678 64.3619L9.22927 68.8422C8.81126 69.0554 8.30909 69.0015 7.94428 68.7043C7.57946 68.4071 7.41908 67.9213 7.53388 67.4611L8.96073 57.9192C9.02665 57.5036 8.90618 57.0798 8.63225 56.7637L2.57218 49.9924C2.2529 49.6409 2.13886 49.1452 2.27179 48.6867C2.40472 48.2281 2.76511 47.874 3.22107 47.754L11.562 46.3634C11.9567 46.2881 12.2866 46.0146 12.4379 45.6372L16.1584 36.9946C16.3184 36.5468 16.7377 36.2485 17.2072 36.2485C17.6767 36.2485 18.0959 36.5468 18.256 36.9946Z" fill="#F29C1F"/>
<path d="M25.7844 56.7672C25.5111 57.0798 25.3924 57.5014 25.4617 57.9133L26.8909 67.4563C27.0025 67.9187 26.8402 68.4048 26.4746 68.7031C26.1089 69.0014 25.6062 69.0579 25.1851 68.848L17.7627 64.3572C17.42 64.1583 16.9991 64.1583 16.6563 64.3572L9.23391 68.848C8.81284 69.0579 8.31007 69.0014 7.94445 68.7031C7.57883 68.4048 7.41651 67.9187 7.52815 67.4563L8.53086 60.7318C8.86644 60.3931 9.23307 60.0876 9.62578 59.8196C11.3417 58.8022 13.1772 58.0084 15.0888 57.4572C17.0089 56.9059 18.7688 55.8906 20.2176 54.4984C21.7397 52.6675 22.5184 50.3178 22.3959 47.9258C22.3866 47.2917 22.3365 46.6588 22.2461 46.0312C22.4079 46.2067 22.623 46.322 22.857 46.3587L31.2014 47.7504C31.6564 47.8742 32.0147 48.23 32.1466 48.6889C32.2785 49.1478 32.1648 49.6432 31.8468 49.9958L25.7844 56.7672Z" fill="#E57E25"/>
<path d="M55.1371 36.9942L58.8575 45.6368C59.0089 46.0142 59.3388 46.2877 59.7334 46.363L68.0778 47.7535C68.5338 47.8736 68.8942 48.2277 69.0271 48.6862C69.16 49.1448 69.046 49.6405 68.7267 49.992L62.6678 56.7633C62.3939 57.0794 62.2734 57.5032 62.3393 57.9188L63.7719 67.4606C63.8867 67.9209 63.7263 68.4067 63.3615 68.7039C62.9967 69.0011 62.4946 69.055 62.0765 68.8418L54.6438 64.3615C54.3073 64.1544 53.8853 64.1544 53.5489 64.3615L46.1161 68.8418C45.6973 69.0621 45.1898 69.0118 44.821 68.7133C44.4521 68.4148 44.2908 67.9241 44.4092 67.4606L45.8361 57.9188C45.902 57.5032 45.7815 57.0794 45.5076 56.7633L39.4533 49.992C39.134 49.6405 39.02 49.1448 39.1529 48.6862C39.2858 48.2277 39.6462 47.8736 40.1022 47.7535L48.4466 46.363C48.8412 46.2877 49.1712 46.0142 49.3225 45.6368L53.0429 36.9942C53.2043 36.5489 53.6224 36.2529 54.09 36.2529C54.5576 36.2529 54.9757 36.5489 55.1371 36.9942Z" fill="#F29C1F"/>
<path d="M62.6658 56.7672C62.3925 57.0798 62.2738 57.5014 62.3431 57.9133L63.7722 67.4563C63.8839 67.9187 63.7215 68.4048 63.3559 68.7031C62.9903 69.0014 62.4875 69.0579 62.0665 68.848L54.6441 64.3572C54.3013 64.1583 53.8804 64.1583 53.5376 64.3572L46.1153 68.848C45.6942 69.0579 45.1914 69.0014 44.8258 68.7031C44.4602 68.4048 44.2979 67.9187 44.4095 67.4563L45.4122 60.7318C45.7478 60.3931 46.1144 60.0876 46.5071 59.8196C48.223 58.8022 50.0585 58.0084 51.9702 57.4572C53.8903 56.9059 55.6501 55.8906 57.099 54.4984C58.621 52.6675 59.3998 50.3178 59.2773 47.9258C59.268 47.2917 59.2179 46.6588 59.1275 46.0312C59.2892 46.2067 59.5043 46.322 59.7383 46.3587L68.0827 47.7504C68.5377 47.8742 68.8961 48.23 69.028 48.6889C69.1599 49.1478 69.0462 49.6432 68.7282 49.9958L62.6658 56.7672Z" fill="#E57E25"/>
</g>
<defs>
<clipPath id="clip0">
<rect width="68" height="69" fill="white"/>
</clipPath>
</defs>
</svg>
