<svg width="68" height="37" viewBox="0 0 68 37" fill="none" xmlns="http://www.w3.org/2000/svg">
<path d="M45.654 13.9102C49.4761 14.5883 51.2933 19.7395 54.7285 21.3098C58.7886 23.1907 62.198 19.4789 63.7408 15.2319C63.9195 14.7733 64.3584 14.4741 64.8444 14.4796C65.3303 14.4851 65.7625 14.7943 65.9309 15.2568C68.4071 22.0641 71.8516 36.8943 54.8692 36.8943C54.8692 36.8943 46.7561 36.8943 42.2188 32.8257C37.0016 28.1503 34.0002 27.6031 34.0002 27.6031C34.0002 27.6031 30.9989 28.1503 25.7816 32.8257C21.2444 36.8943 13.1313 36.8943 13.1313 36.8943C-3.84997 36.8943 -0.406593 22.0641 2.06954 15.2568C2.23755 14.7935 2.67014 14.4836 3.15668 14.478C3.64322 14.4725 4.08256 14.7725 4.26079 15.2319C5.80251 19.4789 9.21189 23.1907 13.272 21.3098C16.7071 19.7395 18.5244 14.5883 22.3464 13.9102H45.654Z" fill="#804537"/>
<path d="M28.3179 2.75133C28.8801 2.53752 29.3759 2.17529 29.7541 1.70206C30.8435 0.514359 32.406 -0.106347 34.0006 0.0151279C35.5952 -0.106876 37.1579 0.513916 38.2471 1.70206C38.6252 2.17529 39.121 2.53752 39.6833 2.75133L45.3027 4.77375C46.3212 5.10252 47.1641 5.83746 47.6377 6.80968C48.1114 7.78189 48.175 8.90775 47.814 9.92852C46.5583 13.7949 41.5357 20.2393 34.0006 20.2393C26.4655 20.2393 21.444 13.7949 20.1884 9.92852C19.8273 8.90775 19.891 7.78189 20.3646 6.80968C20.8382 5.83746 21.6812 5.10252 22.6997 4.77375L28.3179 2.75133Z" fill="#F0785A"/>
<path d="M47.8112 9.92529C47.6416 10.4211 47.4419 10.9059 47.2132 11.3767C45.7496 11.1513 44.2532 11.4099 42.9456 12.1143C41.9804 12.8614 41.0856 13.6977 40.2725 14.6125C38.5657 16.147 36.3216 16.9189 34.047 16.7539H33.9532C31.6787 16.9189 29.4345 16.147 27.7277 14.6125C26.9147 13.6977 26.0198 12.8614 25.0546 12.1143C23.747 11.4099 22.2507 11.1513 20.787 11.3767C20.5584 10.9059 20.3587 10.4211 20.1891 9.92529C19.8277 8.90533 19.8909 7.78006 20.3642 6.80837C20.8375 5.83669 21.68 5.10227 22.6981 4.77408L28.3139 2.75166C28.8786 2.54063 29.3768 2.17897 29.756 1.70476C30.8438 0.515833 32.4058 -0.105914 34.0001 0.0154518C35.5944 -0.105914 37.1565 0.515833 38.2443 1.70476C38.6234 2.17897 39.1216 2.54063 39.6863 2.75166L45.3022 4.77408C46.3202 5.10227 47.1628 5.83669 47.6361 6.80837C48.1093 7.78006 48.1725 8.90533 47.8112 9.92529Z" fill="#F09372"/>
<path d="M31.069 13.1017C32.6877 13.1017 34 12.3027 34 11.3172C34 10.3317 32.6877 9.53271 31.069 9.53271C29.4502 9.53271 28.1379 10.3317 28.1379 11.3172C28.1379 12.3027 29.4502 13.1017 31.069 13.1017Z" fill="#F9C795"/>
</svg>
