<svg width="69" height="69" viewBox="0 0 69 69" fill="none" xmlns="http://www.w3.org/2000/svg">
<g clip-path="url(#clip0)">
<path d="M45.9715 28.2417C45.9715 28.2417 37.258 38.5744 34.9315 45.7654C33.4409 50.2087 31.0209 54.2835 27.8326 57.7185L18.3727 67.1784C17.8227 67.7286 17.0312 67.9624 16.2705 67.7994C14.4834 67.421 11.0529 66.2055 7.15214 62.3035L7.05094 62.2023C3.14899 58.305 1.93344 54.8711 1.55509 53.084C1.39208 52.3233 1.62589 51.5318 2.17609 50.9818L11.636 41.5219C15.0702 38.3362 19.1433 35.9182 23.5845 34.4287C30.7754 32.0965 41.1082 23.3887 41.1082 23.3887L45.2045 23L45.9715 28.2417Z" fill="#4C8056"/>
<path d="M27.3452 58.2018L18.3752 67.1833C17.824 67.7331 17.0321 67.9668 16.2707 67.8043C14.4882 67.4248 11.0497 66.2058 7.15121 62.3073L7.04771 62.2038C3.14921 58.3053 1.93021 54.8668 1.55071 53.0843C1.38819 52.3229 1.62187 51.531 2.17171 50.9798L11.1532 42.0098C11.1532 42.0098 12.0502 43.3668 13.5107 45.2413C14.097 45.9693 15.0801 46.2462 15.9602 45.9313C18.0416 45.4267 20.2326 46.0967 21.6757 47.6793C23.2582 49.1224 23.9283 51.3134 23.4237 53.3948C23.1087 54.2749 23.3857 55.2579 24.1137 55.8443C25.9882 57.3048 27.3452 58.2018 27.3452 58.2018Z" fill="#E4C05C"/>
<path d="M51.6448 22.5727L47.7635 26.4505L42.9048 21.5917L46.7826 17.7104C48.0262 17.8282 49.1811 18.406 50.021 19.3308C50.9478 20.171 51.527 21.3273 51.6448 22.5727Z" fill="#4C8056"/>
<path d="M49.2085 24.9942L44.3506 20.1362C43.4561 19.2417 42.006 19.2415 41.1118 20.1358C40.2175 21.03 40.2177 22.4801 41.1122 23.3746L45.9701 28.2325C46.8646 29.127 48.3147 29.1272 49.2089 28.233C50.1032 27.3387 50.103 25.8886 49.2085 24.9942Z" fill="#24AE5F"/>
<path d="M16.0097 56.7816C17.9074 56.7816 19.4459 55.2432 19.4459 53.3454C19.4459 51.4476 17.9074 49.9092 16.0097 49.9092C14.1119 49.9092 12.5735 51.4476 12.5735 53.3454C12.5735 55.2432 14.1119 56.7816 16.0097 56.7816Z" fill="#24AE5F"/>
<path d="M16.0078 64.2123C15.8846 64.2125 15.7623 64.1926 15.6455 64.1536C13.3207 63.1654 11.2348 61.6902 9.52866 59.8273C7.66403 58.1202 6.1882 56.0322 5.20121 53.7047C5.07138 53.3144 5.15964 52.8845 5.43274 52.5769C5.70585 52.2693 6.12231 52.1308 6.52524 52.2135C6.92818 52.2962 7.25638 52.5876 7.38621 52.9779C8.27653 54.9558 9.55853 56.7327 11.1548 58.2012C12.6225 59.8006 14.4005 61.0843 16.3804 61.9744C16.9122 62.1566 17.2343 62.6966 17.142 63.2511C17.0496 63.8057 16.5699 64.2122 16.0078 64.2123Z" fill="#B19046"/>
<path d="M50.7581 16.3619C50.3379 16.3617 49.9512 16.1324 49.7495 15.7638C49.5479 15.3952 49.5633 14.9459 49.7898 14.592C50.4384 13.5789 50.5143 12.7198 48.9848 11.326C48.516 10.8973 48.4836 10.1698 48.9123 9.70106C49.341 9.23234 50.0685 9.1999 50.5373 9.62861C51.3423 10.3635 53.7906 12.6002 51.7252 15.8317C51.5141 16.1616 51.1497 16.3613 50.7581 16.3619Z" fill="#B19046"/>
<path d="M58.8776 20.7412C58.5542 20.7413 58.2457 20.6052 58.0277 20.3663C56.6339 18.8391 55.7749 18.9173 54.7617 19.5613C54.2263 19.9033 53.515 19.7465 53.173 19.2111C52.831 18.6757 52.9878 17.9644 53.5232 17.6224C56.7581 15.5524 58.9926 18.0065 59.7263 18.8115C60.034 19.1478 60.114 19.6342 59.9302 20.0514C59.7463 20.4686 59.3335 20.7378 58.8776 20.7377V20.7412Z" fill="#B19046"/>
<path d="M69.2943 13.7424C68.2806 10.8716 65.6349 8.89612 62.5944 8.73991C61.8142 8.71331 61.0356 8.82506 60.2944 9.06996C60.5367 8.3244 60.6449 7.5418 60.6141 6.75846C60.4579 3.71856 58.4829 1.07329 55.6127 0.0597122C55.0094 -0.141941 54.3568 0.183716 54.1551 0.787087C53.9534 1.39046 54.2791 2.04306 54.8825 2.24471C56.8576 2.94525 58.2152 4.76783 58.321 6.86081C58.3399 7.71298 58.1307 8.55471 57.7149 9.29881C57.4592 7.89179 56.6781 6.63462 55.5299 5.78211C55.0142 5.4112 54.2954 5.52859 53.9245 6.04431C53.5536 6.56004 53.671 7.2788 54.1867 7.64971C54.9413 8.20926 55.4282 9.05835 55.5299 9.99226C55.631 11.0681 55.3488 12.145 54.733 13.0329C54.4246 13.4894 54.4833 14.1006 54.8731 14.49C55.2628 14.8795 55.874 14.9378 56.3303 14.6291C57.2177 14.0122 58.2952 13.7306 59.3709 13.8344C60.305 13.9348 61.1545 14.4214 61.7135 15.1765C61.9532 15.5103 62.3528 15.6909 62.7618 15.6501C63.1707 15.6094 63.5269 15.3536 63.6962 14.9791C63.8654 14.6046 63.822 14.1682 63.5822 13.8344C62.7289 12.6855 61.4703 11.9043 60.0621 11.6494C60.8064 11.2333 61.6486 11.024 62.5012 11.0434C64.5946 11.1487 66.4178 12.5064 67.1185 14.4819C67.3198 15.0852 67.9722 15.4111 68.5755 15.2098C69.1789 15.0085 69.5048 14.3561 69.3035 13.7528L69.2943 13.7424Z" fill="#E4C05C"/>
<path d="M23.0189 16.1001C22.0366 16.1052 21.0681 15.8682 20.1991 15.4101C17.7922 14.1255 16.5904 11.3851 16.9009 7.89944C17.0408 5.8486 17.8807 3.90801 19.2803 2.40244C22.9143 -1.31206 29.1254 -0.369063 32.4236 2.79919C32.6088 2.97744 32.7284 3.09359 32.8353 3.21434C34.3824 5.11106 35.0918 7.55526 34.8007 9.98554C34.6556 12.0556 33.6391 13.9669 32.0039 15.2445C31.6733 15.4986 31.2311 15.5538 30.8482 15.3889C30.4652 15.2239 30.2016 14.8647 30.1591 14.4499C30.1166 14.0351 30.3019 13.6299 30.6434 13.3907C31.7529 12.4915 32.4322 11.1664 32.5145 9.74059C32.7442 7.95329 32.2396 6.14923 31.1161 4.74039C31.0494 4.66679 30.9735 4.59549 30.8999 4.52419C28.3135 2.04019 23.5399 1.33409 20.9248 4.01014C19.8952 5.13737 19.2835 6.58368 19.1917 8.10759C19.0595 9.59109 19.1561 12.2476 21.2813 13.3861C22.328 13.9061 23.5498 13.9422 24.6255 13.485C25.6201 13.1162 26.3954 12.3185 26.7357 11.3138C27.1449 10.3835 26.8629 9.29403 26.0538 8.67914C25.4282 8.31459 24.5933 8.48709 23.4513 8.88154C22.8526 9.08418 22.2026 8.76563 21.9959 8.1683C21.7892 7.57096 22.1033 6.91878 22.6992 6.70804C24.1274 6.03733 25.7789 6.03144 27.2118 6.69194C28.9825 7.82887 29.7009 10.0599 28.9265 12.0164C28.3721 13.6668 27.1132 14.9856 25.4903 15.6159C24.7051 15.9342 23.8661 16.0985 23.0189 16.1001Z" fill="#FF5364"/>
<path d="M10.2448 32.7753C10.1413 32.7753 10.0378 32.7753 9.93428 32.7673C7.9861 32.6788 6.19473 31.6735 5.10428 30.0567C3.82704 28.1687 3.47316 25.804 4.14173 23.6248C4.88524 21.1853 6.57744 19.1467 8.83833 17.9668C11.0763 16.8026 13.7844 17.03 15.797 18.551C16.2743 18.9583 16.3369 19.673 15.9378 20.1572C15.5387 20.6414 14.8251 20.7162 14.3342 20.3254C12.9903 19.4025 11.2464 19.2981 9.80203 20.054C8.1321 20.9614 6.88684 22.4901 6.33593 24.309C5.87073 25.8123 6.11177 27.4455 6.99143 28.7503C7.67701 29.7804 8.81312 30.4213 10.0493 30.4753C11.314 30.5285 12.533 29.9977 13.3555 29.0355C14.4099 27.9405 14.5019 26.2381 13.5717 25.0358C13.1863 24.6131 12.6483 24.3614 12.0767 24.3366C11.6565 24.3141 11.2493 24.4863 10.9727 24.8035C10.6851 25.0971 10.2628 25.2149 9.86475 25.1126C9.46672 25.0103 9.1535 24.7034 9.04307 24.3076C8.93264 23.9118 9.04178 23.4871 9.32938 23.1935C10.0455 22.4505 11.0333 22.0311 12.0652 22.032H12.0963C13.2934 22.0597 14.4284 22.5708 15.2427 23.4488C16.9901 25.4922 16.9408 28.5175 15.1277 30.5029C13.9084 31.935 12.1256 32.7647 10.2448 32.7753Z" fill="#894B9D"/>
<path d="M21.7989 30.0705C21.2641 30.0674 20.802 29.696 20.684 29.1744C20.5659 28.6528 20.8231 28.1186 21.3044 27.8855C21.9618 27.6092 22.5819 27.2514 23.1501 26.8206C23.5673 26.5058 23.8499 26.0449 23.9413 25.5303C23.9129 24.8967 23.7339 24.2789 23.4192 23.7283L23.2088 23.251C22.3474 21.2328 22.7729 19.9712 23.2824 19.2674C23.9457 18.4885 24.8592 17.9644 25.8664 17.7851C26.4793 17.6177 27.1119 17.9789 27.2792 18.5918C27.4466 19.2047 27.0854 19.8372 26.4725 20.0046C25.9808 20.0777 25.5204 20.29 25.1454 20.6164C24.9246 20.9211 24.9913 21.5686 25.3248 22.3494L25.518 22.7853C26.0185 23.6949 26.2645 24.7226 26.2298 25.7603C26.0846 26.8714 25.512 27.882 24.6336 28.5778C23.916 29.1369 23.129 29.6008 22.2922 29.9578C22.1382 30.0315 21.9697 30.07 21.7989 30.0705Z" fill="#F29C1F"/>
<path d="M47.8773 69.0003C45.2293 68.9948 42.6802 67.9941 40.7358 66.1966C40.5506 66.0183 40.431 65.9022 40.3241 65.7814C38.777 63.8847 38.0676 61.4405 38.3587 59.0102C38.5038 56.9401 39.5203 55.0288 41.1555 53.7513C41.4861 53.4972 41.9283 53.4419 42.3112 53.6069C42.6942 53.7718 42.9578 54.1311 43.0003 54.5458C43.0428 54.9606 42.8575 55.3659 42.516 55.6051C41.4065 56.5043 40.7272 57.8294 40.6449 59.2552C40.4153 61.0425 40.9198 62.8465 42.0433 64.2554C42.11 64.329 42.1859 64.4003 42.2595 64.4716C44.8447 66.9556 49.6195 67.6617 52.2346 64.9856C53.2633 63.8596 53.8749 62.4151 53.9677 60.8928C54.0999 59.4093 54.0033 56.7528 51.8781 55.6143C50.8314 55.0943 49.6096 55.0581 48.5339 55.5154C47.5393 55.8842 46.764 56.6818 46.4237 57.6866C46.0145 58.6168 46.2965 59.7063 47.1056 60.3212C47.7324 60.6869 48.5673 60.5144 49.7081 60.1188C50.3068 59.9162 50.9568 60.2347 51.1635 60.8321C51.3702 61.4294 51.0561 62.0816 50.4602 62.2923C49.0321 62.9637 47.3804 62.9695 45.9476 62.3084C44.1769 61.1715 43.4585 58.9404 44.2329 56.9839C44.7873 55.3335 46.0463 54.0148 47.6691 53.3844C49.3771 52.6748 51.31 52.7484 52.9591 53.5857C55.3661 54.8702 56.5678 57.6107 56.2573 61.0963C56.1175 63.1471 55.2775 65.0877 53.878 66.5933C52.2894 68.18 50.122 69.0494 47.8773 69.0003Z" fill="#24AE5F"/>
<path d="M61.1563 51.7559C59.7775 51.777 58.4348 51.3148 57.3613 50.4495C57.0362 50.1907 56.876 49.7766 56.9422 49.3664C57.0085 48.9562 57.2909 48.6136 57.6809 48.4703C58.071 48.327 58.508 48.4053 58.8241 48.675C60.1676 49.5989 61.912 49.7034 63.3562 48.9464C65.0261 48.0391 66.2714 46.5104 66.8223 44.6914C67.2839 43.1911 67.0425 41.5625 66.1657 40.2605C65.4801 39.2304 64.344 38.5895 63.1078 38.5355C61.8487 38.4929 60.6373 39.0197 59.8096 39.9695C58.7553 41.0645 58.6632 42.767 59.5934 43.9692C59.9788 44.392 60.5169 44.6436 61.0884 44.6684C61.5107 44.7031 61.9232 44.5287 62.1924 44.2015C62.48 43.908 62.9024 43.7901 63.3004 43.8924C63.6984 43.9947 64.0116 44.3016 64.1221 44.6974C64.2325 45.0933 64.1234 45.518 63.8358 45.8115C63.1197 46.5546 62.1318 46.9739 61.0999 46.973H61.0689C59.8717 46.9453 58.7367 46.4343 57.9225 45.5562C56.175 43.5128 56.2243 40.4875 58.0375 38.5021C59.3258 36.9855 61.2429 36.1496 63.2309 36.2378C65.179 36.3262 66.9704 37.3315 68.0609 38.9483C69.3381 40.8363 69.692 43.2011 69.0234 45.3803C68.2799 47.8198 66.5877 49.8584 64.3268 51.0383C63.3345 51.5046 62.2526 51.7495 61.1563 51.7559Z" fill="#3B97D3"/>
<path d="M46.9891 51.2521C46.4126 51.2526 45.9249 50.8261 45.8484 50.2547C45.7719 49.6833 46.1303 49.1436 46.6866 48.9924C47.1783 48.9192 47.6388 48.7069 48.0137 48.3806C48.2345 48.0758 48.1678 47.4284 47.8343 46.6475L47.6411 46.2117C47.1412 45.3031 46.8953 44.2766 46.9293 43.2401C47.0746 42.129 47.6472 41.1183 48.5255 40.4226C49.2431 39.8635 50.0301 39.3996 50.8669 39.0426C51.2381 38.8661 51.6753 38.9011 52.0137 39.1343C52.3521 39.3676 52.5404 39.7637 52.5076 40.1734C52.4748 40.5831 52.226 40.9442 51.8547 41.1206C51.1974 41.3969 50.5773 41.7547 50.009 42.1855C49.5931 42.4989 49.3105 42.9576 49.2178 43.4701C49.2457 44.1038 49.4247 44.7217 49.7399 45.2721L49.9503 45.7494C50.8117 47.7676 50.3862 49.0292 49.8767 49.733C49.2135 50.5119 48.2999 51.036 47.2927 51.2153C47.1936 51.2412 47.0915 51.2535 46.9891 51.2521Z" fill="#FF5364"/>
<path d="M27.1612 38.5826C25.415 38.6769 24.0187 40.0683 23.9182 41.8141L18.6396 36.5471C20.0916 35.7728 21.6029 35.1152 23.1592 34.5806L27.1612 38.5826Z" fill="#B19046"/>
<path d="M30.7723 42.1935C30.6731 44.0382 29.1313 45.4733 27.2842 45.4402C25.4371 45.4071 23.9477 43.9177 23.9146 42.0707C23.8815 40.2236 25.3166 38.6818 27.1613 38.5825C28.134 38.5306 29.083 38.8943 29.7718 39.5831C30.4606 40.2719 30.8243 41.2208 30.7723 42.1935Z" fill="#F3D55B"/>
<path d="M34.7738 46.1959C34.2419 47.7495 33.5842 49.2571 32.8073 50.7039L27.5403 45.4369C29.286 45.3363 30.6775 43.94 30.7718 42.1938L34.7738 46.1959Z" fill="#B19046"/>
</g>
<defs>
<clipPath id="clip0">
<rect width="69" height="69" fill="white"/>
</clipPath>
</defs>
</svg>
