<svg width="69" height="69" viewBox="0 0 69 69" fill="none" xmlns="http://www.w3.org/2000/svg">
<g clip-path="url(#clip0)">
<path d="M45.8646 41.283L51.3542 57.3694C51.8308 58.7288 51.4207 60.2413 50.3227 61.1738C48.0019 63.0404 46.1245 65.3991 44.8261 68.0796C44.7203 68.2946 44.7548 68.5522 44.9136 68.7317C45.0723 68.9112 45.3237 68.977 45.55 68.8982L67.4336 61.3831C67.6581 61.305 67.8141 61.1001 67.8296 60.8629C67.8452 60.6257 67.7173 60.4022 67.5049 60.2955C64.8347 58.9774 61.9052 58.2684 58.9278 58.2196C57.4888 58.1579 56.2366 57.2158 55.7784 55.8502L50.2888 39.7627L45.8646 41.283Z" fill="#90BAE1"/>
<path d="M27.2144 15.836L49.3177 8.24599C49.8539 8.0691 50.4406 8.29398 50.7211 8.78396C52.604 12.117 54.253 15.0641 55.5043 17.4382C56.4312 19.1037 57.2514 20.8263 57.9603 22.5957C60.5678 30.5019 56.3317 39.0348 48.4575 41.7374C40.5833 44.4401 31.9999 40.3072 29.2025 32.4662C28.383 29.378 27.758 26.2415 27.3313 23.0751C27.0506 21.2624 26.7582 19.2626 26.4425 17.1224C26.3609 16.5646 26.6837 16.0265 27.2144 15.836Z" fill="#90BAE1"/>
<path d="M27.3308 23.0749C27.7576 26.2413 28.3825 29.3778 29.202 32.466C31.9994 40.307 40.5828 44.4399 48.457 41.7372C56.3312 39.0346 60.5673 30.5017 57.9598 22.5954C57.251 20.8261 56.4307 19.1035 55.5039 17.438L27.3308 23.0749Z" fill="#3D324C"/>
<path d="M21.9667 40.1136L16.4772 56.1988C16.0006 57.5582 16.4107 59.0707 17.5086 60.0031C19.8295 61.8698 21.7069 64.2285 23.0053 66.909C23.1111 67.124 23.0765 67.3816 22.9178 67.5611C22.7591 67.7405 22.5076 67.8064 22.2813 67.7276L0.397819 60.2125C0.173306 60.1344 0.0173218 59.9295 0.00176346 59.6923C-0.0137949 59.4551 0.114093 59.2316 0.32648 59.1249C2.99668 57.8068 5.92613 57.0978 8.90353 57.049C10.3426 56.9873 11.5948 56.0452 12.053 54.6796L17.5426 38.5933L21.9667 40.1136Z" fill="#90BAE1"/>
<path d="M40.6162 14.6656L18.5128 7.07558C17.9766 6.89869 17.3899 7.12357 17.1094 7.61355C15.2265 10.9466 13.5775 13.8937 12.3262 16.2678C11.3993 17.9333 10.5791 19.6559 9.87023 21.4252C7.26273 29.3315 11.4988 37.8644 19.373 40.567C27.2472 43.2697 35.8306 39.1368 38.628 31.2958C39.4475 28.2076 40.0725 25.0711 40.4992 21.9047C40.7799 20.092 41.0723 18.0922 41.388 15.952C41.4696 15.3942 41.1468 14.8561 40.6162 14.6656Z" fill="#90BAE1"/>
<path d="M40.4992 21.9045C40.0725 25.0709 39.4475 28.2074 38.628 31.2955C35.8306 39.1366 27.2472 43.2695 19.373 40.5668C11.4988 37.8642 7.26273 29.3312 9.87023 21.425C10.5791 19.6557 11.3993 17.9331 12.3262 16.2676L40.4992 21.9045Z" fill="#802F34"/>
<path d="M30.4068 3.50842C31.0527 3.50842 31.5763 2.98482 31.5763 2.33893C31.5763 1.69303 31.0527 1.16943 30.4068 1.16943C29.7609 1.16943 29.2373 1.69303 29.2373 2.33893C29.2373 2.98482 29.7609 3.50842 30.4068 3.50842Z" fill="#802F34"/>
<path d="M43.2706 2.33898C43.9165 2.33898 44.4401 1.81538 44.4401 1.16949C44.4401 0.523599 43.9165 0 43.2706 0C42.6247 0 42.1011 0.523599 42.1011 1.16949C42.1011 1.81538 42.6247 2.33898 43.2706 2.33898Z" fill="#802F34"/>
<path d="M37.4236 5.84728C38.0695 5.84728 38.5931 5.32368 38.5931 4.67779C38.5931 4.0319 38.0695 3.5083 37.4236 3.5083C36.7777 3.5083 36.2542 4.0319 36.2542 4.67779C36.2542 5.32368 36.7777 5.84728 37.4236 5.84728Z" fill="#802F34"/>
<path d="M42.1016 7.01672C42.7475 7.01672 43.2711 6.49312 43.2711 5.84723C43.2711 5.20133 42.7475 4.67773 42.1016 4.67773C41.4557 4.67773 40.9321 5.20133 40.9321 5.84723C40.9321 6.49312 41.4557 7.01672 42.1016 7.01672Z" fill="#802F34"/>
<path d="M24.5587 4.67785C25.2045 4.67785 25.7281 4.15425 25.7281 3.50836C25.7281 2.86247 25.2045 2.33887 24.5587 2.33887C23.9128 2.33887 23.3892 2.86247 23.3892 3.50836C23.3892 4.15425 23.9128 4.67785 24.5587 4.67785Z" fill="#802F34"/>
<path d="M32.7449 8.18615C33.3908 8.18615 33.9144 7.66255 33.9144 7.01666C33.9144 6.37077 33.3908 5.84717 32.7449 5.84717C32.099 5.84717 31.5754 6.37077 31.5754 7.01666C31.5754 7.66255 32.099 8.18615 32.7449 8.18615Z" fill="#802F34"/>
<path d="M24.77 38.145C24.1734 38.1431 23.6739 37.6924 23.6109 37.0991C23.5478 36.5058 23.9415 35.9602 24.5245 35.8329C28.7346 34.9243 32.4443 31.2462 33.9704 26.4606C34.1668 25.8451 34.825 25.5053 35.4405 25.7016C36.056 25.898 36.3958 26.5562 36.1995 27.1717C34.423 32.7455 30.0328 37.0375 25.018 38.1251C24.9362 38.1403 24.8532 38.147 24.77 38.145Z" fill="#CC4B4C"/>
<path d="M50.1273 36.5745C49.6239 36.5745 49.177 36.2524 49.0179 35.7748C48.8587 35.2973 49.0229 34.7714 49.4256 34.4694C51.0203 33.2471 52.0333 31.4153 52.2207 29.4149C52.2899 28.7829 52.8512 28.322 53.4845 28.377C54.1178 28.432 54.5912 28.9828 54.5504 29.6172C54.3015 32.2758 52.9554 34.7103 50.836 36.3347C50.6324 36.4901 50.3834 36.5743 50.1273 36.5745Z" fill="#5D4C72"/>
</g>
<defs>
<clipPath id="clip0">
<rect width="69" height="69" fill="white"/>
</clipPath>
</defs>
</svg>
