<svg width="69" height="69" viewBox="0 0 69 69" fill="none" xmlns="http://www.w3.org/2000/svg">
<g clip-path="url(#clip0)">
<path d="M58.4002 52.5348C50.5961 54.236 41.8164 64.1101 37.8549 68.5951C37.5064 68.9745 36.9532 69.0865 36.4846 68.8725C36.0159 68.6585 35.7383 68.1671 35.7968 67.6553C36.8199 50.9049 44.9214 40.9475 46.2182 39.4604L58.4002 52.5348Z" fill="#E57E25"/>
<path d="M43.6246 25.8626C33.5839 34.6184 30.3004 56.6746 29.2654 67.8336C29.2238 68.4521 28.7345 68.9462 28.1165 68.994C27.4985 69.0418 26.939 68.6287 26.8029 68.024C24.7026 59.0898 23.6919 49.9342 23.793 40.757C23.793 39.2343 23.8406 37.7591 23.9358 36.3434H24.1142C24.5354 36.3315 24.9005 36.0487 25.0173 35.6439C25.1341 35.2392 24.9758 34.8053 24.6258 34.5708L24.1023 34.1783C25.6013 18.6414 32.073 10.3495 33.5244 8.66016L43.6246 25.8626Z" fill="#D25627"/>
<path d="M20.8547 36.3557C15.9771 42.8988 18.3326 60.2202 19.5936 67.5128C19.7172 68.0143 19.503 68.5384 19.0634 68.8097C18.6238 69.0811 18.0594 69.0377 17.6664 68.7024C4.77051 57.0081 3.35482 39.1633 3.56896 36.1178V36.0464L20.8547 36.3438V36.3557Z" fill="#E57E25"/>
<path d="M56.3539 15.501L48.5616 18.1658C48.1397 18.3125 47.8452 18.6958 47.8122 19.1413L47.027 27.6949C47.0073 28.1562 46.6919 28.5519 46.2467 28.6741C45.8015 28.7963 45.3283 28.6169 45.076 28.2303L43.6246 25.8629L40.9241 21.4373C40.6832 21.0394 40.2044 20.8537 39.7582 20.9853L32.1325 23.2932C31.6874 23.4077 31.2189 23.2253 30.9683 22.84C30.7177 22.4547 30.741 21.9525 31.0261 21.592L36.1416 14.692C36.4139 14.3387 36.4512 13.8578 36.2368 13.4666L33.5244 8.66044L32.192 6.29303C31.9644 5.89206 32.0075 5.3923 32.3003 5.03617C32.5931 4.68004 33.0751 4.5412 33.5125 4.68699L40.7694 7.45889C41.205 7.61129 41.6892 7.46746 41.971 7.10199L47.1935 0.428026C47.4683 0.0485945 47.9637 -0.0989608 48.4013 0.0682777C48.8389 0.235516 49.1096 0.675842 49.0613 1.14182L48.5141 9.58837C48.4717 10.0541 48.7438 10.4913 49.1803 10.6591L56.4372 13.431C56.8554 13.6157 57.1182 14.0374 57.0999 14.4943C57.0815 14.9512 56.7856 15.3504 56.3539 15.501Z" fill="#F0C419"/>
<path d="M68.4647 39.5441L61.4219 43.8268C61.0503 44.0653 60.8472 44.4947 60.8985 44.9332L61.9811 53.463C62.0515 53.9161 61.8257 54.3637 61.4194 54.5762C61.0132 54.7888 60.5167 54.719 60.1847 54.4029L58.4002 52.5351L54.6766 48.6568C54.3569 48.3167 53.8465 48.2381 53.4393 48.4665L46.4918 52.3566C46.0804 52.57 45.5785 52.4944 45.2481 52.1695C44.9177 51.8445 44.8339 51.3439 45.0404 50.9291L48.5618 43.0892C48.7403 42.688 48.6707 42.2197 48.3833 41.8877L46.2181 39.4608L42.899 35.7372C42.5909 35.3964 42.5252 34.9008 42.7338 34.4915C42.9424 34.0822 43.3821 33.8442 43.8388 33.8932L51.524 35.0353C51.9859 35.0973 52.4343 34.8513 52.6304 34.4285L56.2826 26.791C56.4717 26.361 56.9252 26.1109 57.3896 26.1805C57.8541 26.25 58.2145 26.6219 58.2693 27.0884L59.5423 35.4635C59.6081 35.9242 59.9639 36.2896 60.4226 36.3677L68.1078 37.5098C68.5571 37.5977 68.9058 37.9534 68.9849 38.4043C69.064 38.8553 68.8572 39.3084 68.4647 39.5441Z" fill="#F0C419"/>
<path d="M24.1143 36.3438H16.8693C16.4453 36.3431 16.0762 36.6335 15.9771 37.0457L14.1569 44.0528C14.0403 44.4583 13.6742 44.7414 13.2524 44.7523C12.8306 44.7632 12.4504 44.4994 12.313 44.1004L9.37451 36.8673C9.22784 36.4905 8.87412 36.2345 8.47037 36.213L3.56899 36.0464L0.987436 35.9513C0.568702 35.9378 0.2016 35.6676 0.0643758 35.2718C-0.0728479 34.8759 0.0482281 34.4365 0.368815 34.1668L5.9483 29.8483C6.28316 29.5872 6.4045 29.1358 6.24571 28.7419L3.5333 21.5326C3.37436 21.1371 3.49784 20.6841 3.83553 20.4239C4.17321 20.1637 4.64272 20.1598 4.98468 20.4144L11.278 24.8518C11.6246 25.0983 12.0905 25.0935 12.4319 24.8399L18.0114 20.5214C18.3532 20.2814 18.8073 20.2759 19.1548 20.5076C19.5022 20.7393 19.6718 21.1605 19.5817 21.5683L17.9519 28.8728C17.8678 29.2711 18.0264 29.6814 18.3564 29.9197L24.1024 34.1787L24.6259 34.5713C24.9759 34.8057 25.1342 35.2396 25.0174 35.6444C24.9006 36.0491 24.5355 36.332 24.1143 36.3438Z" fill="#F0C419"/>
</g>
<defs>
<clipPath id="clip0">
<rect width="69" height="69" fill="white"/>
</clipPath>
</defs>
</svg>
