<svg width="68" height="69" viewBox="0 0 68 69" fill="none" xmlns="http://www.w3.org/2000/svg">
<g clip-path="url(#clip0)">
<path d="M36.2663 42.4536V60.1713L46.4663 67.8314H21.533L31.733 60.1713V42.4536H36.2663Z" fill="#2FA8CC"/>
<path d="M22.6888 34.5244C18.6677 38.9502 12.1968 39.8756 7.16097 36.7451C2.1251 33.6146 -0.106895 27.2791 1.805 21.5423C3.7169 15.8055 9.25299 12.2266 15.0896 12.9544C20.9262 13.6822 25.4768 18.5188 26.0094 24.5604L22.6888 34.5244Z" fill="#E57E25"/>
<path d="M53.5842 24.5601H14.4162C13.9417 24.56 13.5174 24.865 13.353 25.3244C13.1886 25.7837 13.3189 26.3001 13.6795 26.6183L19.3349 31.577L32.5269 43.1548C33.3794 43.8914 34.621 43.8914 35.4735 43.1548L48.6655 31.577L54.3209 26.6183C54.6815 26.3001 54.8118 25.7837 54.6474 25.3244C54.483 24.865 54.0587 24.56 53.5842 24.5601Z" fill="#894B9D"/>
<path d="M54.3209 26.6183L48.6655 31.5769H19.3349L13.6795 26.6183C13.3189 26.3001 13.1886 25.7837 13.353 25.3244C13.5174 24.865 13.9417 24.56 14.4162 24.5601H53.5842C54.0587 24.56 54.483 24.865 54.6474 25.3244C54.8118 25.7837 54.6815 26.3001 54.3209 26.6183Z" fill="#2FA8CC"/>
<path d="M13.6004 19.882C12.9745 19.882 12.467 19.3584 12.467 18.7125V16.3736C12.467 15.7277 12.9745 15.2041 13.6004 15.2041C14.2263 15.2041 14.7337 15.7277 14.7337 16.3736V18.7125C14.7337 19.3584 14.2263 19.882 13.6004 19.882Z" fill="#F0C419"/>
<path d="M13.6004 35.0856C12.9745 35.0856 12.467 34.5621 12.467 33.9162V31.5772C12.467 30.9313 12.9745 30.4077 13.6004 30.4077C14.2263 30.4077 14.7337 30.9313 14.7337 31.5772V33.9162C14.7337 34.5621 14.2263 35.0856 13.6004 35.0856Z" fill="#F0C419"/>
<path d="M9.19268 21.7661C8.89212 21.7661 8.6039 21.6428 8.39141 21.4235L6.78888 19.7651C6.4038 19.3011 6.42969 18.6095 6.84831 18.1775C7.26693 17.7455 7.93722 17.7188 8.38688 18.1162L9.99394 19.7651C10.318 20.0996 10.4149 20.6025 10.2395 21.0395C10.0641 21.4764 9.65099 21.7613 9.19268 21.7614V21.7661Z" fill="#F0C419"/>
<path d="M7.36704 26.3141H5.10037C4.47445 26.3141 3.96704 25.7905 3.96704 25.1446C3.96704 24.4987 4.47445 23.9751 5.10037 23.9751H7.36704C7.99296 23.9751 8.50037 24.4987 8.50037 25.1446C8.50037 25.7905 7.99296 26.3141 7.36704 26.3141Z" fill="#F0C419"/>
<path d="M7.59401 32.5124C7.13854 32.5104 6.72844 32.2273 6.55291 31.7936C6.37737 31.3599 6.4705 30.8599 6.78934 30.5243L8.38734 28.8659C8.67442 28.5697 9.09284 28.454 9.48499 28.5624C9.87714 28.6709 10.1834 28.9869 10.2885 29.3916C10.3936 29.7963 10.2815 30.228 9.99441 30.5243L8.38734 32.1732C8.17625 32.3893 7.89133 32.5111 7.59401 32.5124Z" fill="#F0C419"/>
<path d="M18.0081 21.7661C17.5498 21.766 17.1367 21.4811 16.9613 21.0441C16.7859 20.6072 16.8828 20.1043 17.2069 19.7698L18.8139 18.1162C19.2636 17.7188 19.9339 17.7455 20.3525 18.1775C20.7711 18.6095 20.797 19.3011 20.4119 19.7651L18.8139 21.4235C18.6003 21.6439 18.3103 21.7673 18.0081 21.7661Z" fill="#F0C419"/>
<path d="M31.7332 24.56L31.7332 9.3567C31.7314 8.73648 31.9725 8.14183 32.4018 7.70773L39.2018 0.690838C40.0844 -0.219863 41.5153 -0.219863 42.3978 0.690838C43.2804 1.60154 43.2804 3.07808 42.3978 3.98878L36.2665 10.3274V24.56H31.7332Z" fill="#FF5364"/>
<path d="M53.6925 1.61481C54.1827 3.57146 54.4953 5.57093 54.6264 7.58736C54.6854 7.9245 54.5158 8.2601 54.2141 8.40309C53.9124 8.54608 53.5551 8.46019 53.3457 8.19432C51.951 6.77546 50.6875 5.22542 49.5718 3.56434C48.9496 2.34922 49.3939 0.843738 50.5668 0.192724C51.8104 -0.299936 53.2062 0.335116 53.6925 1.61481Z" fill="#F0C419"/>
<path d="M61.6931 19.6223C60.5758 17.9612 59.3104 16.4115 57.9134 14.9935C57.705 14.7258 57.3469 14.6385 57.0444 14.7816C56.7419 14.9247 56.5723 15.2616 56.6328 15.5993C56.7636 17.6158 57.0767 19.6154 57.5678 21.5718C57.8377 22.4362 58.5651 23.0634 59.4374 23.1839C60.3096 23.3045 61.1713 22.8968 61.6521 22.1362C62.1329 21.3755 62.1471 20.3975 61.6886 19.6223H61.6931Z" fill="#894B9D"/>
<path d="M45.9619 13.5955C47.858 13.0893 49.7957 12.7663 51.7498 12.6307C52.077 12.5683 52.4035 12.7433 52.5422 13.0555C52.6809 13.3676 52.5963 13.7371 52.3369 13.9522C50.9625 15.3921 49.4607 16.6963 47.8511 17.8478C46.6732 18.4899 45.2139 18.0314 44.5826 16.821C44.106 15.5374 44.7217 14.0974 45.9619 13.5955Z" fill="#FF5364"/>
<path d="M63.4134 5.34027C61.8034 6.49343 60.3012 7.79917 58.9265 9.2405C58.6688 9.45656 58.5856 9.8252 58.7242 10.1365C58.8627 10.4479 59.188 10.6229 59.5147 10.562C61.4691 10.425 63.4068 10.1001 65.3026 9.59134C66.5428 9.08952 67.1582 7.64916 66.6808 6.36591C66.0495 5.15603 64.5906 4.6981 63.4134 5.34027Z" fill="#24AE5F"/>
<path d="M55.8447 38.8923C55.5021 40.8822 54.9804 42.8347 54.2863 44.7246C54.204 45.0569 53.9139 45.2894 53.5814 45.2894C53.249 45.2894 52.9588 45.0569 52.8765 44.7246C52.1813 42.8348 51.6584 40.8823 51.3147 38.8923C51.2112 37.9906 51.6191 37.1078 52.3633 36.6232C53.1075 36.1386 54.0553 36.1386 54.7995 36.6232C55.5437 37.1078 55.9517 37.9906 55.8481 38.8923H55.8447Z" fill="#F0C419"/>
<path d="M55.8451 58.702C55.5025 56.7126 54.9808 54.7605 54.2867 52.871C54.2044 52.5387 53.9143 52.3062 53.5818 52.3062C53.2494 52.3062 52.9592 52.5387 52.8769 52.871C52.1817 54.7603 51.6589 56.7125 51.3151 58.702C51.2076 59.6061 51.6146 60.4931 52.3605 60.9802C53.1063 61.4673 54.0574 61.4673 54.8032 60.9802C55.549 60.4931 55.956 59.6061 55.8485 58.702H55.8451Z" fill="#894B9D"/>
<path d="M43.9798 46.4591C45.9077 46.8126 47.7995 47.351 49.6306 48.0671C49.9526 48.1521 50.178 48.4515 50.178 48.7945C50.178 49.1376 49.9526 49.437 49.6306 49.522C47.7996 50.2393 45.9078 50.7788 43.9798 51.1335C43.1037 51.2444 42.2441 50.8245 41.772 50.0549C41.3 49.2853 41.3 48.3038 41.772 47.5342C42.2441 46.7646 43.1037 46.3447 43.9798 46.4556V46.4591Z" fill="#FF5364"/>
<path d="M63.1774 46.4594C61.249 46.8129 59.3569 47.3512 57.5254 48.0674C57.2033 48.1524 56.978 48.4518 56.978 48.7948C56.978 49.1379 57.2033 49.4373 57.5254 49.5223C59.3567 50.2396 61.2489 50.7792 63.1774 51.1338C64.0512 51.2407 64.9068 50.8197 65.3764 50.0518C65.846 49.2839 65.846 48.3058 65.3764 47.5379C64.9068 46.77 64.0512 46.349 63.1774 46.4559V46.4594Z" fill="#24AE5F"/>
<path d="M4.53333 69.0006H1.13333C0.507411 69.0006 0 68.477 0 67.8311C0 67.1852 0.507411 66.6616 1.13333 66.6616H4.53333C5.15926 66.6616 5.66667 67.1852 5.66667 67.8311C5.66667 68.477 5.15926 69.0006 4.53333 69.0006Z" fill="#3D324C"/>
<path d="M66.8667 69.0006H9.06668C8.44076 69.0006 7.93335 68.477 7.93335 67.8311C7.93335 67.1852 8.44076 66.6616 9.06668 66.6616H66.8667C67.4926 66.6616 68 67.1852 68 67.8311C68 68.477 67.4926 69.0006 66.8667 69.0006Z" fill="#3D324C"/>
</g>
<defs>
<clipPath id="clip0">
<rect width="68" height="69" fill="white"/>
</clipPath>
</defs>
</svg>
