<svg width="69" height="69" viewBox="0 0 69 69" fill="none" xmlns="http://www.w3.org/2000/svg">
<path d="M42.7557 27.6386L45.9819 24.4123C48.5437 24.7906 50.8239 24.8284 51.633 24.8284C51.8124 24.8284 51.9197 24.8265 51.9414 24.8261C52.4996 24.8154 52.9433 24.3541 52.9324 23.796C52.9216 23.2378 52.4598 22.7981 51.9023 22.8049C51.8791 22.8056 50.0874 22.8361 47.7931 22.6008L51.2262 19.1677L49.7967 17.7383L46.364 21.1713C46.1295 18.8807 46.1591 17.0847 46.1595 17.062C46.1703 16.504 45.7265 16.0428 45.1684 16.0319C45.1618 16.0317 45.1552 16.0317 45.1486 16.0317C44.5996 16.0317 44.1491 16.4716 44.1384 17.0229C44.1361 17.1427 44.0902 19.8527 44.5524 22.9827L41.3264 26.2088L42.7557 27.6386Z" fill="#B0D3F0"/>
<path d="M26.2449 41.291L22.9837 44.5522C19.8536 44.09 17.1439 44.1358 17.0238 44.1382C16.4658 44.149 16.0223 44.61 16.0329 45.1681C16.0435 45.7262 16.5112 46.1706 17.0625 46.1594C17.0854 46.1586 18.8817 46.1292 21.1721 46.3637L17.739 49.7968L19.1684 51.2262L22.6012 47.7933C22.8357 50.0838 22.8061 51.8797 22.8057 51.9026C22.795 52.4605 23.2387 52.9217 23.7967 52.9325C23.8034 52.9326 23.8101 52.9326 23.8167 52.9326C24.3657 52.9326 24.8163 52.4929 24.8269 51.9415C24.8292 51.8217 24.8753 49.1119 24.413 45.9819L27.6744 42.7206L26.2449 41.291Z" fill="#B0D3F0"/>
<path d="M17.0236 24.8264C17.0454 24.8268 17.1526 24.8286 17.3321 24.8286C18.1413 24.8286 20.4216 24.7908 22.9832 24.4125L26.2269 27.6563L27.6562 26.2268L24.4127 22.9833C24.875 19.8532 24.829 17.1432 24.8267 17.0233C24.816 16.4718 24.3658 16.0322 23.8165 16.0322C23.81 16.0322 23.8034 16.0324 23.7968 16.0324C23.2387 16.043 22.7951 16.504 22.8056 17.0621C22.806 17.085 22.8356 18.881 22.6011 21.1716L19.1681 17.7385L17.7388 19.168L21.1717 22.6008C18.8892 22.8345 17.0976 22.8057 17.0628 22.8051C16.5011 22.7981 16.0436 23.2381 16.0327 23.7962C16.0218 24.3543 16.4654 24.8156 17.0236 24.8264Z" fill="#B0D3F0"/>
<path d="M51.9412 44.1378C51.8216 44.1356 49.1113 44.0895 45.9815 44.5518L42.7378 41.3081L41.3083 42.7376L44.5523 45.9815C44.0901 49.1114 44.1361 51.8212 44.1383 51.941C44.1491 52.4924 44.5995 52.932 45.1485 52.932C45.1551 52.932 45.1618 52.932 45.1684 52.9319C45.7266 52.921 46.1703 52.4598 46.1595 51.9016C46.1591 51.8788 46.1284 50.0867 46.3637 47.7928L49.7967 51.2258L51.2262 49.7963L47.7933 46.3634C50.0838 46.1289 51.8795 46.1583 51.9024 46.159C51.909 46.1591 51.9156 46.1591 51.9222 46.1591C52.4713 46.1591 52.9218 45.7193 52.9324 45.1679C52.9431 44.6099 52.4993 44.1486 51.9412 44.1378Z" fill="#B0D3F0"/>
<path d="M35.5108 57.2761V45.1289H33.4893V57.2761C30.9491 59.1625 29.0655 61.1114 28.9825 61.1978C28.5956 61.6 28.608 62.2396 29.0101 62.6266C29.4122 63.0137 30.0518 63.0014 30.4392 62.5995C30.4551 62.5829 31.7041 61.292 33.4894 59.8382V63.9439H35.5109V59.838C37.2964 61.2919 38.5454 62.5828 38.5613 62.5994C38.7597 62.8054 39.0245 62.9092 39.2896 62.9092C39.5418 62.9092 39.7942 62.8155 39.9901 62.6269C40.3924 62.2398 40.4048 61.6 40.0179 61.1978C39.9346 61.1114 38.051 59.1623 35.5108 57.2761Z" fill="#B0D3F0"/>
<path d="M39.9901 6.17381C39.5881 5.78663 38.9482 5.79917 38.5611 6.2009C38.5452 6.21734 37.2962 7.50826 35.5106 8.96211V5.05566H33.4892V8.96211C31.7036 7.50826 30.4546 6.21734 30.439 6.20104C30.0521 5.7989 29.4122 5.78636 29.0099 6.17341C28.6077 6.56046 28.5953 7.20032 28.9823 7.6026C29.0653 7.68898 30.9491 9.63769 33.4892 11.524V23.8001H35.5106V11.524C38.0508 9.63783 39.9346 7.68898 40.0176 7.6026C40.4047 7.20046 40.3923 6.56086 39.9901 6.17381Z" fill="#B0D3F0"/>
<path d="M23.8355 35.5108V33.4893H11.7236C9.83726 30.9493 7.88841 29.0655 7.80203 28.9825C7.39989 28.5956 6.76042 28.6079 6.37311 29.0101C5.98606 29.4121 5.99832 30.0519 6.40033 30.4392C6.41677 30.4551 7.70769 31.7041 9.16154 33.4895H5.05591V35.511H9.16154C7.71012 37.2935 6.42081 38.5414 6.40047 38.5611C5.99832 38.9482 5.98593 39.5879 6.37297 39.9902C6.57135 40.1965 6.8363 40.3003 7.10152 40.3003C7.35366 40.3003 7.60608 40.2066 7.80216 40.0179C7.88855 39.9348 9.83739 38.0512 11.7237 35.5111H23.8355V35.5108Z" fill="#B0D3F0"/>
<path d="M63.9442 33.4888H60.0379C61.4916 31.7036 62.7826 30.4545 62.7989 30.4388C63.2011 30.0518 63.2135 29.4119 62.8266 29.0098C62.4396 28.6074 61.7996 28.5951 61.3976 28.982C61.3112 29.0652 59.3622 30.9488 57.476 33.4888H45.1648V35.5103H57.476C59.3622 38.0504 61.3113 39.9341 61.3976 40.0172C61.5935 40.2057 61.8459 40.2995 62.098 40.2995C62.3632 40.2995 62.628 40.1956 62.8262 39.9895C63.2133 39.5875 63.201 38.9477 62.7991 38.5605C62.7826 38.5446 61.4916 37.2956 60.0379 35.5102H63.9442V33.4888Z" fill="#B0D3F0"/>
<path d="M46.1751 34.4638C46.1751 40.9029 40.9381 46.1399 34.5003 46.1399C33.7335 46.1399 32.9842 46.0658 32.2578 45.9229C26.8888 44.8745 22.8242 40.1361 22.8242 34.4638C22.8242 28.7605 26.9346 24.0006 32.3495 22.9872C33.0462 22.8578 33.7658 22.7891 34.5003 22.7891C40.9381 22.7891 46.1751 28.0261 46.1751 34.4638Z" fill="#DCF8FF"/>
<path d="M46.1751 34.4638C46.1751 40.9029 40.9381 46.1399 34.5003 46.1399C33.7335 46.1399 32.9842 46.0658 32.2578 45.9229C37.8182 45.0577 42.0714 40.2493 42.0714 34.4476C42.0714 28.677 37.8641 23.8901 32.3495 22.9872C33.0462 22.8578 33.7658 22.7891 34.5003 22.7891C40.9381 22.7891 46.1751 28.0261 46.1751 34.4638Z" fill="#B0D3F0"/>
<path d="M34.5001 0C32.8298 0 31.4709 1.36073 31.4709 3.0333C31.4709 3.84311 31.7856 4.60454 32.3573 5.17743C32.9295 5.75085 33.6904 6.06661 34.4998 6.06661C36.1701 6.06661 37.5289 4.70588 37.5289 3.0333C37.5289 1.36073 36.1702 0 34.5001 0Z" fill="#B0D3F0"/>
<path d="M34.5001 62.9336C32.8298 62.9336 31.4709 64.2943 31.4709 65.9669C31.4709 66.7767 31.7856 67.5381 32.3573 68.111C32.9295 68.6844 33.6904 69.0002 34.4999 69.0002C36.1702 69.0002 37.5291 67.6395 37.5291 65.9669C37.5291 64.2943 36.1702 62.9336 34.5001 62.9336Z" fill="#B0D3F0"/>
<path d="M65.9667 31.4707C64.2941 31.4707 62.9333 32.8295 62.9333 34.5C62.9335 36.1701 64.2943 37.5288 65.9667 37.5288H65.9671C66.7767 37.5288 67.538 37.214 68.1108 36.6425C68.6842 36.0703 69 35.3094 69 34.4998C69 32.8297 67.6392 31.4708 65.9667 31.4707Z" fill="#B0D3F0"/>
<path d="M3.0333 31.4707C2.2235 31.4707 1.46207 31.7855 0.889184 32.3572C0.315756 32.9294 0 33.6903 0 34.4998C0 36.1701 1.36073 37.5288 3.03317 37.5288H3.03357C3.84325 37.5288 4.60467 37.214 5.17743 36.6425C5.75072 36.0704 6.06661 35.3094 6.06661 34.5C6.06661 32.8297 4.70588 31.4708 3.0333 31.4707Z" fill="#B0D3F0"/>
<path d="M21.0413 54.2919C21.0413 57.8281 18.1748 60.6959 14.6386 60.6959C13.9822 60.6959 13.3488 60.5976 12.7518 60.4129C10.136 59.6084 8.23584 57.1718 8.23584 54.2919C8.23584 51.4119 10.136 48.9767 12.7518 48.1722C13.3488 47.9875 13.9822 47.8892 14.6386 47.8892C18.1748 47.8892 21.0413 50.7556 21.0413 54.2919Z" fill="#DCF8FF"/>
<path d="M21.0414 54.2919C21.0414 57.8281 18.1749 60.6959 14.6387 60.6959C13.9824 60.6959 13.349 60.5976 12.752 60.4129C15.3678 59.6084 17.2679 57.1718 17.2679 54.2919C17.2679 51.4119 15.3678 48.9767 12.752 48.1722C13.349 47.9875 13.9824 47.8892 14.6387 47.8892C18.1749 47.8892 21.0414 50.7556 21.0414 54.2919Z" fill="#B0D3F0"/>
<path d="M60.7312 54.2919C60.7312 57.8281 57.8647 60.6959 54.3285 60.6959C53.6722 60.6959 53.0388 60.5976 52.4418 60.4129C49.826 59.6084 47.9258 57.1718 47.9258 54.2919C47.9258 51.4119 49.826 48.9767 52.4418 48.1722C53.0388 47.9875 53.6722 47.8892 54.3285 47.8892C57.8647 47.8892 60.7312 50.7556 60.7312 54.2919Z" fill="#DCF8FF"/>
<path d="M60.7313 54.2919C60.7313 57.8281 57.8649 60.6959 54.3286 60.6959C53.6723 60.6959 53.0389 60.5976 52.4419 60.4129C55.0577 59.6084 56.9579 57.1718 56.9579 54.2919C56.9579 51.4119 55.0577 48.9767 52.4419 48.1722C53.0389 47.9875 53.6723 47.8892 54.3286 47.8892C57.8649 47.8892 60.7313 50.7556 60.7313 54.2919Z" fill="#B0D3F0"/>
<path d="M21.0413 14.6361C21.0413 18.1724 18.1748 21.0402 14.6386 21.0402C13.9822 21.0402 13.3488 20.9418 12.7518 20.7572C10.136 19.9526 8.23584 17.5161 8.23584 14.6361C8.23584 11.7562 10.136 9.32096 12.7518 8.51641C13.3488 8.33178 13.9822 8.2334 14.6386 8.2334C18.1748 8.2334 21.0413 11.0999 21.0413 14.6361Z" fill="#DCF8FF"/>
<path d="M21.0414 14.6361C21.0414 18.1724 18.1749 21.0402 14.6387 21.0402C13.9824 21.0402 13.349 20.9418 12.752 20.7572C15.3678 19.9526 17.2679 17.5161 17.2679 14.6361C17.2679 11.7562 15.3678 9.32096 12.752 8.51641C13.349 8.33178 13.9824 8.2334 14.6387 8.2334C18.1749 8.2334 21.0414 11.0999 21.0414 14.6361Z" fill="#B0D3F0"/>
<path d="M60.7312 14.6361C60.7312 18.1724 57.8647 21.0402 54.3285 21.0402C53.6722 21.0402 53.0388 20.9418 52.4418 20.7572C49.826 19.9526 47.9258 17.5161 47.9258 14.6361C47.9258 11.7562 49.826 9.32096 52.4418 8.51641C53.0388 8.33178 53.6722 8.2334 54.3285 8.2334C57.8647 8.2334 60.7312 11.0999 60.7312 14.6361Z" fill="#DCF8FF"/>
<path d="M60.7313 14.6361C60.7313 18.1724 57.8649 21.0402 54.3286 21.0402C53.6723 21.0402 53.0389 20.9418 52.4419 20.7572C55.0577 19.9526 56.9579 17.5161 56.9579 14.6361C56.9579 11.7562 55.0577 9.32096 52.4419 8.51641C53.0389 8.33178 53.6723 8.2334 54.3286 8.2334C57.8649 8.2334 60.7313 11.0999 60.7313 14.6361Z" fill="#B0D3F0"/>
<path d="M30.7705 37.9189C31.3287 37.9189 31.7812 37.4664 31.7812 36.9082C31.7812 36.35 31.3287 35.8975 30.7705 35.8975C30.2123 35.8975 29.7598 36.35 29.7598 36.9082C29.7598 37.4664 30.2123 37.9189 30.7705 37.9189Z" fill="#D2E1F9"/>
<path d="M33.3984 31.4487C33.3984 32.0069 32.9459 32.4595 32.3877 32.4595C31.8295 32.4595 31.377 32.0069 31.377 31.4487C31.377 30.8905 31.8295 30.438 32.3877 30.438C32.9459 30.438 33.3984 30.8905 33.3984 31.4487Z" fill="#D2E1F9"/>
<path d="M38.2297 37.1128C38.788 37.1128 39.2405 36.6603 39.2405 36.1021C39.2405 35.5438 38.788 35.0913 38.2297 35.0913C37.6715 35.0913 37.219 35.5438 37.219 36.1021C37.219 36.6603 37.6715 37.1128 38.2297 37.1128Z" fill="#D2E1F9"/>
<path d="M30.7705 37.9189C31.3287 37.9189 31.7812 37.4664 31.7812 36.9082C31.7812 36.35 31.3287 35.8975 30.7705 35.8975C30.2123 35.8975 29.7598 36.35 29.7598 36.9082C29.7598 37.4664 30.2123 37.9189 30.7705 37.9189Z" fill="#B0D3F0"/>
<path d="M32.3877 32.4595C32.9459 32.4595 33.3984 32.0069 33.3984 31.4487C33.3984 30.8905 32.9459 30.438 32.3877 30.438C31.8295 30.438 31.377 30.8905 31.377 31.4487C31.377 32.0069 31.8295 32.4595 32.3877 32.4595Z" fill="#B0D3F0"/>
<path d="M38.2297 37.1128C38.788 37.1128 39.2405 36.6603 39.2405 36.1021C39.2405 35.5438 38.788 35.0913 38.2297 35.0913C37.6715 35.0913 37.219 35.5438 37.219 36.1021C37.219 36.6603 37.6715 37.1128 38.2297 37.1128Z" fill="#B0D3F0"/>
</svg>
