<svg width="69" height="69" viewBox="0 0 69 69" fill="none" xmlns="http://www.w3.org/2000/svg">
<path d="M7.35156 63.3311L12.4326 43.6574L16.8854 44.8074L11.8044 64.4811L7.35156 63.3311Z" fill="#90BAE1"/>
<path d="M26.7176 38.9319C25.2908 44.468 19.6463 47.7993 14.1102 46.3724C8.57408 44.9456 5.24286 39.3011 6.66967 33.765C7.03192 32.3585 11.0776 19.3566 14.3367 10.6661C14.5437 10.1179 15.132 9.81526 15.6983 9.96574L30.3148 13.7331C30.8836 13.8752 31.2523 14.4249 31.1681 15.005C29.8226 24.1878 27.0799 37.5255 26.7176 38.9319Z" fill="#B0D3F0"/>
<path d="M30.452 19.5151C29.026 28.0366 27.025 37.7426 26.7145 38.9271C25.8232 42.5422 23.0589 45.4 19.4754 46.4108C15.8919 47.4217 12.0416 46.4298 9.3925 43.8135C6.74339 41.1971 5.70378 37.3594 6.67002 33.7636C6.87702 32.9816 8.22252 28.6116 9.92452 23.3906C12.2216 24.3513 14.6542 24.9488 17.135 25.1616C19.8371 25.2643 22.5151 24.6197 24.8745 23.2986C26.8525 22.2291 28.5775 20.7456 30.452 19.5151Z" fill="#802D40"/>
<path d="M6.72648 61.0812L13.4057 62.8062C15.8649 63.4413 17.3436 65.9497 16.7085 68.4089L1.12368 64.3839C1.75881 61.9247 4.26727 60.446 6.72648 61.0812Z" fill="#B0D3F0"/>
<path d="M11.6145 41.0171C11.2282 41.0175 10.8675 40.824 10.6542 40.5019C9.91471 39.3132 9.54007 37.9338 9.57667 36.5344C9.61293 35.2953 9.77046 34.0627 10.047 32.8544C10.1693 32.231 10.7737 31.8248 11.3971 31.947C12.0205 32.0693 12.4267 32.6737 12.3045 33.2971C12.0593 34.3617 11.9161 35.4472 11.8767 36.539C11.8454 37.4859 12.0847 38.4222 12.5667 39.238C12.8003 39.591 12.8212 40.0437 12.621 40.4167C12.4208 40.7896 12.032 41.0225 11.6087 41.0228L11.6145 41.0171Z" fill="#CC4B4C"/>
<path d="M25.2997 4.0252C24.6645 4.0252 24.1497 3.51032 24.1497 2.8752V1.7252C24.1497 1.09007 24.6645 0.575195 25.2997 0.575195C25.9348 0.575195 26.4497 1.09007 26.4497 1.7252V2.8752C26.4497 3.51032 25.9348 4.0252 25.2997 4.0252Z" fill="#F0C419"/>
<path d="M25.2999 9.7747C24.6648 9.7747 24.1499 9.25983 24.1499 8.62471V7.47471C24.1499 6.83958 24.6648 6.32471 25.2999 6.32471C25.935 6.32471 26.4499 6.83958 26.4499 7.47471V8.62471C26.4499 9.25983 25.935 9.7747 25.2999 9.7747Z" fill="#F0C419"/>
<path d="M22.9997 6.32539H21.8497C21.2146 6.32539 20.6997 5.81052 20.6997 5.17539C20.6997 4.54026 21.2146 4.02539 21.8497 4.02539H22.9997C23.6348 4.02539 24.1497 4.54026 24.1497 5.17539C24.1497 5.81052 23.6348 6.32539 22.9997 6.32539Z" fill="#F0C419"/>
<path d="M28.7495 6.32539H27.5995C26.9643 6.32539 26.4495 5.81052 26.4495 5.17539C26.4495 4.54026 26.9643 4.02539 27.5995 4.02539H28.7495C29.3846 4.02539 29.8995 4.54026 29.8995 5.17539C29.8995 5.81052 29.3846 6.32539 28.7495 6.32539Z" fill="#F0C419"/>
<path d="M43.6996 4.0252C43.0644 4.0252 42.5496 3.51032 42.5496 2.8752V1.7252C42.5496 1.09007 43.0644 0.575195 43.6996 0.575195C44.3347 0.575195 44.8496 1.09007 44.8496 1.7252V2.8752C44.8496 3.51032 44.3347 4.0252 43.6996 4.0252Z" fill="#DF4D60"/>
<path d="M43.6998 9.77519C43.0647 9.77519 42.5498 9.26032 42.5498 8.62519V7.47519C42.5498 6.84007 43.0647 6.3252 43.6998 6.3252C44.3349 6.3252 44.8498 6.84007 44.8498 7.47519V8.62519C44.8498 9.26032 44.3349 9.77519 43.6998 9.77519Z" fill="#DF4D60"/>
<path d="M41.3996 6.3249H40.2496C39.6145 6.3249 39.0996 5.81003 39.0996 5.1749C39.0996 4.53978 39.6145 4.0249 40.2496 4.0249H41.3996C42.0347 4.0249 42.5496 4.53978 42.5496 5.1749C42.5496 5.81003 42.0347 6.3249 41.3996 6.3249Z" fill="#DF4D60"/>
<path d="M47.1496 6.3249H45.9996C45.3645 6.3249 44.8496 5.81003 44.8496 5.1749C44.8496 4.53978 45.3645 4.0249 45.9996 4.0249H47.1496C47.7847 4.0249 48.2996 4.53978 48.2996 5.1749C48.2996 5.81003 47.7847 6.3249 47.1496 6.3249Z" fill="#DF4D60"/>
<path d="M34.4998 5.175C35.135 5.175 35.6498 4.66013 35.6498 4.025C35.6498 3.38987 35.135 2.875 34.4998 2.875C33.8647 2.875 33.3499 3.38987 33.3499 4.025C33.3499 4.66013 33.8647 5.175 34.4998 5.175Z" fill="#F0C419"/>
<path d="M37.9496 9.7751C38.5847 9.7751 39.0996 9.26023 39.0996 8.6251C39.0996 7.98997 38.5847 7.4751 37.9496 7.4751C37.3144 7.4751 36.7996 7.98997 36.7996 8.6251C36.7996 9.26023 37.3144 9.7751 37.9496 9.7751Z" fill="#24AE5F"/>
<path d="M33.3497 10.925C33.9848 10.925 34.4997 10.4101 34.4997 9.775C34.4997 9.13987 33.9848 8.625 33.3497 8.625C32.7146 8.625 32.1997 9.13987 32.1997 9.775C32.1997 10.4101 32.7146 10.925 33.3497 10.925Z" fill="#894B9D"/>
<path d="M23.362 60.4168C21.8657 60.4435 20.4328 59.8131 19.4417 58.6918C18.2177 57.2254 17.9536 55.183 18.7643 53.4535C19.1951 52.4425 20.022 51.6527 21.0517 51.2685C21.899 50.9876 22.8256 51.0783 23.6024 51.5181C25.0746 52.3458 25.7505 54.1032 25.2124 55.7041C25.0819 56.0999 24.7474 56.3942 24.3382 56.4732C23.9289 56.5523 23.509 56.4037 23.2405 56.0848C22.972 55.766 22.8971 55.3269 23.0446 54.937C23.1982 54.4046 22.9787 53.8349 22.5076 53.5432C22.2892 53.4064 22.0218 53.3724 21.7762 53.4501C21.3547 53.6378 21.0241 53.984 20.8562 54.4138C20.4188 55.328 20.5507 56.4128 21.1943 57.1956C22.2176 58.1928 23.7745 58.3995 25.0226 57.7039C26.4151 56.8787 27.2615 55.3734 27.2433 53.7548C27.3657 52.1761 26.6361 50.6521 25.3297 49.7574C24.8051 49.4194 24.6459 48.7248 24.9708 48.192C25.2957 47.6593 25.9862 47.4828 26.5268 47.7944C28.5416 49.1197 29.6922 51.4226 29.5421 53.8296C29.5344 56.2761 28.2183 58.5315 26.0921 59.7417C25.2501 60.1844 24.3133 60.416 23.362 60.4168Z" fill="#894B9D"/>
<path d="M42.4888 60.1546C41.5845 60.1526 40.6916 59.9528 39.8726 59.5692C37.9407 58.6298 36.5092 56.901 35.9465 54.8278C35.3454 52.6138 35.6613 50.2511 36.8228 48.2728C37.6873 46.8056 39.1363 45.7766 40.8064 45.4438C41.4295 45.3196 42.0352 45.7241 42.1594 46.3471C42.2835 46.9702 41.8791 47.5759 41.256 47.7001C40.2164 47.9167 39.3172 48.5635 38.7812 49.4803C37.9575 50.9139 37.7354 52.6155 38.1637 54.2125C38.5434 55.6389 39.5218 56.8312 40.8467 57.482C41.9134 58.0237 43.1846 57.9741 44.2058 57.3509C45.0719 56.4499 45.3669 55.1429 44.9717 53.9572C44.8346 53.4507 44.5418 53.0001 44.1345 52.6692C43.5849 52.3029 42.8753 52.2792 42.3026 52.6083C42.1169 52.6972 41.973 52.8547 41.9012 53.0476C41.8767 53.1245 41.8863 53.2083 41.9276 53.2776C42.2478 53.5406 42.4017 53.9555 42.3305 54.3637C42.2593 54.7718 41.9741 55.1102 41.5839 55.2493C41.1936 55.3885 40.7587 55.307 40.4453 55.0359C39.7147 54.3894 39.4184 53.3818 39.6828 52.4427C39.9195 51.6422 40.4717 50.9726 41.2124 50.5877C42.5703 49.8327 44.2417 49.9267 45.5065 50.8292C46.3103 51.449 46.894 52.3105 47.1717 53.2868C47.7628 55.2142 47.3166 57.9627 45.5433 59.2277C44.646 59.8462 43.5785 60.1701 42.4888 60.1546Z" fill="#24AE5F"/>
<path d="M5.7786 13.3516C5.53321 13.3512 5.28825 13.3312 5.04605 13.2918C3.46373 13.0207 2.05839 12.121 1.14985 10.7974C0.213075 9.50332 -0.169336 7.88925 0.0872488 6.31242C0.453766 4.5018 1.5487 2.92157 3.1152 1.94241C5.8361 0.187514 10.029 -0.170136 12.7752 2.54271C13.1862 2.99408 13.1729 3.68789 12.7449 4.12318C12.317 4.55847 11.6235 4.58355 11.1652 4.18032C9.2976 2.34031 6.2685 2.64621 4.36525 3.87556C3.33024 4.5078 2.60082 5.53789 2.34815 6.72412C2.20038 7.69348 2.44497 8.68177 3.0278 9.47031C3.58191 10.2887 4.44338 10.8482 5.41635 11.0217C6.59664 11.1395 7.68559 10.3762 7.9774 9.22652C8.12362 8.81938 8.09252 8.3696 7.89166 7.98646C7.6908 7.60333 7.33857 7.3219 6.92055 7.21057C6.85113 7.1824 6.77961 7.15972 6.70665 7.14272C6.33831 7.56097 5.72308 7.65491 5.24671 7.36564C4.77033 7.07636 4.56995 6.48714 4.7712 5.96742C4.93932 5.52845 5.27715 5.17569 5.70845 4.98876C6.38475 4.755 7.12458 4.78664 7.77845 5.07731C9.74622 5.74528 10.8192 7.86361 10.1934 9.84521C9.65795 11.8609 7.86319 13.2863 5.7786 13.3516Z" fill="#24AE5F"/>
<path d="M63.2205 13.3518C61.1368 13.2856 59.3433 11.8603 58.808 9.84543C58.1822 7.86352 59.2551 5.74485 61.223 5.07638C61.877 4.7862 62.6168 4.75496 63.293 4.98898C63.7243 5.17591 64.0621 5.52866 64.2302 5.96763C64.4315 6.48735 64.2311 7.07657 63.7547 7.36585C63.2784 7.65513 62.6631 7.56119 62.2948 7.14293C62.2223 7.15987 62.1512 7.18217 62.082 7.20963C61.6637 7.32098 61.3112 7.60252 61.1101 7.98587C60.9091 8.36922 60.8778 8.81928 61.024 9.22673C61.3157 10.3755 62.4033 11.1385 63.5828 11.0219C64.5558 10.8484 65.4172 10.2889 65.9713 9.47053C66.5542 8.68157 66.7988 7.6929 66.651 6.72318C66.3973 5.53922 65.669 4.51118 64.6362 3.87923C62.7364 2.65218 59.7061 2.34168 57.8374 4.18513C57.3791 4.58836 56.6856 4.56328 56.2577 4.12799C55.8297 3.6927 55.8164 2.99889 56.2274 2.54753C58.9782 -0.166472 63.1688 0.192328 65.8874 1.94723C67.453 2.92437 68.5482 4.50195 68.9165 6.31033C69.1723 7.88852 68.7882 9.50356 67.8493 10.7976C66.9405 12.1214 65.5347 13.0212 63.9519 13.292C63.7101 13.3314 63.4655 13.3514 63.2205 13.3518Z" fill="#894B9D"/>
<path d="M52.0996 44.7407L56.5524 43.5907L61.6334 63.2643L57.1806 64.4143L52.0996 44.7407Z" fill="#90BAE1"/>
<path d="M42.2818 38.9319C43.2048 42.5132 45.9682 45.3299 49.5311 46.3212C53.0941 47.3125 56.9152 46.3277 59.5551 43.7377C62.195 41.1478 63.2527 37.3462 62.3297 33.765C61.9675 32.3585 57.9218 19.3566 54.6627 10.6661C54.4557 10.1179 53.8674 9.81526 53.3011 9.96574L38.6846 13.7331C38.1159 13.8752 37.7471 14.4249 37.8313 15.005C39.1768 24.1878 41.9195 37.5255 42.2818 38.9319Z" fill="#B0D3F0"/>
<path d="M38.5476 19.5151C39.9736 28.0366 41.9746 37.7426 42.2851 38.9271C43.1764 42.5422 45.9408 45.4 49.5242 46.4108C53.1077 47.4217 56.958 46.4298 59.6071 43.8135C62.2562 41.1971 63.2958 37.3594 62.3296 33.7636C62.1226 32.9816 60.7771 28.6116 59.0751 23.3906C56.778 24.3513 54.3454 24.9488 51.8646 25.1616C49.1625 25.2643 46.4845 24.6197 44.1251 23.2986C42.1471 22.2291 40.4221 20.7456 38.5476 19.5151Z" fill="#802D40"/>
<path d="M67.8438 64.4482L52.259 68.4732C51.6238 66.014 53.1025 63.5056 55.5618 62.8704L62.241 61.1454C64.7002 60.5103 67.2086 61.989 67.8438 64.4482Z" fill="#B0D3F0"/>
<path d="M57.3847 41.0173C57.771 41.0178 58.1318 40.8243 58.345 40.5022C59.0845 39.3135 59.4591 37.9341 59.4225 36.5347C59.3863 35.2956 59.2288 34.063 58.9522 32.8547C58.8731 32.4514 58.5849 32.121 58.1961 31.9878C57.8073 31.8547 57.3771 31.9391 57.0674 32.2092C56.7577 32.4793 56.6156 32.8941 56.6947 33.2974C56.9399 34.362 57.0831 35.4475 57.1225 36.5393C57.1538 37.4862 56.9145 38.4225 56.4325 39.2383C56.1989 39.5912 56.178 40.044 56.3782 40.417C56.5784 40.7899 56.9672 41.0227 57.3905 41.0231L57.3847 41.0173Z" fill="#CC4B4C"/>
</svg>
