<svg width="69" height="69" viewBox="0 0 69 69" fill="none" xmlns="http://www.w3.org/2000/svg">
<g clip-path="url(#clip0)">
<path d="M18.7119 36.8389V48.5338H14.0339V38.2423C15.6505 37.9924 17.2247 37.5201 18.7119 36.8389Z" fill="#B19046"/>
<path d="M58.4744 6.43215C51.4575 5.26266 46.7795 -4.09328 33.9151 4.09317C21.0507 -4.09328 16.3727 5.26266 9.35577 6.43215C6.13451 7.04498 2.86996 5.60172 1.15529 2.80672C1.00786 2.59352 0.737656 2.50283 0.491448 2.58391C0.24524 2.66499 0.0817953 2.89848 0.0898871 3.15757C0.385768 8.38169 1.65116 20.1386 7.06356 25.144L24.2434 23.9394C27.2506 22.4472 30.5581 21.6593 33.9151 21.6355C37.6804 21.7018 41.3746 22.6724 44.6861 24.4657L61.48 24.4189C66.2913 19.0767 67.4573 8.14896 67.7403 3.16576C67.7484 2.90667 67.5849 2.67318 67.3387 2.5921C67.0925 2.51102 66.8223 2.60171 66.6749 2.81491C64.9579 5.60678 61.6939 7.04657 58.4744 6.43215ZM29.8839 10.5488C23.9639 22.7536 14.4887 17.0886 11.4772 14.8455C11.2154 14.6452 11.0496 14.3441 11.0202 14.0157C10.9909 13.6874 11.1007 13.3617 11.3229 13.1181C17.8439 5.73981 26.1883 7.81098 29.2301 8.91615C29.5453 9.03128 29.7966 9.27503 29.9214 9.58654C30.0461 9.89805 30.0325 10.2479 29.8839 10.5488ZM56.3529 14.8455C53.3415 17.0886 43.8663 22.7536 37.9463 10.5488C37.7961 10.2475 37.7816 9.89635 37.9064 9.58366C38.0313 9.27098 38.2836 9.02643 38.6001 8.91147C41.6407 7.8063 49.9862 5.73513 56.5073 13.1135C56.7311 13.3572 56.8419 13.6839 56.8125 14.0135C56.7831 14.3431 56.6163 14.6451 56.3529 14.8455Z" fill="#955BA5"/>
<path d="M24.3137 30.4888C23.91 33.0451 22.623 35.379 20.6766 37.0847C20.0741 37.5724 19.4143 37.9847 18.7119 38.3127C17.2247 38.9939 15.6505 39.4662 14.0339 39.716C13.6246 39.7979 13.2036 39.8564 12.7942 39.9266C13.5318 38.3616 14.0437 36.7 14.3146 34.9913C13.5459 35.6626 12.678 36.2109 11.7417 36.6169C9.64205 37.4964 7.32172 37.7047 5.09898 37.2133C6.48552 36.0918 7.54402 34.6172 8.16305 32.9447C5.33668 33.7768 2.28176 33.1596 0 31.2957C2.95088 30.0849 5.4238 27.9406 7.04034 25.191C7.05203 25.1793 7.05203 25.1676 7.06373 25.1559C7.79956 24.0007 8.43348 22.7838 8.95831 21.5187C9.03874 21.3255 9.21634 21.19 9.42397 21.1634C9.63159 21.1369 9.83758 21.2233 9.96407 21.3901C11.1767 22.8442 12.9387 23.7294 14.8292 23.8343C17.5699 24.0789 20.3323 23.8213 22.9805 23.0742C23.2664 23.0068 23.5674 23.0619 23.8108 23.2262C24.0481 23.3987 24.2044 23.6606 24.2436 23.9513C24.6351 26.1109 24.6588 28.3212 24.3137 30.4888Z" fill="#F0C419"/>
<path d="M14.3145 34.9913C13.5458 35.6626 12.6779 36.2109 11.7416 36.6169C9.64194 37.4964 7.32161 37.7047 5.09888 37.2133C6.48541 36.0918 7.54392 34.6171 8.16294 32.9447C9.14124 30.3384 8.71761 27.4127 7.04023 25.191C7.05193 25.1793 7.05193 25.1676 7.06362 25.1559C7.79946 24.0007 8.43337 22.7838 8.9582 21.5187C9.03863 21.3255 9.21623 21.19 9.42386 21.1634C9.63149 21.1369 9.83748 21.2233 9.96396 21.3901C11.1766 22.8442 12.9386 23.7294 14.829 23.8343V23.846C18.5012 27.7171 17.4253 32.2664 14.3145 34.9913Z" fill="#F3D55B"/>
<path d="M18.7117 47.3643H14.0337C13.3879 47.3643 12.8643 47.8879 12.8643 48.5338V67.2456C12.8643 67.8915 13.3879 68.4151 14.0337 68.4151H18.7117C19.3576 68.4151 19.8812 67.8915 19.8812 67.2456V48.5338C19.8812 47.8879 19.3576 47.3643 18.7117 47.3643Z" fill="#804537"/>
<path d="M44.7799 30.4888C45.1836 33.0451 46.4706 35.379 48.417 37.0847C50.6156 38.8857 53.5043 39.4821 56.2993 39.9266C55.5617 38.3616 55.0499 36.7 54.779 34.9913C55.5477 35.6626 56.4156 36.2109 57.3519 36.6169C59.4515 37.4964 61.7719 37.7047 63.9946 37.2133C62.6081 36.0918 61.5496 34.6172 60.9305 32.9447C63.7569 33.7768 66.8118 33.1596 69.0936 31.2957C66.1427 30.0849 63.6698 27.9406 62.0532 25.191C62.0415 25.1793 62.0415 25.1676 62.0299 25.1559C61.294 24.0007 60.6601 22.7838 60.1353 21.5187C60.0548 21.3255 59.8772 21.19 59.6696 21.1634C59.462 21.1369 59.256 21.2233 59.1295 21.3901C57.9169 22.8442 56.1549 23.7294 54.2644 23.8343C51.5237 24.0789 48.7613 23.8213 46.1131 23.0742C45.8272 23.0068 45.5262 23.0619 45.2827 23.2262C45.0455 23.3987 44.8892 23.6606 44.85 23.9513C44.4585 26.1109 44.4348 28.3212 44.7799 30.4888Z" fill="#F0C419"/>
<path d="M54.7792 34.9913C55.5479 35.6626 56.4158 36.2109 57.3521 36.6169C59.4517 37.4964 61.7721 37.7047 63.9948 37.2133C62.6083 36.0918 61.5498 34.6171 60.9307 32.9447C59.9524 30.3384 60.3761 27.4127 62.0534 25.191C62.0418 25.1793 62.0418 25.1676 62.0301 25.1559C61.2942 24.0007 60.6603 22.7838 60.1355 21.5187C60.055 21.3255 59.8774 21.19 59.6698 21.1634C59.4622 21.1369 59.2562 21.2233 59.1297 21.3901C57.9171 22.8442 56.1551 23.7294 54.2646 23.8343V23.846C50.5924 27.7171 51.6684 32.2664 54.7792 34.9913Z" fill="#F3D55B"/>
</g>
<defs>
<clipPath id="clip0">
<rect width="69" height="69" fill="white"/>
</clipPath>
</defs>
</svg>
