<svg width="69" height="69" viewBox="0 0 69 69" fill="none" xmlns="http://www.w3.org/2000/svg">
<g clip-path="url(#clip0)">
<path d="M68.2269 10.4812C64.2296 9.11315 64.0393 5.8059 60.6725 3.56935C57.1036 1.19004 54.7243 4.75901 54.7243 4.75901L54.5339 4.86608C45.207 19.0349 28.5519 20.2245 14.4663 4.86608L14.276 4.75901C14.276 4.75901 11.8967 1.19004 8.32771 3.56935C4.96099 5.8059 4.77065 9.11315 0.773403 10.4812C0.295685 10.6406 -0.0194093 11.0963 0.000127359 11.5995C0.0596101 17.8928 1.8084 55.9261 34.5001 69.0004C67.1919 55.9261 68.9407 17.8928 69.0001 11.5995C69.0197 11.0963 68.7046 10.6406 68.2269 10.4812Z" fill="#35495E"/>
<path d="M30.2056 17.048L30.5863 19.344C29.971 19.8871 29.287 20.347 28.552 20.7121C26.4639 21.6996 24.2155 22.304 21.9137 22.4966C20.7731 22.6299 19.7026 21.9213 19.3798 20.8192C19.3322 20.617 19.2727 20.4028 19.237 20.1649C19.0967 19.3997 19.0289 18.623 19.0348 17.8451V16.6554C19.0326 16.1067 19.0643 15.5584 19.1299 15.0137C19.1839 14.5645 19.2674 14.1194 19.3798 13.6813C19.7026 12.5792 20.7731 11.8705 21.9137 12.0039C22.116 12.0276 22.342 12.0514 22.5799 12.0752L22.8774 12.1109C25.7139 12.3824 28.4136 13.4598 30.6577 15.2159C30.2574 15.7365 30.0934 16.401 30.2056 17.048Z" fill="#FF5364"/>
<path d="M32.133 14.3117C31.5452 14.4172 31.0187 14.74 30.6578 15.2158C28.4137 13.4597 25.7141 12.3823 22.8775 12.1108L22.5801 12.0751L22.6039 11.8967C24.362 10.0716 25.2579 7.58307 25.0665 5.05615C28.0406 7.70908 31.0504 11.0401 32.1211 14.276L32.133 14.3117Z" fill="#BDC3C7"/>
<path d="M38.7945 17.0478L38.4138 19.3438L38.4019 19.4271C38.2076 20.571 37.2186 21.4094 36.0583 21.4138H32.9414C31.7811 21.4094 30.7921 20.571 30.5978 19.4271L30.5859 19.3438L30.2052 17.0478C30.093 16.4007 30.2569 15.7363 30.6573 15.2157C31.1044 14.6218 31.8054 14.2735 32.5488 14.2759H36.4509C37.15 14.2768 37.8133 14.5851 38.2647 15.119C38.7161 15.6529 38.9099 16.3583 38.7945 17.0478Z" fill="#C03A2B"/>
<path d="M49.9657 16.6554V17.8451C49.9715 18.623 49.9038 19.3997 49.7635 20.1649C49.7278 20.4028 49.6683 20.617 49.6207 20.8192C49.2979 21.9213 48.2274 22.6299 47.0867 22.4966C44.785 22.304 42.5365 21.6996 40.4485 20.7121C39.7134 20.347 39.0295 19.8871 38.4142 19.344L38.7948 17.048C38.9071 16.401 38.7431 15.7365 38.3428 15.2159C40.615 13.1459 44.1126 12.3607 46.4205 12.0752C46.6585 12.0514 46.8845 12.0276 47.0867 12.0039C48.2274 11.8705 49.2979 12.5792 49.6207 13.6813C49.7331 14.1194 49.8166 14.5645 49.8705 15.0137C49.9361 15.5584 49.9679 16.1067 49.9657 16.6554Z" fill="#FF5364"/>
<path d="M46.4206 12.0751C44.1127 12.3606 40.6151 13.1458 38.3428 15.2158C37.982 14.74 37.4554 14.4172 36.8677 14.3117L36.8796 14.276C37.9503 11.0401 40.9601 7.70908 43.9342 5.05615C43.7428 7.58307 44.6386 10.0716 46.3968 11.8967L46.4206 12.0751Z" fill="#95A5A5"/>
<path d="M40.4485 20.7119V62.6948C38.5894 64.9098 36.6033 67.015 34.5003 69C32.3973 67.015 30.4112 64.9098 28.552 62.6948V20.7119C29.287 20.3468 29.971 19.8868 30.5863 19.3438L30.5982 19.427C30.7925 20.571 31.7815 21.4093 32.9418 21.4137H36.0587C37.219 21.4093 38.208 20.571 38.4023 19.427L38.4142 19.3438C39.0296 19.8868 39.7135 20.3468 40.4485 20.7119Z" fill="white"/>
<path d="M28.5522 20.7123V62.6953C14.4072 45.8022 12.0755 27.3268 11.9089 15.4897C13.4999 18.095 16.2041 19.8202 19.2372 20.1651C19.2729 20.403 19.3324 20.6172 19.38 20.8194C19.7028 21.9215 20.7733 22.6301 21.9139 22.4968C24.2157 22.3042 26.4641 21.6998 28.5522 20.7123Z" fill="#BDC3C7"/>
<path d="M19.2369 20.165C16.2038 19.8201 13.4996 18.0949 11.9086 15.4896V15.4658C11.8967 14.9543 11.8967 14.4546 11.8967 13.9669C11.9464 11.7777 12.398 9.61625 13.2291 7.59033C13.7288 9.02981 15.549 13.5862 19.1298 15.0138C19.0642 15.5585 19.0324 16.1068 19.0347 16.6555V17.8452C19.0288 18.6231 19.0965 19.3998 19.2369 20.165Z" fill="#802D40"/>
<path d="M22.6037 11.8967L22.5799 12.0751C22.342 12.0513 22.116 12.0275 21.9137 12.0037C20.7731 11.8704 19.7026 12.5791 19.3798 13.6811C19.2674 14.1193 19.1839 14.5644 19.1299 15.0135C15.5491 13.586 13.7289 9.02958 13.2292 7.5901V7.5782C13.5943 6.65319 14.0073 5.74783 14.4665 4.86579C15.2577 3.34202 16.1603 1.87873 17.167 0.487858C17.539 -0.0211761 18.2435 -0.151637 18.773 0.190445C20.9818 1.65913 23.0847 3.28104 25.0663 5.04424V5.05613C25.2578 7.58305 24.3619 10.0716 22.6037 11.8967Z" fill="#ECF0F1"/>
<path d="M57.0915 15.4897C56.925 27.3268 54.5932 45.8022 40.4482 62.6953V20.7123C42.5363 21.6998 44.7848 22.3042 47.0865 22.4968C48.2271 22.6301 49.2976 21.9215 49.6205 20.8194C49.6681 20.6172 49.7276 20.403 49.7632 20.1651C52.7963 19.8202 55.5005 18.095 57.0915 15.4897Z" fill="#BDC3C7"/>
<path d="M57.1036 13.9669C57.1036 14.4546 57.1036 14.9543 57.0917 15.4658V15.4896C55.5007 18.0949 52.7965 19.8201 49.7634 20.165C49.9038 19.3998 49.9715 18.6231 49.9657 17.8452V16.6555C49.9679 16.1068 49.9361 15.5585 49.8705 15.0138C53.4514 13.5862 55.2715 9.02981 55.7712 7.59033C56.6023 9.61625 57.0539 11.7777 57.1036 13.9669Z" fill="#802D40"/>
<path d="M55.7712 7.5782V7.5901C55.2715 9.02958 53.4514 13.586 49.8705 15.0135C49.8165 14.5644 49.7331 14.1193 49.6207 13.6811C49.2978 12.5791 48.2273 11.8704 47.0867 12.0037C46.8845 12.0275 46.6584 12.0513 46.4205 12.0751L46.3967 11.8967C44.6386 10.0716 43.7427 7.58305 43.9341 5.05613V5.04424C45.9157 3.28104 48.0187 1.65913 50.2274 0.190445C50.757 -0.151637 51.4615 -0.0211761 51.8334 0.487858C52.8401 1.87873 53.7427 3.34202 54.534 4.86579C54.9932 5.74783 55.4062 6.65319 55.7712 7.5782Z" fill="#BDC3C7"/>
<path d="M69.0003 11.5995C68.9408 17.8928 67.192 55.9261 34.5002 69.0004C36.6032 67.0154 38.5893 64.9102 40.4485 62.6952C54.5935 45.8021 56.9253 27.3268 57.0918 15.4897V15.4659C57.1037 14.9544 57.1037 14.4547 57.1037 13.9669C57.054 11.7777 56.6024 9.61631 55.7713 7.59039V7.57849C55.4063 6.65348 54.9933 5.74812 54.5341 4.86608L54.7244 4.75901C54.7244 4.75901 57.1037 1.19004 60.6727 3.56935C64.0394 5.8059 64.2297 9.11315 68.227 10.4812C68.7047 10.6406 69.0198 11.0963 69.0003 11.5995Z" fill="#2C3E50"/>
<path d="M34.5002 29.7416C35.1572 29.7416 35.6898 29.209 35.6898 28.552C35.6898 27.8949 35.1572 27.3623 34.5002 27.3623C33.8432 27.3623 33.3105 27.8949 33.3105 28.552C33.3105 29.209 33.8432 29.7416 34.5002 29.7416Z" fill="#2C3E50"/>
<path d="M34.5002 36.8798C35.1572 36.8798 35.6898 36.3472 35.6898 35.6901C35.6898 35.0331 35.1572 34.5005 34.5002 34.5005C33.8432 34.5005 33.3105 35.0331 33.3105 35.6901C33.3105 36.3472 33.8432 36.8798 34.5002 36.8798Z" fill="#2C3E50"/>
<path d="M34.5002 44.0175C35.1572 44.0175 35.6898 43.4849 35.6898 42.8278C35.6898 42.1708 35.1572 41.6382 34.5002 41.6382C33.8432 41.6382 33.3105 42.1708 33.3105 42.8278C33.3105 43.4849 33.8432 44.0175 34.5002 44.0175Z" fill="#2C3E50"/>
<path d="M34.5002 51.1552C35.1572 51.1552 35.6898 50.6226 35.6898 49.9655C35.6898 49.3085 35.1572 48.7759 34.5002 48.7759C33.8432 48.7759 33.3105 49.3085 33.3105 49.9655C33.3105 50.6226 33.8432 51.1552 34.5002 51.1552Z" fill="#2C3E50"/>
<path d="M34.5002 58.2939C35.1572 58.2939 35.6898 57.7612 35.6898 57.1042C35.6898 56.4472 35.1572 55.9146 34.5002 55.9146C33.8432 55.9146 33.3105 56.4472 33.3105 57.1042C33.3105 57.7612 33.8432 58.2939 34.5002 58.2939Z" fill="#2C3E50"/>
</g>
<defs>
<clipPath id="clip0">
<rect width="69" height="69" fill="white"/>
</clipPath>
</defs>
</svg>
