<svg width="69" height="69" viewBox="0 0 69 69" fill="none" xmlns="http://www.w3.org/2000/svg">
<path d="M36.8793 24.4245C36.5184 26.4483 35.9695 28.4341 35.24 30.3561C35.1535 30.6942 34.849 30.9307 34.5 30.9307C34.151 30.9307 33.8465 30.6942 33.76 30.3561C33.0305 28.4341 32.4816 26.4483 32.1207 24.4245C32.0078 23.5048 32.4351 22.6025 33.2179 22.107C34.0008 21.6115 34.9992 21.6115 35.782 22.107C36.5649 22.6025 36.9921 23.5048 36.8793 24.4245Z" fill="#F0C419"/>
<path d="M36.8794 9.91673C36.5193 12.0098 35.9707 14.0659 35.2401 16.0601C35.1634 16.4073 34.8556 16.6544 34.5001 16.6544C34.1446 16.6544 33.8368 16.4073 33.7601 16.0601C33.0296 14.0659 32.4809 12.0098 32.1208 9.91673C32.0188 8.49503 33.0797 7.25591 34.5001 7.1377C35.9205 7.25591 36.9814 8.49503 36.8794 9.91673Z" fill="#FF5364"/>
<path d="M23.623 2.17736C24.283 4.75085 24.7086 7.37882 24.8947 10.0291C24.9738 10.4603 24.7481 10.8898 24.3481 11.0693C23.948 11.2487 23.4772 11.1316 23.2078 10.7857C21.3563 8.88316 19.6808 6.81703 18.2017 4.61258C17.3575 3.0446 17.9306 1.08926 19.4877 0.225132C21.1681 -0.365778 23.0113 0.504379 23.623 2.17736Z" fill="#24AE5F"/>
<path d="M3.98646 19.076C6.48228 19.9832 8.89085 21.1144 11.1827 22.4558C11.5841 22.6336 11.8117 23.0629 11.7338 23.495C11.6559 23.927 11.2925 24.2497 10.8543 24.276C8.23923 24.7326 5.58819 24.9516 2.93361 24.9303C1.16223 24.7397 -0.12642 23.1599 0.0427519 21.3863C0.504056 19.6671 2.26124 18.6377 3.98646 19.076Z" fill="#24AE5F"/>
<path d="M65.0133 19.076C62.5175 19.9832 60.1089 21.1144 57.8171 22.4558C57.4157 22.6336 57.188 23.0629 57.2659 23.495C57.3439 23.927 57.7072 24.2497 58.1454 24.276C60.7605 24.7326 63.4115 24.9516 66.0661 24.9303C67.8375 24.7397 69.1262 23.1599 68.957 21.3863C68.4957 19.6671 66.7385 18.6377 65.0133 19.076Z" fill="#24AE5F"/>
<path d="M3.98637 49.901C6.48256 48.9923 8.89117 47.8591 11.1826 46.5152C11.5827 46.3367 11.8092 45.9082 11.7314 45.477C11.6535 45.0459 11.2915 44.7236 10.8543 44.6962C8.23915 44.2397 5.5881 44.0207 2.93353 44.0419C1.16119 44.2314 -0.128826 45.8115 0.0402865 47.5859C0.499472 49.3082 2.25893 50.3404 3.98637 49.901Z" fill="#24AE5F"/>
<path d="M65.0131 49.901C62.5169 48.9923 60.1083 47.8591 57.8169 46.5152C57.4168 46.3367 57.1903 45.9082 57.2681 45.477C57.346 45.0459 57.708 44.7236 58.1452 44.6962C60.7603 44.2397 63.4114 44.0207 66.066 44.0419C67.8383 44.2314 69.1283 45.8115 68.9592 47.5859C68.5 49.3082 66.7406 50.3404 65.0131 49.901Z" fill="#24AE5F"/>
<path d="M45.3375 2.17736C44.677 4.7508 44.2509 7.37877 44.0645 10.0291C43.9854 10.4603 44.2111 10.8898 44.6111 11.0693C45.0112 11.2487 45.482 11.1316 45.7515 10.7857C47.6053 8.88559 49.2833 6.82143 50.7647 4.61853C51.6112 3.04751 51.0349 1.08779 49.4727 0.225132C47.7923 -0.365778 45.9491 0.504379 45.3375 2.17736Z" fill="#24AE5F"/>
<path d="M23.6228 66.8219C24.2825 64.2503 24.7081 61.6244 24.8946 58.9761C24.9737 58.5449 24.748 58.1154 24.348 57.936C23.9479 57.7565 23.477 57.8736 23.2076 58.2195C21.3565 60.1202 19.681 62.1843 18.2016 64.3867C17.3583 65.9562 17.9342 67.9121 19.4935 68.7741C21.1722 69.3612 23.0112 68.4917 23.6228 66.8219Z" fill="#24AE5F"/>
<path d="M45.3375 66.8219C44.6773 64.2504 44.2513 61.6244 44.0645 58.9761C43.9854 58.5449 44.2111 58.1154 44.6111 57.936C45.0112 57.7565 45.4821 57.8736 45.7515 58.2195C47.6054 60.1196 49.2833 62.1838 50.7647 64.3867C51.6073 65.9563 51.0315 67.9116 49.4727 68.7741C47.7923 69.365 45.9491 68.4949 45.3375 66.8219Z" fill="#24AE5F"/>
<path d="M13.7521 10.3869C14.9771 12.1218 16.0429 13.9637 16.9369 15.8902C17.1289 16.19 17.0864 16.5831 16.8346 16.8349C16.5829 17.0866 16.1898 17.1292 15.89 16.9371C13.9635 16.0432 12.1216 14.9773 10.3866 13.7524C9.31003 12.8187 9.18435 11.1929 10.1047 10.1049C11.1927 9.1846 12.8185 9.31027 13.7521 10.3869Z" fill="#2FA8CC"/>
<path d="M58.6131 55.2478C56.8782 54.0229 55.0362 52.957 53.1098 52.0631C52.81 51.871 52.4169 51.9136 52.1651 52.1653C51.9133 52.4171 51.8708 52.8102 52.0629 53.11C52.9568 55.0365 54.0227 56.8784 55.2476 58.6133C55.8083 59.3783 56.766 59.7428 57.6935 59.5443C58.621 59.3458 59.3456 58.6212 59.5441 57.6937C59.7426 56.7662 59.3781 55.8086 58.6131 55.2478Z" fill="#2FA8CC"/>
<path d="M10.3866 55.2478C12.1216 54.0229 13.9635 52.957 15.89 52.0631C16.1898 51.871 16.5829 51.9136 16.8346 52.1653C17.0864 52.4171 17.1289 52.8102 16.9369 53.11C16.0429 55.0365 14.9771 56.8784 13.7521 58.6133C12.8185 59.6899 11.1927 59.8156 10.1047 58.8953C9.18435 57.8073 9.31003 56.1815 10.3866 55.2478Z" fill="#2FA8CC"/>
<path d="M55.2476 10.3869C54.0227 12.1218 52.9568 13.9637 52.0629 15.8902C51.8708 16.19 51.9133 16.5831 52.1651 16.8349C52.4169 17.0866 52.81 17.1292 53.1098 16.9371C55.0362 16.0432 56.8782 14.9773 58.6131 13.7524C59.6897 12.8187 59.8154 11.1929 58.8951 10.1049C57.807 9.1846 56.1812 9.31027 55.2476 10.3869Z" fill="#2FA8CC"/>
<path d="M36.8794 59.0834C36.5193 56.9904 35.9707 54.9342 35.2401 52.94C35.1634 52.5929 34.8556 52.3457 34.5001 52.3457C34.1446 52.3457 33.8368 52.5929 33.7601 52.94C33.0296 54.9342 32.4809 56.9904 32.1208 59.0834C32.0188 60.5051 33.0797 61.7442 34.5001 61.8624C35.9205 61.7442 36.9814 60.5051 36.8794 59.0834Z" fill="#FF5364"/>
<path d="M9.91673 32.121C12.0098 32.4811 14.0659 33.0298 16.0601 33.7604C16.4073 33.8371 16.6544 34.1448 16.6544 34.5003C16.6544 34.8559 16.4073 35.1636 16.0601 35.2403C14.0659 35.9709 12.0098 36.5196 9.91673 36.8797C8.49503 36.9817 7.25591 35.9208 7.1377 34.5003C7.25591 33.0799 8.49503 32.019 9.91673 32.121Z" fill="#FF5364"/>
<path d="M59.0832 32.121C56.9901 32.4811 54.9339 33.0298 52.9398 33.7604C52.5926 33.8371 52.3455 34.1448 52.3455 34.5003C52.3455 34.8559 52.5926 35.1636 52.9398 35.2403C54.9339 35.9709 56.9901 36.5196 59.0832 36.8797C60.5049 36.9817 61.744 35.9208 61.8622 34.5003C61.744 33.0799 60.5049 32.019 59.0832 32.121Z" fill="#FF5364"/>
<path d="M24.7932 21.3471C25.9691 23.0335 26.9855 24.8257 27.8292 26.7005C28.0079 27.0008 27.96 27.384 27.7129 27.6311C27.4658 27.8782 27.0826 27.9261 26.7823 27.7474C24.9073 26.9041 23.115 25.8877 21.4289 24.7114C20.7021 24.1402 20.3688 23.2017 20.5723 22.3C20.7759 21.3983 21.4801 20.6941 22.3818 20.4906C23.2835 20.287 24.2219 20.6203 24.7932 21.3471Z" fill="#894B9D"/>
<path d="M47.5709 44.1245C45.8846 42.9486 44.0924 41.9326 42.2174 41.0897C41.9174 40.9118 41.535 40.9598 41.2882 41.2063C41.0415 41.4528 40.993 41.8351 41.1705 42.1354C42.0143 44.0102 43.0307 45.8024 44.2065 47.4888C44.7778 48.2156 45.7162 48.5489 46.6179 48.3454C47.5196 48.1418 48.2238 47.4376 48.4274 46.5359C48.631 45.6342 48.2977 44.6957 47.5709 44.1245Z" fill="#894B9D"/>
<path d="M21.4289 44.1245C23.1151 42.9486 24.9073 41.9326 26.7823 41.0897C27.0823 40.9118 27.4647 40.9598 27.7115 41.2063C27.9583 41.4528 28.0067 41.8351 27.8292 42.1354C26.9855 44.0102 25.9691 45.8024 24.7932 47.4888C24.2219 48.2156 23.2835 48.5489 22.3818 48.3454C21.4801 48.1418 20.7759 47.4376 20.5723 46.5359C20.3688 45.6342 20.7021 44.6957 21.4289 44.1245Z" fill="#894B9D"/>
<path d="M44.2062 21.3471C43.0303 23.0335 42.0139 24.8257 41.1702 26.7005C40.9915 27.0008 41.0394 27.384 41.2865 27.6311C41.5335 27.8782 41.9168 27.9261 42.2171 27.7474C44.0921 26.9041 45.8844 25.8877 47.5705 24.7114C48.2973 24.1402 48.6306 23.2017 48.427 22.3C48.2234 21.3983 47.5193 20.6941 46.6175 20.4906C45.7158 20.287 44.7774 20.6203 44.2062 21.3471Z" fill="#894B9D"/>
<path d="M36.8793 44.5756C36.5184 42.5517 35.9695 40.5659 35.24 38.6439C35.1535 38.3059 34.849 38.0693 34.5 38.0693C34.151 38.0693 33.8465 38.3059 33.76 38.6439C33.0305 40.5659 32.4816 42.5517 32.1207 44.5756C32.0078 45.4952 32.4351 46.3975 33.2179 46.893C34.0008 47.3885 34.9992 47.3885 35.782 46.893C36.5649 46.3975 36.9921 45.4952 36.8793 44.5756Z" fill="#F0C419"/>
<path d="M24.4247 32.1209C26.4486 32.4819 28.4343 33.0307 30.3563 33.7603C30.6944 33.8467 30.9309 34.1513 30.9309 34.5002C30.9309 34.8492 30.6944 35.1538 30.3563 35.2402C28.4343 35.9698 26.4486 36.5186 24.4247 36.8795C23.5051 36.9924 22.6028 36.5652 22.1072 35.7823C21.6117 34.9994 21.6117 34.0011 22.1072 33.2182C22.6028 32.4353 23.5051 32.0081 24.4247 32.1209Z" fill="#F0C419"/>
<path d="M44.5753 32.1209C42.5515 32.4819 40.5657 33.0307 38.6437 33.7603C38.3056 33.8467 38.0691 34.1513 38.0691 34.5002C38.0691 34.8492 38.3056 35.1538 38.6437 35.2402C40.5657 35.9698 42.5515 36.5186 44.5753 36.8795C45.4949 36.9924 46.3973 36.5652 46.8928 35.7823C47.3883 34.9994 47.3883 34.0011 46.8928 33.2182C46.3973 32.4353 45.4949 32.0081 44.5753 32.1209Z" fill="#F0C419"/>
</svg>
