<svg width="69" height="69" viewBox="0 0 69 69" fill="none" xmlns="http://www.w3.org/2000/svg">
<path d="M68.5133 27.6711C68.0101 25.1459 66.6737 22.8627 64.7183 21.1875C62.2428 19.4829 59.2344 18.7308 56.2479 19.0699C51.8749 19.3989 47.6729 20.9078 44.0896 23.436C44.4677 19.1786 43.8105 14.8931 42.1743 10.9446C38.4626 2.83114 28.6003 -1.43973 20.0467 0.439929C16.0526 1.11759 12.9739 4.3316 12.4686 8.35114C12.2843 10.0233 12.3687 11.7141 12.7184 13.3596C10.8001 14.0134 9.51251 15.8179 9.51827 17.8446C9.51667 18.2831 9.57674 18.7196 9.69672 19.1413C7.7386 19.3128 5.86567 20.0208 4.28379 21.1875C2.32836 22.8627 0.991962 25.1459 0.488786 27.6711C-0.736332 33.0343 0.450672 38.665 3.73654 43.0772C2.22597 44.6208 1.94434 46.9881 3.05061 48.843C4.15689 50.6979 6.3736 51.5751 8.44962 50.9796C10.5256 50.3841 11.9403 48.4652 11.8951 46.306C11.85 44.1467 10.3563 42.2886 8.25723 41.7804C6.9784 39.7617 6.18815 37.4724 5.9493 35.0946C5.9129 33.9448 6.21934 32.8101 6.82965 31.8349C8.50706 29.3961 11.9928 29.4437 14.5624 30.1932C22.2 32.406 24.1986 41.4473 23.7346 48.3117C23.3778 53.4629 20.939 55.1998 20.7129 61.148C20.6489 63.303 20.8027 65.4589 21.1721 67.5829C21.2226 67.9288 21.4227 68.2349 21.7192 68.4201C22.0157 68.6052 22.3786 68.6506 22.7115 68.5441C26.5219 67.312 30.4967 66.6635 34.501 66.6205C38.5054 66.6635 42.4802 67.312 46.2905 68.5441C46.6235 68.6506 46.9864 68.6052 47.2828 68.4201C47.5793 68.2349 47.7794 67.9288 47.8299 67.5829C48.1994 65.4589 48.3532 63.303 48.2891 61.148C48.075 55.1998 45.6243 53.4629 45.2674 48.3117C44.8034 41.4473 46.8021 32.406 54.4396 30.1932C57.0093 29.4437 60.495 29.3961 62.1724 31.8349C62.7827 32.8101 63.0892 33.9448 63.0527 35.0946C62.8139 37.4724 62.0237 39.7617 60.7448 41.7804C58.6457 42.2886 57.1521 44.1467 57.1069 46.306C57.0618 48.4652 58.4764 50.3841 60.5524 50.9796C62.6285 51.5751 64.8452 50.6979 65.9514 48.843C67.0577 46.9881 66.7761 44.6208 65.2655 43.0772C68.5514 38.665 69.7384 33.0343 68.5133 27.6711ZM18.4169 20.1882C19.6386 18.0365 19.0016 15.3072 16.9536 13.9187C17.813 12.1963 19.19 10.7861 20.8914 9.88579C23.3701 8.9791 26.1281 10.1425 27.2084 12.5506C29.1595 16.2504 28.4695 20.902 26.3638 24.5067C23.9864 22.6155 21.297 21.1541 18.4169 20.1882Z" fill="#894B9D"/>
<path d="M39.7824 58.6382C38.0315 58.404 36.2668 58.2887 34.5003 58.2932C29.7432 58.1422 25.0181 59.1207 20.7122 61.1483C20.9382 55.2001 23.377 53.4632 23.7339 48.3119C24.1979 41.4476 22.1993 32.4063 14.5617 30.1935C11.992 29.444 8.50633 29.3964 6.82892 31.8352C6.21861 32.8104 5.91216 33.9451 5.94857 35.0949C6.18742 37.4727 6.97767 39.7619 8.2565 41.7807C7.89148 41.685 7.51559 41.6371 7.13823 41.638C5.85527 41.6339 4.62626 42.1538 3.73581 43.0775C0.44994 38.6653 -0.737065 33.0346 0.488053 27.6714C0.99123 25.1462 2.32763 22.863 4.28305 21.1878C5.86493 20.0211 7.73787 19.3131 9.69599 19.1416H9.70788C10.2284 20.9879 11.8084 22.3399 13.7129 22.5688C15.6175 22.7978 17.4728 21.8588 18.4162 20.1885C21.2963 21.1544 23.9857 22.6158 26.3631 24.5069C28.324 26.0355 30.0794 27.8109 31.5856 29.789C32.6767 31.228 33.6513 32.7516 34.5003 34.3454C38.4381 41.7688 39.7705 50.5247 39.7824 58.6382Z" fill="#E64C3C"/>
<path d="M11.8965 46.3963C11.9 48.5445 10.4639 50.4286 8.39165 50.9945C6.31944 51.5605 4.12497 50.668 3.03601 48.8164C1.94705 46.9647 2.23365 44.6131 3.73545 43.0772C4.62589 42.1536 5.8549 41.6336 7.13786 41.6377C7.51522 41.6368 7.89111 41.6848 8.25614 41.7805C10.3912 42.2918 11.8969 44.2009 11.8965 46.3963Z" fill="#F0C419"/>
<path d="M19.0346 17.8446C19.0171 20.206 17.2704 22.1974 14.9314 22.5226C12.5924 22.8478 10.3687 21.4084 9.70771 19.1413H9.69581C9.57583 18.7196 9.51576 18.283 9.51737 17.8446C9.5116 15.8179 10.7992 14.0133 12.7175 13.3596C13.2169 13.1775 13.7445 13.0848 14.276 13.0859C16.9 13.0957 19.0248 15.2205 19.0346 17.8446Z" fill="#F0C419"/>
<path d="M65.2645 43.0771C64.374 42.1534 63.145 41.6334 61.8621 41.6376C61.4847 41.6366 61.1088 41.6846 60.7438 41.7803C62.0226 39.7615 62.8129 37.4723 63.0517 35.0945C63.0881 33.9446 62.7817 32.81 62.1714 31.8348C60.494 29.396 57.0083 29.4436 54.4386 30.1931C46.801 32.4058 44.8024 41.4472 45.2664 48.3115C45.6233 53.4627 48.074 55.1996 48.2881 61.1479C45.6144 59.8381 42.7386 58.9894 39.7821 58.6377C39.7702 50.5243 38.4378 41.7684 34.5 34.345C35.349 32.7512 36.3236 31.2276 37.4147 29.7886C39.2921 27.3338 41.5443 25.19 44.0886 23.4358C47.6719 20.9077 51.8739 19.3987 56.2469 19.0698C59.2334 18.7307 62.2417 19.4828 64.7172 21.1874C66.6727 22.8626 68.0091 25.1458 68.5122 27.671C69.7374 33.0342 68.5504 38.6648 65.2645 43.0771Z" fill="#FF5364"/>
<path d="M66.6208 46.3963C66.6258 48.8799 64.7199 50.9496 62.2444 51.1491C59.7689 51.3485 57.5562 49.6107 57.1635 47.1584C56.7707 44.7061 58.3299 42.3641 60.7439 41.7805C61.1089 41.6848 61.4848 41.6368 61.8622 41.6377C64.4873 41.6449 66.6136 43.7712 66.6208 46.3963Z" fill="#F0C419"/>
</svg>
