<svg width="69" height="69" viewBox="0 0 69 69" fill="none" xmlns="http://www.w3.org/2000/svg">
<g clip-path="url(#clip0)">
<path d="M65.1174 38.3949C65.1174 52.4847 63.9543 66.7591 63.9422 66.9019C63.9018 67.3952 63.511 67.786 63.0177 67.8264C62.9692 67.8305 61.321 67.9652 58.619 68.1418C53.289 68.4881 43.8541 69.0002 34.5 69.0002C28.763 69.0002 22.3765 68.8142 15.5169 68.4463C15.3309 68.4369 15.1503 68.3749 14.9967 68.2684C9.28263 64.3171 5.82724 59.661 4.60626 57.843C4.50384 57.692 4.44589 57.5155 4.43645 57.3336C4.06854 50.4672 3.88257 44.0955 3.88257 38.3949C3.88257 33.2402 4.0389 28.0611 4.237 23.5586L34.5 15.6748L59.437 22.1732L64.7629 23.5613C64.961 28.0638 65.1174 33.2415 65.1174 38.3949Z" fill="#DCF8FF"/>
<path d="M65.1173 38.3946C65.1173 52.4843 63.9543 66.7587 63.9421 66.9016C63.9017 67.3948 63.5109 67.7856 63.0176 67.826C62.9691 67.8301 61.3209 67.9649 58.6189 68.1414C60.1876 50.7283 59.9369 33.6145 59.4369 22.1729L64.7629 23.5609C64.961 28.0635 65.1173 33.2411 65.1173 38.3946Z" fill="#D2E1F9"/>
<path d="M64.763 23.5611C64.1336 23.5139 62.2361 23.3778 59.4802 23.2147C53.6826 22.8697 44.0832 22.4061 34.4839 22.4061C20.3968 22.4061 6.30841 23.4047 4.23706 23.5584C4.58071 15.7514 5.05105 9.97668 5.05913 9.88639C5.09956 9.39449 5.49038 9.00367 5.98362 8.96324C6.12647 8.95111 20.4049 7.78809 34.5 7.78809C43.8352 7.78809 53.2527 8.29885 58.588 8.64654C61.309 8.82309 62.9693 8.9592 63.0178 8.96324C63.511 9.00367 63.9018 9.39449 63.9423 9.88639C63.9504 9.97668 64.4207 15.7527 64.763 23.5611Z" fill="#FF5364"/>
<path d="M22.7119 8.0199C22.6783 8.40803 22.6297 8.80828 22.5664 9.22336C22.4828 9.7759 21.9667 10.1559 21.4155 10.0724C20.8643 9.98883 20.4843 9.47268 20.5678 8.92148C20.6109 8.63982 20.646 8.3649 20.6743 8.09941C20.925 5.74506 20.6177 3.9985 19.7781 3.0201C19.2067 2.35705 18.3658 2.02148 17.2768 2.02148C16.5006 2.02148 15.8753 2.27215 15.4211 2.76809C14.5937 3.66967 14.2675 5.42566 14.4751 7.8474C14.7177 10.6613 15.5438 12.5629 16.9305 13.4995C18.5396 14.5857 20.4721 14.0129 20.4924 14.0075C21.0233 13.8445 21.5893 14.141 21.7551 14.6719C21.9209 15.2029 21.6298 15.7662 21.0988 15.936C21.0409 15.9549 20.2889 16.1854 19.2431 16.1854C18.2552 16.1854 17.006 15.9792 15.8254 15.1921C13.8929 13.9024 12.7609 11.4888 12.4617 8.02125C12.2002 4.9769 12.6948 2.75057 13.932 1.40156C14.7729 0.485156 15.9305 0 17.2768 0C19.4008 0 20.6419 0.92584 21.3104 1.70209C22.4977 3.08209 22.968 5.2033 22.7119 8.0199Z" fill="#58768C"/>
<path d="M56.5193 8.51584C56.4829 8.87162 56.4357 9.23684 56.3777 9.61283C56.2915 10.164 55.7753 10.5427 55.2242 10.4565C54.6716 10.3716 54.2943 9.85541 54.3792 9.30422C54.4277 8.99426 54.4668 8.69238 54.4978 8.39994C54.7633 5.93508 54.4412 4.10092 53.5517 3.06322C52.7755 2.15625 51.6852 2.02148 51.103 2.02148C50.3268 2.02148 49.7015 2.27215 49.2473 2.76809C48.4198 3.66967 48.0937 5.42566 48.3012 7.8474C48.5438 10.6613 49.3699 12.5629 50.7567 13.4995C52.3658 14.5857 54.2983 14.0129 54.3185 14.0075C54.8495 13.8445 55.4155 14.141 55.5813 14.6719C55.747 15.2029 55.4559 15.7662 54.925 15.936C54.867 15.9549 54.115 16.1854 53.0693 16.1854C52.0814 16.1854 50.8321 15.9792 49.6516 15.1921C47.7191 13.9024 46.587 11.4888 46.2878 8.02125C46.0264 4.9769 46.521 2.75057 47.7581 1.40156C48.5991 0.485156 49.7567 0 51.103 0C52.0316 0 53.7835 0.226406 55.0867 1.74656C56.3481 3.21955 56.8279 5.49305 56.5193 8.51584Z" fill="#58768C"/>
<path d="M39.6399 7.83527C39.6129 8.20049 39.5711 8.57918 39.5159 8.96865C39.4391 9.52119 38.9283 9.90662 38.3758 9.82981C37.8232 9.75299 37.4378 9.24223 37.5146 8.68969C37.5564 8.38647 37.5901 8.09268 37.6157 7.80697C37.8111 5.59008 37.4917 3.9419 36.6804 3.00797C36.1103 2.35301 35.2721 2.02148 34.1899 2.02148C33.4137 2.02148 32.7884 2.27215 32.3342 2.76809C31.5068 3.66967 31.1806 5.42566 31.3882 7.8474C31.6307 10.6613 32.4569 12.5629 33.8436 13.4995C35.4527 14.5857 37.3852 14.0129 37.4054 14.0075C37.9364 13.8445 38.5024 14.141 38.6682 14.6719C38.834 15.2029 38.5429 15.7662 38.0119 15.936C37.9539 15.9549 37.202 16.1854 36.1562 16.1854C35.1683 16.1854 33.9191 15.9792 32.7385 15.1921C30.806 13.9024 29.6739 11.4888 29.3748 8.02125C29.1133 4.9769 29.6079 2.75057 30.8451 1.40156C31.686 0.485156 32.8436 0 34.1899 0C36.299 0 37.5375 0.915059 38.2046 1.68188C39.3798 3.03088 39.8609 5.09818 39.6399 7.83527Z" fill="#58768C"/>
<path d="M56.5194 8.5158C56.483 8.87158 56.4359 9.2368 56.3779 9.61279C56.2917 10.164 55.7755 10.5427 55.2243 10.4564C54.6718 10.3715 54.2945 9.85537 54.3794 9.30418C54.4279 8.99422 54.467 8.69234 54.498 8.3999C55.2068 8.43898 55.882 8.47807 56.5194 8.5158Z" fill="#FF5F85"/>
<path d="M39.6399 7.83543C39.6129 8.20064 39.5712 8.57934 39.5159 8.96881C39.4391 9.52135 38.9283 9.90678 38.3758 9.82996C37.8232 9.75315 37.4378 9.24238 37.5146 8.68984C37.5564 8.38662 37.5901 8.09283 37.6157 7.80713C38.2936 7.81387 38.9688 7.82465 39.6399 7.83543Z" fill="#FF5F85"/>
<path d="M22.712 8.02002C22.6784 8.40814 22.6298 8.8084 22.5665 9.22348C22.4829 9.77602 21.9668 10.1561 21.4156 10.0725C20.8644 9.98895 20.4844 9.47279 20.5679 8.9216C20.611 8.63994 20.6461 8.36502 20.6744 8.09953C21.3415 8.07123 22.0207 8.04428 22.712 8.02002Z" fill="#FF5F85"/>
<path d="M22.653 47.4296C19.5721 48.6303 16.7802 48.4378 14.9904 48.0697C15.8599 47.4823 16.9614 46.661 18.2056 45.5617C22.3948 41.8603 24.5074 36.7216 23.2287 33.3436C22.7611 32.1082 21.3886 30.0356 17.4501 30.0356C15.4283 30.0356 13.8869 30.6986 12.8689 32.0059C10.784 34.6832 11.858 39.0582 11.9046 39.2431C12.0413 39.7837 12.5896 40.1107 13.1304 39.975C13.6713 39.8393 13.9998 39.2904 13.8649 38.7493C13.616 37.7508 13.2389 34.8156 14.4667 33.2441C15.0908 32.4454 16.0667 32.057 17.4501 32.057C19.5272 32.057 20.8354 32.7307 21.3382 34.0591C22.2984 36.596 20.3345 40.9831 16.8672 44.0468C14.1097 46.4834 12.1073 47.4479 12.0893 47.4565C11.7351 47.6231 11.5089 47.979 11.5085 48.3704C11.5081 48.7617 11.7339 49.1181 12.0878 49.2852C12.2268 49.3508 14.4671 50.3826 17.7338 50.3824C19.3989 50.3824 21.3316 50.1141 23.3872 49.3129C23.9073 49.1102 24.1647 48.5243 23.962 48.0042C23.759 47.4843 23.1736 47.2266 22.653 47.4296Z" fill="#FF5364"/>
<path d="M50.4 47.4296C47.3191 48.6303 44.5271 48.4378 42.7373 48.0697C43.6068 47.4823 44.7084 46.661 45.9525 45.5619C50.1419 41.8603 52.2545 36.7218 50.9758 33.3436C50.5082 32.1082 49.1356 30.0356 45.1971 30.0356C43.1753 30.0356 41.6338 30.6986 40.6158 32.0059C38.531 34.6832 39.605 39.0582 39.6516 39.2431C39.7882 39.7836 40.3365 40.1107 40.8774 39.975C41.4182 39.8393 41.7468 39.2904 41.6119 38.7493C41.363 37.7508 40.9859 34.8156 42.2136 33.2441C42.8377 32.4454 43.8137 32.057 45.1971 32.057C47.2742 32.057 48.5824 32.7307 49.0852 34.0591C50.0454 36.5959 48.0814 40.9831 44.6141 44.0467C41.8565 46.4832 39.8541 47.4478 39.8361 47.4564C39.4819 47.623 39.2558 47.9789 39.2554 48.3702C39.255 48.7616 39.4807 49.1179 39.8346 49.285C39.9737 49.3507 42.2139 50.3824 45.4806 50.3823C47.1458 50.3823 49.0784 50.114 51.134 49.3128C51.6541 49.1101 51.9115 48.5241 51.7088 48.0041C51.5061 47.4843 50.9205 47.2266 50.4 47.4296Z" fill="#23854D"/>
<path d="M31.4196 30.0356C29.5823 30.0356 27.5518 30.3042 26.4219 32.2958C25.601 33.7426 25.2812 35.9609 25.2812 40.2071C25.2812 44.4534 25.601 46.6715 26.4219 48.1185C27.5518 50.1101 29.5823 50.3787 31.4196 50.3787C33.2568 50.3787 35.2873 50.1101 36.4171 48.1185C37.2379 46.6715 37.5577 44.4534 37.5577 40.2071C37.5577 35.9609 37.2379 33.7426 36.4171 32.2958C35.2873 30.3041 33.2568 30.0356 31.4196 30.0356ZM31.4196 48.3569C28.3605 48.3569 27.3027 47.9622 27.3027 40.2069C27.3027 32.4519 28.3606 32.057 31.4196 32.057C34.4785 32.057 35.5364 32.4517 35.5364 40.2069C35.5364 47.9622 34.4785 48.3569 31.4196 48.3569Z" fill="#FF5364"/>
<path d="M56.6168 30.9615C56.5698 30.4053 56.0816 29.9933 55.5245 30.0397C54.9683 30.0867 54.5555 30.5758 54.6026 31.132C54.61 31.2196 55.3341 39.9974 54.602 49.2888C54.5582 49.8453 54.9739 50.3319 55.5303 50.3758C55.5573 50.378 55.5841 50.3789 55.6108 50.3789C56.133 50.3789 56.5756 49.9769 56.6173 49.4474C57.3627 39.9855 56.6243 31.0506 56.6168 30.9615Z" fill="#23854D"/>
<path d="M15.517 68.4462C15.331 68.4367 15.1504 68.3747 14.9968 68.2683C9.28269 64.3169 5.8273 59.6608 4.60633 57.8428C4.50391 57.6919 4.44596 57.5153 4.43652 57.3334C4.43652 57.3334 9.66139 56.9008 14.4712 56.956C15.0574 56.9628 15.5331 57.4304 15.5533 58.0167C15.618 59.9195 15.7178 64.1606 15.517 68.4462Z" fill="#D2E1F9"/>
<path d="M64.7628 23.561C64.1335 23.5138 62.236 23.3777 59.48 23.2147C59.162 15.4468 58.7146 10.0763 58.5879 8.64648C61.3088 8.82303 62.9691 8.95914 63.0176 8.96318C63.5109 9.00361 63.9017 9.39443 63.9421 9.88633C63.9502 9.97662 64.4205 15.7527 64.7628 23.561Z" fill="#A4464F"/>
</g>
<defs>
<clipPath id="clip0">
<rect width="69" height="69" fill="white"/>
</clipPath>
</defs>
</svg>
