<svg width="69" height="69" viewBox="0 0 69 69" fill="none" xmlns="http://www.w3.org/2000/svg">
<path d="M40.0805 67.6494C40.0967 68.1629 39.7247 68.6076 39.2167 68.6817C39.1506 68.6912 37.9849 68.8596 36.3771 68.9472C35.799 68.9782 35.1629 68.9998 34.4999 68.9998C31.9946 68.9998 29.8734 68.6952 29.7831 68.6817C29.275 68.6076 28.903 68.1629 28.9192 67.6494C29.027 64.3234 29.7548 60.9098 29.7858 60.7656C29.8855 60.3006 30.2965 59.9678 30.7736 59.9678H38.2261C38.7032 59.9678 39.1142 60.3006 39.214 60.7656C39.245 60.9098 39.9727 64.3234 40.0805 67.6494Z" fill="#A25442"/>
<path d="M40.0805 67.6494C40.0967 68.1629 39.7247 68.6076 39.2166 68.6817C39.1506 68.6912 37.9849 68.8596 36.3771 68.9472C36.2828 65.4474 35.9957 62.1901 35.7559 59.9678H38.2261C38.7032 59.9678 39.1142 60.3006 39.2139 60.7656C39.2449 60.9098 39.9727 64.3234 40.0805 67.6494Z" fill="#804537"/>
<path d="M63.0312 60.53C62.8708 60.8494 62.5541 61.0596 62.1983 61.0852C62.1552 61.0879 60.6175 61.1971 58.0125 61.3372C53.0612 61.6054 44.2475 61.9895 34.5 61.9895C19.6245 61.9895 6.9269 61.0946 6.80157 61.0852C6.44579 61.0596 6.12909 60.8494 5.96872 60.53C5.80969 60.2106 5.82991 59.8319 6.02262 59.5314C11.3283 51.2662 17.5276 43.7597 20.4506 40.3515C17.0478 40.8636 14.0897 41.966 14.0533 41.9795C13.645 42.1331 13.1841 42.0078 12.9105 41.6682C12.6356 41.3286 12.6113 40.8515 12.8485 40.4849C18.068 32.4179 23.6702 25.4721 26.3749 22.2431C23.8494 22.5867 22.1958 23.0813 22.1743 23.0867C21.7754 23.208 21.3428 23.0719 21.0854 22.743C20.828 22.4142 20.7997 21.9614 21.0126 21.6029C26.7051 12.0359 33.6873 4.44322 33.7574 4.36775C33.9488 4.16021 34.2183 4.04297 34.5 4.04297C34.7816 4.04297 35.0511 4.16021 35.2425 4.36775C35.2587 4.38527 35.6266 4.78553 36.2519 5.50518C36.2519 5.50518 36.2519 5.50518 36.2533 5.50652C38.4028 7.97543 43.5818 14.1976 47.9873 21.6029C48.2016 21.9614 48.1719 22.4156 47.9145 22.743C47.6571 23.0719 47.2245 23.208 46.8243 23.0867C46.8041 23.0813 45.1505 22.5867 42.625 22.2431C45.3297 25.4721 50.9319 32.4179 56.1514 40.4849C56.3886 40.8515 56.3643 41.3286 56.0894 41.6682C55.8158 42.0078 55.3549 42.1345 54.9466 41.9795C54.9102 41.966 51.9521 40.8636 48.5493 40.3515C51.4723 43.7597 57.6716 51.2662 62.9773 59.5314C63.17 59.8319 63.1902 60.2106 63.0312 60.53Z" fill="#24AE5F"/>
<path d="M63.0311 60.5298C62.8707 60.8492 62.554 61.0594 62.1982 61.085C62.1551 61.0877 60.6175 61.1969 58.0124 61.337C52.3172 49.0127 44.0561 37.9512 44.0561 37.9512C47.5021 37.7396 49.9629 37.9512 49.9629 37.9512C43.424 27.1928 38.6365 19.8388 38.6365 19.8388C40.5763 19.6914 42.7905 19.705 42.7905 19.705C40.6275 13.8683 36.3044 5.62494 36.2532 5.50635C38.4027 7.97525 43.5817 14.1974 47.9872 21.6028C48.2015 21.9612 48.1718 22.4154 47.9144 22.7429C47.657 23.0717 47.2244 23.2078 46.8242 23.0865C46.804 23.0811 45.1504 22.5865 42.6249 22.2429C45.3296 25.4719 50.9318 32.4177 56.1513 40.4848C56.3885 40.8513 56.3642 41.3284 56.0893 41.668C55.8158 42.0076 55.3549 42.1343 54.9465 41.9793C54.9101 41.9658 51.952 40.8635 48.5492 40.3513C51.4723 43.7596 57.6715 51.266 62.9772 59.5312C63.1699 59.8317 63.1901 60.2104 63.0311 60.5298Z" fill="#23854D"/>
<path d="M34.5 6.06445C36.1747 6.06445 37.5322 4.70688 37.5322 3.03223C37.5322 1.35757 36.1747 0 34.5 0C32.8253 0 31.4678 1.35757 31.4678 3.03223C31.4678 4.70688 32.8253 6.06445 34.5 6.06445Z" fill="#58768C"/>
<path d="M29.9297 45.8271C31.6043 45.8271 32.9619 44.4696 32.9619 42.7949C32.9619 41.1203 31.6043 39.7627 29.9297 39.7627C28.255 39.7627 26.8975 41.1203 26.8975 42.7949C26.8975 44.4696 28.255 45.8271 29.9297 45.8271Z" fill="#FF5364"/>
<path d="M49.2656 57.7354C50.9403 57.7354 52.2979 56.3778 52.2979 54.7031C52.2979 53.0285 50.9403 51.6709 49.2656 51.6709C47.591 51.6709 46.2334 53.0285 46.2334 54.7031C46.2334 56.3778 47.591 57.7354 49.2656 57.7354Z" fill="#894B9D"/>
<path d="M34.5 27.4834C36.1747 27.4834 37.5322 26.1258 37.5322 24.4512C37.5322 22.7765 36.1747 21.4189 34.5 21.4189C32.8253 21.4189 31.4678 22.7765 31.4678 24.4512C31.4678 26.1258 32.8253 27.4834 34.5 27.4834Z" fill="#F0C419"/>
<path d="M23.6911 16.3804C25.1373 16.5986 26.4929 16.6937 27.7578 16.6937C32.2591 16.6937 35.6099 15.488 37.79 14.3289C40.8589 12.6971 42.3493 10.8077 42.4111 10.7281C42.753 10.2885 42.6739 9.65654 42.2355 9.31315C41.797 8.96977 41.1624 9.04713 40.8177 9.48431C40.8045 9.50102 39.4714 11.1674 36.7463 12.594C33.094 14.5059 28.8032 15.1071 23.9927 14.3817C23.4415 14.2988 22.9258 14.6782 22.8425 15.2303C22.7592 15.7822 23.1391 16.2972 23.6911 16.3804Z" fill="#DCF8FF"/>
<path d="M20.9363 28.0779C21.058 28.1395 23.9796 29.6027 29.2052 30.9532C33.2957 32.0105 39.5244 33.1631 47.2323 33.1631C48.5591 33.1631 49.9297 33.129 51.3405 33.0544C51.8979 33.0248 52.3259 32.549 52.2964 31.9916C52.2669 31.4342 51.7884 31.0073 51.2337 31.0357C33.4143 31.9789 21.9798 26.3398 21.8484 26.2739C21.3502 26.0223 20.7427 26.2216 20.4907 26.7197C20.2387 27.2177 20.4381 27.8259 20.9363 28.0779Z" fill="#DCF8FF"/>
<path d="M55.691 45.6863C55.4715 45.1731 54.8774 44.9347 54.3641 45.1546C43.5969 49.7616 32.5184 50.5741 25.1251 50.4443C17.0957 50.3036 11.5438 49.053 11.4706 49.0363C10.9267 48.911 10.3841 49.2508 10.2591 49.7948C10.134 50.3388 10.4736 50.8812 11.0177 51.0063C11.2497 51.0597 16.7947 52.3149 25.0349 52.4645C25.5276 52.4734 26.035 52.4782 26.5583 52.4782C34.1166 52.4782 44.7638 51.4609 55.1595 47.0131C55.6725 46.7937 55.9105 46.1995 55.691 45.6863Z" fill="#DCF8FF"/>
<path d="M19.3337 57.0298C19.892 57.0298 20.3445 56.5773 20.3445 56.019C20.3445 55.4608 19.892 55.0083 19.3337 55.0083C18.7755 55.0083 18.323 55.4608 18.323 56.019C18.323 56.5773 18.7755 57.0298 19.3337 57.0298Z" fill="#C0FFDE"/>
<path d="M38.178 56.5732C38.7362 56.5732 39.1887 56.1207 39.1887 55.5625C39.1887 55.0043 38.7362 54.5518 38.178 54.5518C37.6198 54.5518 37.1672 55.0043 37.1672 55.5625C37.1672 56.1207 37.6198 56.5732 38.178 56.5732Z" fill="#C0FFDE"/>
<path d="M41.0957 45.8257C41.6539 45.8257 42.1064 45.3732 42.1064 44.8149C42.1064 44.2567 41.6539 43.8042 41.0957 43.8042C40.5375 43.8042 40.085 44.2567 40.085 44.8149C40.085 45.3732 40.5375 45.8257 41.0957 45.8257Z" fill="#C0FFDE"/>
<path d="M36.9478 38.3271C37.506 38.3271 37.9585 37.8746 37.9585 37.3164C37.9585 36.7582 37.506 36.3057 36.9478 36.3057C36.3895 36.3057 35.937 36.7582 35.937 37.3164C35.937 37.8746 36.3895 38.3271 36.9478 38.3271Z" fill="#C0FFDE"/>
<path d="M26.2607 35.5078C26.819 35.5078 27.2715 35.0553 27.2715 34.4971C27.2715 33.9389 26.819 33.4863 26.2607 33.4863C25.7025 33.4863 25.25 33.9389 25.25 34.4971C25.25 35.0553 25.7025 35.5078 26.2607 35.5078Z" fill="#C0FFDE"/>
<path d="M36.9478 19.061C37.506 19.061 37.9585 18.6085 37.9585 18.0503C37.9585 17.4921 37.506 17.0396 36.9478 17.0396C36.3895 17.0396 35.937 17.4921 35.937 18.0503C35.937 18.6085 36.3895 19.061 36.9478 19.061Z" fill="#C0FFDE"/>
</svg>
